<?xml version="1.0" encoding="UTF-8"?>
<svg id="Capa_1" data-name="Capa 1" xmlns="http://www.w3.org/2000/svg" viewBox="0 0 1872.06 300.88">
  <defs>
    <style>
      .cls-1 {
        fill: #058e39;
      }

      .cls-1, .cls-2, .cls-3, .cls-4, .cls-5, .cls-6, .cls-7, .cls-8, .cls-9, .cls-10, .cls-11, .cls-12, .cls-13, .cls-14, .cls-15, .cls-16, .cls-17, .cls-18, .cls-19, .cls-20, .cls-21, .cls-22, .cls-23, .cls-24, .cls-25, .cls-26, .cls-27, .cls-28, .cls-29, .cls-30, .cls-31, .cls-32, .cls-33, .cls-34, .cls-35, .cls-36, .cls-37, .cls-38, .cls-39, .cls-40, .cls-41, .cls-42, .cls-43, .cls-44 {
        stroke-width: 0px;
      }

      .cls-2 {
        fill: #c5e3ea;
      }

      .cls-3 {
        fill: #f39033;
      }

      .cls-4 {
        fill: #193255;
      }

      .cls-5 {
        fill: #2076b4;
      }

      .cls-6 {
        fill: #1c407c;
      }

      .cls-7 {
        fill: #2e99c4;
      }

      .cls-8 {
        fill: #f28e2a;
      }

      .cls-9 {
        fill: #44a0c7;
      }

      .cls-10 {
        fill: #f28b24;
      }

      .cls-11 {
        fill: #174382;
      }

      .cls-12 {
        fill: #0f4685;
      }

      .cls-13 {
        fill: #f28d2a;
      }

      .cls-14 {
        fill: #1b407e;
      }

      .cls-15 {
        fill: #1e3a68;
      }

      .cls-16 {
        fill: #0b4987;
      }

      .cls-17 {
        fill: #ee750b;
      }

      .cls-18 {
        fill: #024d8b;
      }

      .cls-19 {
        fill: #144584;
      }

      .cls-20 {
        fill: #08589e;
      }

      .cls-21 {
        fill: #f07e0c;
      }

      .cls-22 {
        fill: #164383;
      }

      .cls-23 {
        fill: #085fa9;
      }

      .cls-24 {
        fill: #439fc7;
      }

      .cls-25 {
        fill: #094b8b;
      }

      .cls-26 {
        fill: #fbdec9;
      }

      .cls-27 {
        fill: #f07e0d;
      }

      .cls-28 {
        fill: #f28d29;
      }

      .cls-29 {
        fill: #1a417f;
      }

      .cls-30 {
        fill: #f39032;
      }

      .cls-31 {
        fill: #1ea850;
      }

      .cls-32 {
        fill: #034a96;
      }

      .cls-33 {
        fill: #f28e2b;
      }

      .cls-34 {
        fill: #f39541;
      }

      .cls-35 {
        fill: #06539a;
      }

      .cls-36 {
        fill: #f28e2c;
      }

      .cls-37 {
        fill: #f39135;
      }

      .cls-38 {
        fill: #f07e0a;
      }

      .cls-39 {
        fill: #1074b3;
      }

      .cls-40 {
        fill: #2d99c4;
      }

      .cls-41 {
        fill: #0c5da9;
      }

      .cls-42 {
        fill: #046aae;
      }

      .cls-43 {
        fill: #f39540;
      }

      .cls-44 {
        fill: #f49642;
      }
    </style>
  </defs>
  <g>
    <path class="cls-41" d="M1872,157.9c-.64,1.29-.6,2.75-.98,4.11-5.5,19.32-18.02,31.87-36.96,38.13-2.48.82-5.09,1.26-7.65,1.85-.3.07-.75.28-.91-.14-.16-.41.27-.59.56-.76,2.84-1.64,5.71-3.24,8.16-5.45,5.41-4.89,9.36-10.75,10.62-18,2.65-15.27-4.03-28.12-17.26-35.03-12.51-6.52-29.32-3.55-38.82,8.19-2.98,3.68-5.08,7.88-6.92,12.26-3.13,7.44-6.5,14.78-9.73,22.18-5.22,11.94-10.4,23.89-15.6,35.84-.23.52-.37,1.11-1.02,1.65-1.17-2.54-2.33-4.98-3.42-7.45-8.58-19.44-16.72-39.09-25.76-58.33-4.34-9.25-12.03-15.17-22.04-17.07-19.3-3.65-33.8,8.97-37.58,23.5-2.59,9.95-.64,19.29,5.74,27.54,3.06,3.95,6.84,7.04,11.27,9.34.8.42,1.71.74,2.31,1.77-1.87,0-3.48-.53-5.08-.91-18.24-4.36-31.12-15.15-38.55-32.38-1.63-3.79-2.74-7.75-3.15-11.88-.02-.21-.07-.38-.28-.47v-10.15c.24-.6.24-1.19,0-1.79v-1.19c.48-3.3.71-6.62,1.81-9.84,3.18-9.28,8.7-16.89,16.04-23.31,4.82-4.21,10.25-7.36,16.2-9.62,8.81-3.35,17.88-4.38,27.25-3.17,7.73,1,14.88,3.55,21.49,7.59,5.85,3.58,10.93,8.09,15.2,13.49.19.23.33.5.5.75.44.66.83,1.34,1.18,2.05-3.52-6.47-5.55-13.48-7.2-20.6-1.42-6.16-2.16-12.41-2.53-18.73-.25-4.23-.32-8.45-.17-12.67.3-8.38,1.74-16.61,3.94-24.68,2.22-8.13,5.22-15.97,9.11-23.46,3.42-6.58,7.39-12.84,11.45-19.04.55-.85,1.26-1.52,2.14-2.02h.3c1.97.87,2.79,2.8,3.88,4.41,9.99,14.66,17.35,30.49,20.84,47.96,1.07,5.36,1.76,10.77,2.03,16.25.16,3.18.32,6.36.21,9.53-.43,12.31-2.62,24.29-6.89,35.86-.86,2.33-1.67,4.68-2.94,6.63.58-1.27,1.59-2.47,2.66-3.59,3.83-4.04,7.58-8.2,12.34-11.19,7.28-4.59,15.18-7.67,23.78-8.61,10.74-1.17,21.14.22,30.91,5.05,7.31,3.61,13.63,8.5,18.84,14.82,4.62,5.61,7.9,11.9,9.87,18.89.56,1.98.47,4.05.87,6.05v1.19c-.24.6-.24,1.19,0,1.79v8.36c-.24.6-.24,1.19,0,1.79v2.69l-.06.02Z"/>
    <path class="cls-41" d="M1760.68,300.87c3.66-5.3,6.06-11.25,8.6-17.1,12-27.67,23.93-55.36,35.89-83.05,3.08-7.14,6.15-14.28,9.27-21.4.34-.77.63-2.12,1.53-1.89.72.18.47,1.57.44,2.43-.53,14.7-1.08,29.41-1.62,44.11-.32,8.69-.55,17.39-.99,26.08-.66,13.23-6.11,24.31-15.67,33.34-9.48,8.94-21.14,13.61-33.6,16.6-1.09.26-2.24.31-3.24.89h-.61Z"/>
    <path class="cls-16" d="M1872,145.07c-.33-.6-.49-1.19,0-1.79v1.79Z"/>
    <path class="cls-25" d="M1638.9,144.47c.49.6.32,1.19,0,1.79v-1.79Z"/>
    <path class="cls-35" d="M1872,155.21c-.42-.6-.37-1.19,0-1.79v1.79Z"/>
    <path class="cls-31" d="M1755.53,233.11c.57-.49.71-1.13.97-1.71,7.85-17.82,15.7-35.65,23.54-53.48.8-1.82,1.66-3.6,2.69-5.31,1.15-1.91,2.64-2.96,5.07-2.94,9,.05,18.01-.08,27.01-.15h1.7c-3.98,2.36-4.77,6.27-6.25,9.68-12.49,28.72-24.88,57.49-37.33,86.23-4.37,10.1-8.71,20.21-13.39,30.17-.6,1.27-1.46,2.02-2.82,2.36-2.23.56-3.96-.08-5-2.1-2.71-5.3-5.03-10.78-7.45-16.21-9.65-21.64-18.82-43.48-28.23-65.22-5.4-12.46-10.8-24.92-16.22-37.37-1.17-2.68-2.26-5.42-4.76-7.23.36-.49.79-.3,1.15-.3,8.31.02,16.62.21,24.92,0,4.37-.1,6.92,1.72,8.58,5.61,4.07,9.52,8.3,18.98,12.47,28.46,3.98,9.03,7.97,18.05,11.97,27.06.37.84.7,1.72,1.39,2.43h0Z"/>
    <path class="cls-41" d="M1695.13,177.03c.86.78,1.19,1.8,1.59,2.72,4.51,10.36,9,20.72,13.47,31.09,10.36,24.02,20.66,48.06,31.08,72.05,2.5,5.76,4.71,11.69,8.34,16.91.13.19.19.43.33.75-3.02-.14-5.76-1.09-8.5-1.86-8.16-2.29-15.88-5.52-22.85-10.49-10.9-7.78-17.5-18.31-20.6-31.21-.99-4.1-.96-8.29-1.12-12.45-.61-16-1.08-32.01-1.6-48.01-.18-5.67-.37-11.33-.54-17-.02-.82-.1-1.67.4-2.52v.02Z"/>
  </g>
  <g>
    <path class="cls-39" d="M1354.93,59.81c-9.48-.1-18.96-.11-28.43-.36-2.13-.06-4.64,1.19-6.4-1.16.97-9.52.48-19.07.32-28.59-.08-4.78,1.53-6.05,6.02-5.76,9.48.62,19.03-.75,28.5.75v35.12h-.01Z"/>
    <path class="cls-24" d="M1263.87,35.95c-.08-9.37-.15-18.74-.23-28.11h26.69c2.91,8.57.99,17.35,1.1,26.04.02,1.82-1.52,2.77-3.41,2.7-8.05-.29-16.13.79-24.14-.63h-.01Z"/>
    <path class="cls-21" d="M1086.85,115.04c-7.64,9.84-17.35,8.53-24.06-3.25v-7.02c7.1-12.16,14.93-13.09,25.24-2.99,4.05,4.81,3.73,9.24-1.17,13.26h-.01Z"/>
    <path class="cls-40" d="M1263.87,35.95c6.77,0,13.55-.3,20.29.07,5.07.28,6.45-1.75,6.25-6.49-.31-7.22-.08-14.46-.08-21.7h2.81c-.15,8.14-.49,16.28-.39,24.41.05,3.88-1.12,5.66-5.17,5.18-7.87-.93-15.98,1.79-23.71-1.48h0Z"/>
    <path class="cls-42" d="M1354.93,24.7c-9.3,0-18.61.21-27.9-.09-4.69-.15-5.82,1.66-5.93,6.09-.23,9.2,1.45,18.48-1,27.6-.15-10.43-.18-20.86-.52-31.28-.12-3.79,1.83-4.03,4.73-3.99,10.21.16,20.42.19,30.63.27v1.4h0Z"/>
    <path class="cls-26" d="M1062.79,163.77c.48,0,.96.02,1.45.03,1.63,1.87,1.83,4.02,1.28,6.33-.26.71-.64,1.35-1.13,1.93-.53.05-1.07.1-1.6.14v-8.43h0Z"/>
    <path class="cls-18" d="M1333.89,292.75c-23.34.08-46.68.11-70.02.29-3.18.02-5.05-.68-4.35-4.21.63-3.21-1.62-6.81,1.33-9.69,20.59.77,41.19,1.12,61.77-.18.15-9.07.43-18.15.44-27.22.05-35.2,0-70.41.08-105.61,0-2.42-1.07-5.1.92-7.32.5.79.72,1.65.65,2.58.01,44.58,0,89.15.01,133.73.22-44.98-.25-89.96.25-134.94,2.96-1.82,6.07-.99,9.16-.5l-.07-.07c.69,1.56.47,3.21.47,4.84.01,47.61.01,95.22-.01,142.83,0,1.83.43,3.75-.64,5.47h.01Z"/>
    <path class="cls-34" d="M1217.19,230.5c-.19-.32-.12-.57.2-.76,1.09-3.23.83-6.47.12-9.73,2.68-2.2,5.35-2.22,8.03,0-.77,3.27-1.11,6.54.17,9.77.57.39,1.15.78,1.72,1.17,4.45,2.51,9.56-.43,14.06,1.67.45,1.43.51,2.85-.1,4.26-4.14,1.25-8.37.33-12.56.56-.93.06.37,1.5-.08.68,3.75-1.33,7.62-.25,11.42-.59.76-.06,1.44.15,2.04.62-4.01,3.34-9.7-1.52-13.52,2.76-4.82,1.55-9.64,1.6-14.45-.03-.96-2.44-3.13-1.59-4.82-1.6-15.65-.07-31.3.15-46.94-.15-4.81-.09-5.82,1.68-5.73,6.04.25,11.91-.26,23.84.23,35.73.25,5.95-1.91,7.43-7.15,6.25-1.47-13.4-.2-26.85-.72-40.27-.09-2.4,1.2-5.09-1.03-7.22-.26.2-.55.31-.87.33-1.37-3.59-1.57-7.16.1-10.72.32-.05.49.09.51.41,2.6-1.64,1.24-4.21,1.27-6.3.15-10.71.21-21.43,0-32.15-.08-4.15.93-6.84,5.49-7.09.92-.07,1.74.19,2.45.76-.03,15.21-.06,30.42-.09,45.63.6,1.92,2.23,1.33,3.5,1.33,17.76.04,35.51.04,53.27,0,1.26,0,2.91.57,3.45-1.39l.03.03Z"/>
    <path class="cls-34" d="M1064.38,172.05c-.1-.46-.08-.92.04-1.37-.03-4.84,1.98-6.63,7.15-6.36,5.44.29,11.06,1.23,16.47-.67.08-15.02.16-30.03.22-45.05,0-1.35.2-2.83-1.42-3.56,2.64-4.22,2.4-8.7,1.17-13.26.09-4.63.29-9.27.22-13.9-.05-3,.57-4.79,4.15-4.78,3.2,0,4.52.91,4.55,4.33.03,4.57-2.05,10.33.92,13.43,3.01,3.14,8.79.88,13.35,1.06,6.07.23,2.8,4.47,3.31,7.1-5.86,2.01-12.19-.95-18,1.66l.31-.23c-1.55.9-1.04,2.43-1.04,3.73-.03,15.27-.03,30.54,0,45.81,0,1.3-.52,2.83,1.07,3.71l-.33-.21c5.35,2.3,10.95.62,16.42.96,8.13.49,16.3-.5,24.43.52,1.85,2.59,1.98,5.11-.32,7.52-13.35-.06-26.71-.12-40.06-.17-3.06,2.25-6.1,2.37-9.13-.06-7.83-.06-15.65-.13-23.48-.19v-.02Z"/>
    <path class="cls-38" d="M1214.25,240.9c4.82-1.55,9.64-1.63,14.45.03,8.91,4.24,12.82,11.67,11.02,20.94-1.51,7.79-8.78,14.04-16.77,14.41-10.04.48-16.33-4.12-19.46-14.24.76-2.77.79-5.55-.02-8.32,1.08-6.39,4.72-10.62,10.78-12.82h0Z"/>
    <path class="cls-38" d="M1137.06,172.47c.04-2.42.08-4.85.12-7.27-.47-.33-.62-.64-.45-.95.17-.3.33-.45.5-.45,9.81-13.63,20.05-13.62,30.88.06.52.57.93,1.21,1.26,1.92.7,2.38.4,4.58-1.17,6.55-1.37,6.27-5.08,10.47-11.14,12.6-.52-.02-1.04-.04-1.56-.06-2.43.98-4.87,1-7.33.1-6.07-2.06-10.02-6.01-11.11-12.5h0Z"/>
    <path class="cls-9" d="M1314.18,89.31c8.36-2.78,16.96-.55,25.42-1.15,1.24-.09,2.51.49,2.44,1.89-.44,9.1,1.93,18.32-1.19,27.3-6.93-1.49-13.95-.55-20.92-.56-4.31,0-5.83-1.56-5.76-5.73.12-7.25.07-14.5,0-21.76h.01Z"/>
    <path class="cls-2" d="M1276.23,117.21c-.2,13.39,1.74,11.42-12.24,11.45-12.06.03-10.17,1.52-10.19-12.77-.01-11.57-1.61-9.6,13.25-9.69,10.68-.07,9.03-.9,9.18,11.01Z"/>
    <path class="cls-21" d="M1147.34,229.3c1.33,3.58,1.52,7.16-.1,10.71-1.5,3.17-3.74,5.49-7.27,6.35-2.77-.68-5.54-.76-8.31.05-3.47-.96-6.06-2.91-7.22-6.47-2.1-1.92-3.43-4.11-2.52-7.1.33-.69.7-1.36,1.09-2.02,7.06-11.88,17.47-12.53,24.32-1.53h0Z"/>
    <path class="cls-19" d="M1231.15,37.34c.13,2.72-1.93,2.13-3.41,2.13-50.49.02-100.99,0-151.48-.03-.62,0-1.24-.49-1.86-.76.44-1.44,1.44-2.31,2.82-2.8,3.18-.97,6.46-.76,9.72-.76,44.29-.02,88.59-.02,132.88,0,3.02,0,6.07-.21,9.03.71.87.35,1.64.85,2.31,1.5h-.01Z"/>
    <path class="cls-20" d="M1277.77,69.72c6.92-2.04,13.85-2.12,20.76.04-1.1,4.61-.24,9.3-.5,13.94-.04.7.11,1.43-.03,2.1-1.7,8.36-8.19,2.95-12.34,3.98-2.65.65-7.4,2.22-7.34-4.06.05-5.32.79-10.71-.56-15.99h.01Z"/>
    <path class="cls-27" d="M1087.86,172.24c3.04.02,6.09.04,9.13.06,7.42,8.44,7.35,11.4-.44,19.58-3.36,2.53-6.23,1.6-8.83-1.25-7.6-5.66-7.56-10.85.14-18.38h0Z"/>
    <path class="cls-5" d="M1241.28,54.3c5.48-1.94,10.96-2.04,16.44.04-.9,3.93-.37,7.91-.37,11.86,0,2.92-.96,3.98-4.02,4.2-11.95.89-12.2.78-12.16-11.2,0-1.64-.01-3.27.11-4.9Z"/>
    <path class="cls-22" d="M1075.43,29.08c50.59-.08,101.18-.16,151.76-.24,1.16,0,2.35-.04,2.89,1.33-.33.33-.66.65-.98.99-2.8,1.57-5.88,1.38-8.91,1.38-45.16.04-90.33.04-135.49,0-2.8,0-5.64.11-8.26-1.17-.94-.49-1.27-1.26-1-2.28h-.01Z"/>
    <path class="cls-29" d="M1333.89,292.75c.06-51.04.12-102.09.18-153.14,2.46,1.39,1.38,3.76,1.39,5.66.07,47.39.07,94.78-.02,142.17,0,1.76,1.34,4.25-1.54,5.3h-.01Z"/>
    <path class="cls-43" d="M1087.72,190.62c2.82,1.26,5.81,1.39,8.83,1.25.1,5.82.13,11.65.34,17.47.11,3.06-.56,4.81-4.19,4.69-3.28-.1-4.5-1.26-4.48-4.58.03-6.28-.31-12.56-.49-18.85v.02Z"/>
    <path class="cls-30" d="M1140.16,61.23c.1,19.6.41,39.2.17,58.79-.07,5.57,1.56,7.14,7.08,7.03,17.26-.34,34.54-.18,51.81-.06,2.38.02,5.18-1.22,7.12,1.39-.31.34-.63.69-.94,1.04-.81.49-1.67.98-2.59,1.02-19.62.82-39.25.64-58.87.1-3.95-.11-6.94-2.47-7.06-6.49-.62-20.31-1.25-40.62.32-60.92.03-.43.39-.84.59-1.26.61-.88,1.4-1.09,2.36-.62v-.02Z"/>
    <path class="cls-30" d="M1206.34,128.38c2.51,2,1.3,4.78,1.31,7.17.12,17.5.23,35.01-.04,52.51-.08,4.98,1.54,6.32,6.37,6.29,19.82-.13,39.65.11,59.48.22.45.98.22,1.76-.68,2.36-1.89,1.1-3.99,1.31-6.1,1.32-17.54.14-35.09.26-52.63-.05-7.49-.14-9.93-2.42-10.09-9.63-.39-17.77-.22-35.56-.08-53.34.02-2.36.39-4.68,2.11-6.53l.35-.32h0Z"/>
    <path class="cls-7" d="M1314.18,89.31c3.06,6.62,1.1,13.62,1.28,20.41.12,4.77,1.44,6.36,6.34,6.44,6.34.1,12.88-1.72,19.06,1.19-7.64.08-15.28.15-22.92.26-2.49.03-4.82-.11-4.64-3.5.45-8.26-1.14-16.6.88-24.8h0Z"/>
    <path class="cls-13" d="M1273.45,196.09c0-.51,0-1.02.01-1.53,2.86,1.48,1.47,4.13,1.48,6.2.12,19.61.08,39.22.06,58.82,0,7.82-1.94,8.84-9.98,5.32.65-.54,1.34-1.04,2.04-1.51,4.46-1.73,4.23-5.63,4.24-9.35.05-16-.02-32,.05-47.99.01-3.44-.42-7.03,2.1-9.96h0Z"/>
    <path class="cls-13" d="M1140.16,61.23h-1.55c-2.93,2.52-6.52,2.09-9.95,2.1-15.99.06-31.99,0-47.98.05-3.71,0-7.62-.24-9.34,4.23-.46.7-.98,1.37-1.53,2-3.49-8.06-2.49-9.95,5.34-9.96,19.61,0,39.21-.05,58.82.06,2.07,0,4.72-1.38,6.19,1.5v.02Z"/>
    <path class="cls-13" d="M1199.02,204.35c-2.97-1.43-1.44-4.1-1.46-6.13-.15-20.3-.12-40.61-.15-60.92.44-.08.88-.15,1.33-.23,1.69,1.21,2.22,3.06,2.23,4.92.09,20.03,1.01,40.07-.48,60.09-.35.85-.84,1.6-1.47,2.26h0Z"/>
    <path class="cls-13" d="M1197.42,137.3c-20.31-.03-40.62,0-60.93-.17-2.03-.02-4.7,1.51-6.13-1.46.68-.64,1.45-1.12,2.3-1.47,19.9-1.54,39.83-.6,59.76-.49,2.15,0,4.82.16,5.21,3.35l-.22.24h0Z"/>
    <path class="cls-30" d="M1131.63,135.65c-.42,0-.85,0-1.27.02-.13-21.92-.26-43.83-.4-65.75.45-.09.9-.18,1.35-.27,2.53,2.02,2.43,4.94,2.45,7.7.13,16.8.1,33.6.03,50.39-.01,2.81-.11,5.64-2.16,7.91Z"/>
    <path class="cls-3" d="M1199.02,204.35c0-.42.02-.85.02-1.27,2.05-1.86,4.59-2.1,7.16-2.12,17.15-.11,34.3-.1,51.46,0,2.32,0,4.65.14,6.68,1.52.81.68.91,1.46.32,2.34-21.88-.16-43.76-.31-65.64-.47Z"/>
    <path class="cls-12" d="M1322.61,278.97c-1.82,2.14-4.3,1.34-6.53,1.37-17.86.23-35.71.38-53.57.56-1.19.01-1.51-.79-1.68-1.75,20.59-.06,41.18-.12,61.77-.18h.01Z"/>
    <path class="cls-13" d="M1069.81,69.62v-1.39c2.47-2.21,5.53-2.18,8.55-2.2,14.38-.07,28.76-.14,43.13.06,3.2.04,7.13-.9,8.7,3.53l-.23.31c-20.05-.1-40.1-.2-60.15-.31Z"/>
    <path class="cls-32" d="M1277.77,69.72c2.69,4.57,1.08,9.56,1.21,14.34.11,3.91,1.36,5.71,5.33,5.26.46-.05.94,0,1.4,0,13.66-.14,11.35,1.37,11.68-11.47.07-2.71-1-5.65,1.14-8.09.14,1.61.38,3.21.4,4.82.19,18.1.19,18-17.79,16.58-3.05-.24-4.05-1.21-3.91-4.12.28-5.77.37-11.54.54-17.31h0Z"/>
    <path class="cls-30" d="M1266.47,264.89c-.48,0-.96.01-1.44.02l-.36-60.09.39-.32c3.59.54,3.36,3.6,3.42,5.92.38,16.23.32,32.47.07,48.71-.03,2.13-.59,4.13-2.08,5.77h0Z"/>
    <path class="cls-30" d="M1217.19,230.5c-.82,2.32-2.8,2.08-4.64,2.08-16.96,0-33.92,0-50.89,0-1.83,0-3.82.27-4.69-2.02,20.07-.02,40.14-.04,60.21-.06h.01Z"/>
    <path class="cls-30" d="M1096.86,163.69c-1.5-.71-1.75-2.04-1.75-3.5v-46.22c0-1.46.25-2.79,1.73-3.53,0,17.75.02,35.5.02,53.25Z"/>
    <path class="cls-28" d="M1148.17,184.97c2.44-.03,4.89-.07,7.33-.1-4.55,1.33-5.98,4.19-5.76,9.01.44,9.68.2,19.39.08,29.08-.03,2.34,1.14,5.23-1.97,6.75,1.05-14.91.42-29.83.32-44.74h0Z"/>
    <path class="cls-23" d="M1241.28,54.3c2.26,2.39,1.13,5.34,1.21,8.04.21,6.56,6.2,10.03,12.28,7.05,2.24-1.1,1.64-3.05,1.88-4.82.45-3.4-1.09-7.01,1.07-10.22.09.46.26.91.27,1.37.61,16.88.4,17.07-16.72,14.99-1.28-5.46-1.26-10.91-.02-16.37l.03-.03h0Z"/>
    <path class="cls-28" d="M1148.1,239.69c2.83,1.76,1.7,4.6,1.72,6.99.1,13.5.03,27,.03,40.5-2.92-1.47-1.37-4.12-1.41-6.15-.24-13.78-.25-27.56-.34-41.34Z"/>
    <path class="cls-8" d="M1137.23,163.81c0,.46-.02.93-.05,1.39-11.2,0-22.39.04-33.59-.08-2.41-.03-5.23,1.08-7.07-1.64,13.57.11,27.13.22,40.7.33h.01Z"/>
    <path class="cls-44" d="M1168.2,172.33c0-2.37-.01-4.75-.02-7.12,5.84-2.68,7.76.56,8.46,5.62-2.43,2.65-5.69.64-8.44,1.51h0Z"/>
    <path class="cls-13" d="M1096.53,110.67c5.72-3.62,12.02-.84,18-1.66-5.74,3.39-12.07.33-18,1.66Z"/>
    <path class="cls-43" d="M1123.15,232.64c-.26,2.56.37,4.96,1.3,7.31-1.51-1.24-4.01.32-5.19-1.84,1.67-1.56-1.89-6.85,3.9-5.47h-.01Z"/>
    <path class="cls-5" d="M1241.25,54.33c0,5.46.01,10.91.02,16.37-1.62-5.45-1.55-10.91-.02-16.37Z"/>
    <path class="cls-30" d="M1241.15,232.61c-4.66-.16-9.33-.33-13.99-.52-.04,0-.13-.39-.08-.57.06-.21.24-.38.36-.57,4.57.03,9.14.07,13.71.1.36.34.47.69.35,1.03s-.24.52-.36.52h.01Z"/>
    <path class="cls-36" d="M1176.64,170.82c-1.6-3.72-3.42-7.09-8.46-5.62-.03-.45-.06-.89-.07-1.34,5.18-.55,10.82-1.65,8.53,6.96h0Z"/>
    <path class="cls-14" d="M1324.3,139.84c-.08-.34-.16-.68-.24-1.02,3.42-.49,6.92-1.79,10.07.87-2.89.07-5.78.15-8.68.22-.43.67-.81.65-1.15-.07h0Z"/>
    <path class="cls-37" d="M1217.51,220.02c1.76,3.27,1.91,6.51-.12,9.73.04-3.24.08-6.48.12-9.73Z"/>
    <path class="cls-10" d="M1123.15,232.64c-3.95-.07-1.85,4.18-3.9,5.47.2-2.97-2.89-7.65,3.77-7.28.04.6.09,1.21.13,1.81Z"/>
    <path class="cls-37" d="M1225.72,229.79c-2.28-3.22-2.06-6.48-.17-9.77.06,3.26.12,6.52.17,9.77Z"/>
    <path class="cls-6" d="M1075.43,29.08c0,.42,0,.84.02,1.25,1.83,2.33,1.83,4.66,0,6.99-.35.45-.7.91-1.05,1.36-.56-3.3-2.28-6.72,1.03-9.6h0Z"/>
    <path class="cls-17" d="M1131.66,246.41c2.76-1.8,5.53-1.76,8.31-.05-2.76,1.04-5.53,1-8.31.05Z"/>
    <path class="cls-17" d="M1203.47,253.72c1.83,2.77,1.82,5.54.02,8.32-.81-2.77-.78-5.54-.02-8.32h0Z"/>
    <path class="cls-11" d="M1231.15,37.34h-1.23c-1.79-2.29-1.92-4.6-.08-6.94l.24-.23c2.48,2.07,1,4.74,1.07,7.17Z"/>
    <path class="cls-10" d="M1241.15,232.61v-1.55c2.76,2,1.18,4.67,1.08,7.1-.32-.06-.64-.11-.96-.15-.56-.21-.76-.46-.61-.75.16-.31.32-.46.49-.46v-4.19Z"/>
    <path class="cls-33" d="M1088.05,163.64c-4.84,3.26-10.28,1.46-15.34,1.32-4.74-.13-7.12,1.48-8.28,5.71-.06-2.29-.13-4.59-.19-6.88,7.94-.05,15.87-.1,23.81-.15h0Z"/>
    <path class="cls-12" d="M1324.3,139.84c.38.04.77.06,1.15.07v137.36h-1.15v-137.43h0Z"/>
    <path class="cls-37" d="M1215.22,237.93h-56.65v-.68h57.25c-.2.23-.4.46-.6.68Z"/>
    <path class="cls-37" d="M1241.15,236.8c.01.41.05.81.13,1.21h-13.8l-.05-1.21h13.73-.01Z"/>
    <path class="cls-37" d="M1090.57,114.73v45.98h-.66v-45.98h.66Z"/>
    <path class="cls-18" d="M1229.84,30.4c.03,2.31.05,4.62.08,6.94-51.49,0-102.98,0-154.48-.02v-6.99c51.47.02,102.93.05,154.4.07Z"/>
    <path class="cls-43" d="M1266.47,264.89c0-17.71.02-35.43-.06-53.14-.01-2.45.93-5.19-1.35-7.26-2.07-2.28-4.81-1.34-7.26-1.35-19.58-.08-39.17-.05-58.75-.06,0-19.59.02-39.17-.06-58.76-.01-2.45.93-5.19-1.35-7.26-2.07-2.28-4.81-1.34-7.26-1.35-19.58-.08-39.16-.05-58.75-.06,0-19.59.02-39.19-.06-58.78-.01-2.45.93-5.19-1.37-7.26-2.08-2.26-4.81-1.32-7.26-1.33-17.71-.08-35.41-.05-53.12-.06-.81-5.33,1.14-7.23,6.82-7.14,20.66.34,41.32.14,61.98.15,0,19.82.2,39.65-.09,59.46-.09,6.1,1.88,8.15,8.03,8.06,19.81-.29,39.64-.08,59.45-.06.02,19.82.23,39.65-.06,59.46-.09,6.15,1.96,8.12,8.06,8.03,19.81-.3,39.64-.1,59.45-.09,0,20.66-.19,41.33.15,61.98.09,5.68-1.8,7.63-7.14,6.82h0Z"/>
  </g>
  <g>
    <path class="cls-41" d="M576.61,164.47c11.95,3.26,23.58,5.03,35.36,5.86,1.62.11,2.96-.25,4.27-1.17,9.54-6.68,19.1-13.34,28.65-20,4.78-3.33,9.56-6.67,14.35-9.98,2.5-1.73,4.08-1.78,6.34.28,3.41,3.11,7.27,5.63,10.78,8.6,2.65,2.24,4.33,2.33,7.17.35,6.05-4.23,12.09-8.47,18.1-12.77,3.64-2.6,3.63-5.76.05-8.5-11.83-9.08-23.68-18.15-35.53-27.22-3.03-2.32-4.39-2.35-7.58-.16-10.61,7.27-21.22,14.54-31.83,21.81-6.15,4.22-12.32,8.41-18.45,12.66-1.11.77-2.22,1.3-3.59,1.18-14.94-1.32-29.86-2.65-44.48-6.28-3.55-.88-5.88-2.57-7.73-5.86-8.03-14.25-16.35-28.33-24.57-42.48-8.39-14.43-16.78-28.85-25.16-43.28-1.43-2.45-2.54-5.01-2.86-7.88-.56-4.92,2.13-8.52,7-9.23.82-.12,1.67-.12,2.51-.12,26.43,0,52.87,0,79.3-.01,6.42,0,12.19,1.86,16.97,6.18,3.48,3.14,6.82,6.61,10.42,9.41,11.63,9.07,22.28,19.25,33.65,28.61,1.76,1.45,3.46,2.98,5.17,4.49,4.43,3.9,10,3.94,14.48.07,16.31-14.08,32.64-28.14,48.92-42.25,5.07-4.39,10.89-6.51,17.57-6.51,26.28.02,52.56,0,78.84.02,1.14,0,2.3.02,3.41.24,4.66.89,7.11,4.56,6.43,9.44-.42,3-1.72,5.66-3.22,8.23-18.69,32.15-37.38,64.29-56.04,96.46-.71,1.22-1.54,1.88-2.92,2.2-11.53,2.67-23.26,3.9-35.01,4.94-5.08.45-10.17.77-15.26,1.12-1.56.11-2.92.61-4.21,1.53-5.84,4.13-11.74,8.19-17.61,12.28-8.25,5.75-16.5,11.52-24.76,17.27-2.82,1.97-4.28,1.93-6.96-.22-3.56-2.86-7.05-5.82-10.69-8.57-2.86-2.16-3.49-2.83-6.91-.33-6.03,4.39-12.17,8.64-18.24,12.96-3.4,2.42-3.52,5.7-.23,8.23,11.95,9.18,23.92,18.35,35.89,27.49,2.99,2.29,4.36,2.19,7.57-.02,16.88-11.59,33.77-23.15,50.67-34.71.55-.38,1.2-.77,1.84-.84,7.85-.93,15.67-2.02,23.82-3.83-2.91,5.02-5.61,9.66-8.31,14.31-8.44,14.53-16.89,29.05-25.32,43.57-6.84,11.77-13.61,23.59-20.51,35.32-5.12,8.7-13.12,12.61-22.93,13.14-8.91.48-17.34-.81-24.24-7.2-3.65-3.38-5.79-7.81-8.23-12-18.47-31.73-36.88-63.48-55.31-95.23-.22-.38-.41-.78-.85-1.62v.02Z"/>
    <path class="cls-31" d="M559.09,134.26c15,3.86,29.85,5.23,44.7,6.58,2.73.25,5.05-.27,7.31-1.83,16.24-11.18,32.53-22.29,48.77-33.47,1.77-1.22,3.23-1.23,4.95.1,10.18,7.86,20.41,15.65,30.61,23.49,2.18,1.68,2.13,2.77-.13,4.37-4.16,2.95-8.35,5.85-12.48,8.84-1.84,1.33-3.36,1.23-5.1-.27-2.94-2.53-6-4.94-9.08-7.29-4.02-3.07-8.09-3.1-12.22-.22-13.79,9.63-27.59,19.26-41.36,28.92-1.17.82-2.36,1.4-3.8,1.28-12.39-1.06-24.66-2.75-36.57-6.53-1.45-.46-2.45-1.2-3.23-2.59-3.96-7.02-8.05-13.96-12.36-21.38h-.01Z"/>
    <path class="cls-31" d="M760.47,142.79c-4.83,8.31-9.43,16.18-13.96,24.08-.59,1.03-1.5,1.2-2.44,1.42-6.22,1.47-12.47,2.92-18.85,3.33-6.29.41-11.63,2.57-16.78,6.22-14.03,9.94-28.31,19.52-42.49,29.24-3.47,2.38-3.75,2.42-7.17-.19-9.92-7.56-19.81-15.16-29.7-22.76-1.92-1.47-1.88-2.68.15-4.13,4.21-3.01,8.47-5.94,12.66-8.98,1.86-1.35,3.44-1.13,5.13.29,2.8,2.35,5.65,4.63,8.53,6.87,4.53,3.53,8.53,3.6,13.17.37,11.97-8.37,24.1-16.52,35.86-25.18,4.95-3.65,10.02-5.33,16.1-5.64,13.21-.68,26.35-2.26,39.79-4.95h0Z"/>
  </g>
  <g>
    <path class="cls-15" d="M76.49,41.66c-3.36,2.55-5.84,5.83-7.94,9.46-6.41,11.09-12.73,22.23-19.34,33.19-4.27,7.08-4.47,13.96-.81,21.32,20.97,42.12,43.22,83.58,65.51,125.01.87,1.62,1.47,4.05,3.61,4.14,2.52.1,2.99-2.59,3.88-4.33,18.5-36.36,37.37-72.53,56.55-108.53,1.88-3.53,3.77-7.07,5.81-10.51,8.46-14.27,22.34-19.62,38.17-14.79,9.27,2.83,11.65,8.5,7.13,17.03-31.35,58.71-62.74,117.4-94.06,176.12-3.8,7.13-9.36,11.16-17.59,11.11-8.07-.05-13.63-4.27-17.27-11.05-23.16-43.14-46.25-86.33-69.31-129.52-9.27-17.36-18.34-34.83-27.67-52.15-4.25-7.89-4.27-15.39.27-23.18C17.71,60.51,31.91,36,45.98,11.42,50.49,3.54,56.84-.08,65.97,0c27.09.26,54.19.18,81.28.24,1.55.83,3.2,1.44,4.62,2.53,6.77,5.16,7.7,9.14,3.2,16.32-3.9,6.23-7.32,12.77-11.98,18.51-.99,1.22-1.76,2.73-3.58,2.96-1.9-.04-3.8-.08-5.71-.11-6.35-.88-12.72-.3-19.09-.36-11.01-.11-22.03-.04-33.05-.02-1.87,0-3.91-.41-5.19,1.58h.02Z"/>
    <path class="cls-1" d="M139.52,40.58c6.29-7.88,11.17-16.7,16.51-25.2,1.59-2.53.83-5.11-.74-7.66-2.02-3.28-5.84-4.47-8.03-7.47,8.81-.07,17.63-.34,26.44-.14,5.78.13,10.49,3.08,13.77,7.71,2.68,3.77,4.72,7.99,6.98,12.04,2.16,3.88.1,7.11-1.85,10.26-8.07,13.08-16.18,26.14-24.3,39.19-14.56,23.38-29.12,46.76-43.72,70.12-3.18,5.09-4.3,5.11-8.63.79-8.52-8.49-14.74-17.97-14.1-30.72.31-6.13,2.47-11.53,5.65-16.62,10.27-16.44,20.56-32.86,30.83-49.31.57-.91,1.57-1.69,1.2-2.99h0Z"/>
    <path class="cls-4" d="M76.49,41.66c-.52-2.95,1.78-2,3.03-2.01,9.41-.08,18.82-.04,28.23-.05,7.18,0,14.36-.03,21.53.02,1.53,0,3.23-.54,4.53.84-17.13.06-34.26.12-51.39.17-2.05,0-4.09-.07-5.93,1.03Z"/>
  </g>
</svg>