<?xml version="1.0" encoding="UTF-8"?>
<svg id="Capa_1" data-name="Capa 1" xmlns="http://www.w3.org/2000/svg" viewBox="0 0 552.76 369.08">
  <defs>
    <style>
      .cls-1 {
        fill: #44a635;
      }

      .cls-1, .cls-2, .cls-3 {
        stroke-width: 0px;
      }

      .cls-2 {
        fill: #2559a1;
      }

      .cls-3 {
        fill: #fff;
      }
    </style>
  </defs>
  <path class="cls-2" d="M27.88,135.38v46.15h-14.32v-51.32s-24.67-7.36-7.46-23.77S101.59,26.46,101.59,26.46c0,0,51.03-45.36,86.24-17.31,35.21,28.05,129.8,106.83,129.8,106.83,0,0-4.18,17.31-59.38,25.96v88.33s-4.18,52.22-111.3,59.38h-58.78s-25.07-4.77-25.07-20.59-.9-124.23-.9-124.23c0,0-13.96-1.58-34.32-9.45Z"/>
  <path class="cls-3" d="M77.42,140.22v56.92c0,2.47,2,4.48,4.48,4.48h0c2.47,0,4.48-2,4.48-4.48v-50.72c0-1.01.5-1.94,1.36-2.47,6.65-4.16,36.93-21.85,73.24-22.9,0,0,38.49-2.98,84.74,17.31,0,0-17.76-29.9-83.35-32.5-.54-.02-1.08-.01-1.62.04-6.56.58-50.65,5.43-82.58,32.72-.47.4-.74.99-.74,1.6Z"/>
  <path class="cls-1" d="M28.22,222.04c5.49-3.06,9.21-8.92,9.21-15.65,0-9.89-8.02-17.9-17.9-17.9S1.62,196.51,1.62,206.39c0,7.34,4.42,13.64,10.75,16.41l-6.08,23.47c-2.18,8.42,3.96,16.72,12.65,17.09h0c8.8.37,15.65-7.54,14.02-16.2l-4.75-25.11Z"/>
  <path class="cls-1" d="M51.75,272.04s-2.09,38.19,33.72,39.99c35.81,1.79,163.82,2.69,189.18-71.62v-41.18s16.41.8,47.25-29.64c0,0,109.41-124.33,120.15-129.4,10.74-5.07,72.61-56.79,109.01-20.19,0,0,19.1,42.97-71.22,77.38,0,0-75.99,33.62-132.09,76.99,0,0-27.85,24.47-33.42,35.21,0,0,44.16,146.61-138.46,158.55-182.62,11.94-146.81-91.91-124.13-96.08Z"/>
</svg>