<?xml version="1.0" encoding="UTF-8"?>
<svg id="Capa_4" data-name="Capa 4" xmlns="http://www.w3.org/2000/svg" xmlns:xlink="http://www.w3.org/1999/xlink" viewBox="0 0 1185 1284">
  <defs>
    <style>
      .cls-1 {
        fill: #bfd9c9;
      }

      .cls-1, .cls-2, .cls-3, .cls-4, .cls-5, .cls-6, .cls-7, .cls-8, .cls-9, .cls-10, .cls-11, .cls-12, .cls-13, .cls-14, .cls-15, .cls-16, .cls-17, .cls-18, .cls-19, .cls-20, .cls-21, .cls-22, .cls-23, .cls-24, .cls-25, .cls-26, .cls-27, .cls-28, .cls-29, .cls-30, .cls-31, .cls-32, .cls-33, .cls-34, .cls-35, .cls-36, .cls-37, .cls-38, .cls-39, .cls-40, .cls-41, .cls-42, .cls-43, .cls-44, .cls-45, .cls-46, .cls-47, .cls-48, .cls-49, .cls-50, .cls-51, .cls-52, .cls-53, .cls-54, .cls-55, .cls-56, .cls-57, .cls-58, .cls-59, .cls-60, .cls-61, .cls-62, .cls-63, .cls-64, .cls-65, .cls-66, .cls-67, .cls-68, .cls-69, .cls-70, .cls-71, .cls-72, .cls-73, .cls-74 {
        stroke-width: 0px;
      }

      .cls-2 {
        fill: #eff6ef;
      }

      .cls-3 {
        fill: #feffff;
      }

      .cls-4 {
        fill: #fafcfb;
      }

      .cls-5 {
        fill: #f9fbfa;
      }

      .cls-6 {
        fill: #fbfcfb;
      }

      .cls-7 {
        fill: #b8d8c4;
      }

      .cls-8 {
        fill: #f2f8f3;
      }

      .cls-9 {
        fill: #f4f9f6;
      }

      .cls-10 {
        fill: #c4ddcc;
      }

      .cls-11 {
        fill: #f3f8f4;
      }

      .cls-12 {
        fill: #c1ddca;
      }

      .cls-13 {
        fill: #c7decf;
      }

      .cls-14 {
        fill: #ecf5ef;
      }

      .cls-15 {
        fill: #cbe0d2;
      }

      .cls-16 {
        fill: #fdfefd;
      }

      .cls-17 {
        fill: #f0f7f1;
      }

      .cls-18 {
        fill: #f7faf8;
      }

      .cls-19 {
        fill: #c5dccd;
      }

      .cls-20 {
        fill: #f9fcf9;
      }

      .cls-21 {
        fill: #c0ddca;
      }

      .cls-22 {
        fill: #f3f8f5;
      }

      .cls-23 {
        fill: none;
      }

      .cls-24 {
        fill: #c5dece;
      }

      .cls-25 {
        fill: #fafcfa;
      }

      .cls-26 {
        fill: #c2ddcc;
      }

      .cls-27 {
        fill: #c7ded1;
      }

      .cls-28 {
        fill: #bfdcca;
      }

      .cls-29 {
        fill: #bbd8c6;
      }

      .cls-30 {
        fill: #f4f9f3;
      }

      .cls-31 {
        fill: #c5dccc;
      }

      .cls-32 {
        fill: #c4ddcd;
      }

      .cls-33 {
        fill: #c1dccb;
      }

      .cls-34 {
        fill: #f5faf7;
      }

      .cls-35 {
        fill: #f3f8f6;
      }

      .cls-36 {
        fill: #c5decd;
      }

      .cls-37 {
        fill: #f3f9f4;
      }

      .cls-38 {
        fill: #c4decd;
      }

      .cls-39 {
        fill: #c4decc;
      }

      .cls-40 {
        fill: #fcfdfc;
      }

      .cls-41 {
        fill: #fcfdfd;
      }

      .cls-42 {
        fill: #c8ddd0;
      }

      .cls-43 {
        fill: #cbdfd3;
      }

      .cls-44 {
        fill: #f7fbf8;
      }

      .cls-45 {
        fill: #c3dbcc;
      }

      .cls-46 {
        fill: #f3f8f2;
      }

      .cls-75 {
        clip-path: url(#clippath);
      }

      .cls-47 {
        fill: #c6dfcf;
      }

      .cls-48 {
        fill: #f8fbf9;
      }

      .cls-49 {
        fill: #bedac9;
      }

      .cls-50 {
        fill: #f7faf7;
      }

      .cls-51 {
        fill: #bfddca;
      }

      .cls-52 {
        fill: #fbfdfb;
      }

      .cls-53 {
        fill: #f4f9f4;
      }

      .cls-54 {
        fill: #edf6f1;
      }

      .cls-55 {
        fill: #f8faf8;
      }

      .cls-56 {
        fill: #cbe0d4;
      }

      .cls-57 {
        fill: #c4dece;
      }

      .cls-58 {
        fill: #badac6;
      }

      .cls-59 {
        fill: #fff;
      }

      .cls-60 {
        fill: #c2decc;
      }

      .cls-61 {
        fill: #cce1d4;
      }

      .cls-62 {
        fill: #f4f9f5;
      }

      .cls-63 {
        fill: #eef6ef;
      }

      .cls-64 {
        fill: #f5f9f5;
      }

      .cls-65 {
        fill: #c6dfce;
      }

      .cls-66 {
        fill: #c6decf;
      }

      .cls-67 {
        fill: #c3dfcd;
      }

      .cls-68 {
        fill: #f2f8f4;
      }

      .cls-69 {
        fill: #c3decc;
      }

      .cls-70 {
        fill: #c1dbcb;
      }

      .cls-71 {
        fill: #019025;
      }

      .cls-72 {
        fill: #fefefe;
      }

      .cls-73 {
        fill: #caddd0;
      }

      .cls-74 {
        fill: #c7dfce;
      }
    </style>
    <clipPath id="clippath">
      <path class="cls-23" d="M52.5,1261c6-.6,170-169,475-182,0,0,215-19,393,112,0,0,127,76.8,212,34.4V0H52.5v1261Z"/>
    </clipPath>
  </defs>
  <g id="Capa_3" data-name="Capa 3">
    <g>
      <g class="cls-75">
        <g>
          <rect class="cls-59" width="1185" height="1284"/>
          <g>
            <path class="cls-61" d="M1000.2,1136.78c-10.68-2.27-14.07-10.43-18.48-17.25-8.3-12.83-12.08-28.14-20.72-40.82-.82-1.19-1.86-3.18-.02-3.55,7.82-1.54,4.78-6.01,2.99-10.26-.77-1.82-2.31-4.07-.03-5.38,2.17-1.22,3.64,1.21,4.71,2.74,3.62,5.21,6.95,10.61,10.5,15.87,1.84,2.73,2.2,7.9,7.82,4.65,1.86-1.08,2.6,1.49,3.19,3.09,4.8,12.98,12.52,24.62,16.07,38.27,2.97,11.46,11.63,16.78,25.6,16.57,12.35-.19,24.17,1.75,33.49,10.17,19.28,17.39,18.45,39.97,3.86,59.93-14.72,20.13-35.43,28.12-59.39,24.24-24.66-4-40.05-26.16-31.36-52.94,2.43-7.44,5.69-14.45,10.66-20.71,3.42-4.3,5.19-9.65,4.39-15.52-.6-4.4.03-8.21,6.71-9.11h-.02Z"/>
            <path class="cls-72" d="M1005.63,1151.76c15.03,15.83,27.96,31.4,34.37,51.47,1.66,5.21,3.55,10.43,4.41,15.8.43,2.67,3.09,6.48-.84,8.6-3.48,1.89-7.21,3.2-11.2.49-15.49-10.49-25.64-24.54-30.56-43.15-3.09-11.71,2.43-21.43,3.83-33.2Z"/>
            <path class="cls-72" d="M1009.75,1147.23c7.12,4.63,15,6.31,22.96,7.72,7.77,1.38,13.27,6.48,17.99,12.3,9.74,12.01,14.23,25.83,13.03,41.63-.56,7.5-6.3,9.79-10.93,13.28-1.83,1.38-3.86.89-4.44-1.9-5.48-26.23-18.38-48.22-36.64-67.16-1.25-1.29-2.43-3.15-1.96-5.87h0Z"/>
            <path class="cls-4" d="M999.31,1227.15c-9.7-2.55-18.36-13.65-19.49-24.43-1.33-12.74,2.22-24.24,8.73-34.73,4.92-7.92,10.08-15.47,7.94-27.87,4.24,5.12,5.96,8.84,5.07,12.76-3.28,14.45-6.25,28.56.31,43.17,6.15,13.72,14.77,25.1,26.65,34.52-15.58,3.16-23.76-.73-31.79-15.17-5.84-10.52-9.38-21.64-6.9-33.99.22-1.1,0-2.31-1.28-2.87-4.35,5.46-.77,21.66,10.74,48.58l.02.03Z"/>
            <path class="cls-40" d="M1012.87,1141.64c12.04,1.63,23.98,1.99,35.25,5.02,26.78,7.2,32.04,27.94,24.87,51.33-.55,1.78-1.2,4.63-3.43,4.49-3.09-.19-2.25-3.32-2.63-5.47-3.95-22.96-15.51-44.88-43.76-47.76-3.96-.4-9.17-1.1-10.28-7.6h-.02Z"/>
            <path class="cls-37" d="M972.53,1075.7c11.31,14.91,18.38,32.14,25.83,49.49-7.12-3.76-23.3-33.97-25.83-49.49Z"/>
          </g>
          <g>
            <path class="cls-43" d="M177.51,186.49c-4.87.58-7.18-2.18-9.77-5.35-8.91-10.93-14.64-23.61-20.52-36.2-2.55-5.47-4.57-11.15-8.15-16.13-1.49-2.07-4.44-5.77,2.13-5,3.67.42,2.93-2.51,2.49-4.31-.56-2.31-2.07-4.37-2.84-6.64-.6-1.82-2.98-4.06-.58-5.67,2.64-1.8,4.64.73,5.91,2.6,4.24,6.24,7.89,12.9,12.4,18.92,1.44,1.91,1.67,8.42,7.28,3.82,1.07-.87,2.73,1.02,3.22,2.46,3.84,11.17,10.84,20.83,14.53,32.1,7.02,21.44,11.55,24.55,33.76,24.83,6.71.07,13.19,1.33,19.43,3.69,28.19,10.64,34.65,39.67,19.59,64.3-15.55,25.45-44.11,36.5-72.99,28.57-20.99-5.77-35.6-28.3-28.19-50.06,2.96-8.73,7.04-16.62,11.73-24.32,3.8-6.24,8.13-11.99,4.97-20.1-1.71-4.35,3.04-4.93,5.57-7.51h.04Z"/>
            <path class="cls-72" d="M185.22,200.84c8.82,14.66,21.55,24.01,28.72,37.94,5.71,11.11,9.44,22.86,13.31,34.59,1.02,3.11,1.4,6.73-2.15,8.97-3.18,2-6.46,3.07-10.26,1.24-19.06-9.24-42.56-45.54-31.96-69.54,1.51-3.42,1.38-7.55,2.33-13.2Z"/>
            <path class="cls-72" d="M188.62,197.22c7.37,4.87,13.26,6.69,19.44,7.93,22.39,4.47,33.32,19.61,38.05,40.8,2.4,10.75,3.6,20.55-6.77,28.45-5.07,3.86-7.64,5.04-9.49-2.33-2.36-9.33-5.07-18.52-9.17-27.34-5.66-12.19-13.35-22.83-22.61-32.43-3.56-3.69-6.69-7.6-9.44-15.08h-.02Z"/>
            <path class="cls-4" d="M178.58,279.56c-4.33,2.84-6.11-.33-8.2-2.24-16.15-14.75-17.92-34.25-4.6-54.89,5.42-8.4,10.97-16.61,11.6-27.92,4.91,4.15,3.82,9.31,2.75,12.82-9.57,31.34,3.56,54.55,25.85,74.68.89.8,2,1.38,3.22,2.2-8.08,4.84-11.64,5.06-18.59.53-14.5-9.44-20.95-23.55-22.81-40.25-.49-4.38,1.09-8.95-2.06-15.22-4.97,20.5,2.47,35.81,12.82,50.29h.02Z"/>
            <path class="cls-40" d="M252.19,258.3c-3.67-23.48-10.75-43.76-33.81-53.77-3.55-1.55-7.4-3.11-11.17-3.24-7.48-.25-12.35-3.93-17.08-10.77,13.46,5.98,27.05,4.24,39.98,6.95,28.17,5.93,40.29,37.83,22.1,60.82h-.02Z"/>
            <path class="cls-62" d="M149.01,122.39c12.04,16.28,20.9,34.21,27.23,53.44-13.28-15.66-20.66-34.34-27.23-53.44Z"/>
          </g>
          <g>
            <path class="cls-67" d="M574.51,132.02c3.33-6.91.23-11.37-5.15-15.71-6.43-5.2-12.29-11.12-18.36-16.77-1.59-1.48-3.24-3.19-5.53-2.8-9.96,1.71-15.92-5.04-22.23-10.62-9.02-7.96-17.77-16.25-26.39-24.66-3.17-3.09-9.52-6.35-4.8-11.6,4.88-5.44,15.84,9.02,20.25,11.65-.13-3.17-10.21-11.76-11.52-13.4-3.11-3.95-3.4-7.28,1.97-9.34.9-.34,17.35,16.24,18.14,15.77.47-.27-14.61-17.3-14.37-18.09,3.03-9.68,6.99-6.35,11.78-1.97,11.82,10.84,23.68,21.67,35.49,32.52,1.76,1.61,4.33,3.16,4.25,5.62-.52,15.11,11.87,21.36,20.65,29.77,18.72,17.95,37.94,35.36,57.06,52.89,4.09,3.75,2.9,6.36-1.16,8.63-7.52,4.2-13.4.5-18.73-4.43-10.23-9.44-20.51-18.83-30.33-28.67-3.83-3.83-5.73-3.35-7.57,1.26-1.16.87-2.3.93-3.42-.08l-.02.03Z"/>
            <path class="cls-57" d="M583.49,102.17c-.13-8.57-.69-16.99,7.49-23.28,19.65-15.13,22.31-30.75,17.04-54.24-3.35-14.92-15-14.45-22.81-6.02-17.01,18.32-20.33,36.15-8.7,58.31,1.37,2.61,1.48,5.15,1.13,7.75-.37,2.77-.5,7.01-4.2,6.44-3.51-.55-.53-4-.48-6.04.08-3.67-1.08-6.75-2.63-9.92-11.03-22.55-3.4-50.84,17.38-64.71,7.68-5.14,17.83-1.97,22.17,6.91,10.76,22.09,5.94,46.99-13.16,62.41-5.99,4.83-9.41,9.76-9.5,17.27-.03,2.14-1.1,4-3.71,5.14l-.02-.02Z"/>
            <path class="cls-69" d="M574.51,132.02c1.13.03,2.27.05,3.42.08-2.03,15.92-6.73,31.24-10.36,46.78-.85,3.69-4.28,6.07-7.62,7.89-2.92,1.59-6.14,2.53-9.15.61-3.19-2.03-.85-5.04-.34-7.33,4.25-18.98,8.76-37.89,13.31-56.78.4-1.71.93-3.67,3.67-4.77,2.11,5.99-.77,11.37-1.9,16.69-2.87,13.56-6.36,26.98-9.55,40.47-.58,2.45-2.35,6.07.89,6.91,3.24.84,5.61-1.93,6.46-5.61,3.04-13.24,6.27-26.45,9.47-39.66.43-1.8,1.14-3.53,1.72-5.3l-.02.02Z"/>
            <path class="cls-39" d="M594.99,20.2c-7.96,5.19-11.07,12.02-15.43,18.14-3.17-8.07,4.93-18.72,15.43-18.14Z"/>
            <path class="cls-52" d="M520,76.27c4,.23,4.98,2.75,6.72,4.2,1.87,1.55,4.57,2.63,5.61.58,3.03-6.11,11.6-7.62,12.37-16.08,3.62,3.27,8.52,5.38,8.71,10.29.56,13.95,11.47,20.46,19.96,28.5,18.24,17.27,36.94,34.04,55.37,51.08,1.42,1.3,4.22,2.69,2.64,5.09-1.24,1.9-3.95.93-6.04.85-2.06-.08-3.32-1.59-4.67-2.87-17.59-16.42-35.15-32.86-52.76-49.26-4.88-4.54-9.94-8.91-14.84-13.43-2.32-2.14-5.4-3.21-8.07-3.08-11.97.6-17.25-8.39-25-15.9v.02Z"/>
          </g>
          <g>
            <path class="cls-28" d="M1069.63,186.42c.58,3.12,2.61,4.31,4.22,5.8,1.54,1.46,4.61,1.77,4.09,4.71-.61,3.41-3.9,3.66-6.42,4.59-1.01.38-2.2.45-3.28.31-10.97-1.4-19.96.52-25.65,12.3-3.13,6.48-8.12,7.16-12.06-.62-1.64-3.22-4.76-5.58-6.73-8.66-1.94-3.01-3.9-3.85-7.49-3.38-5.95.8-12.07,1.25-18-.81-2.05-.71-4.68-.8-5.24-3.48-.63-3.01,2.27-3.46,3.87-4.85,1.65-1.44,3.61-2.69,4.25-5.09-10.87-6.29-14.84-5.01-24.15,7.48-1.85,2.48-3.37,8.42-6.48,5.91-3.56-2.88,1.82-6.27,3.39-9.2,1.7-3.17,4.75-5.54,7.16-8.32.86-.99,2.81-2.25,1.74-3.43-7.81-8.45,1.75-7.28,4.75-9.25,4.61-3.05,9.11-6.31,14.31-8.42,6.05-2.48,12.12-4.11,18.31-1.47,6.17,2.62,7.26-.38,6.88-5.8-.43-6.2,1.27-11.97,3.28-17.65,1.34-3.78,3.51-6.91,7.82-6.03,4.3.87,4.07,4.76,4,8.3-.08,5.47-.23,10.95-.13,16.42.07,4.09,1.26,6.38,6.14,5.01,15.81-4.44,27.82,6.01,40.95,12.04,4.52,2.08-.79,7.59,3.47,10.41,3.64,2.39,6.09,6.5,8.7,10.26,12.92,18.62,16.01,57-1.44,77.72-12.47,14.81-28.19,22.49-47.85,24.2,2.23-5.8,6.38-4.9,9.49-5.86,19.55-5.89,36.08-15.63,43.25-37.2,6.63-19.89,1.94-49.65-14.67-65.33-7.15-6.76-13.56-2.32-20.48-.64v.03Z"/>
            <path class="cls-51" d="M1004.73,217.3c-6.88-2.63-13.88-3.21-19.42,1.54-7.18,6.17-11.94,7.61-14.77-3.6-.36-1.44-2-2.53-3.11-3.85-2.25,2.39-.4,4,.22,5.68,3.64,10.03,2.99,11.33-7.13,14-6.05,1.59-8.65,4.04-11.96,11.26,2.38,1.56,3.24-1.46,4.95-1.77.98-.17,2.38-.28,2.98.29,1.41,1.35.25,2.79-.79,3.59-16.92,12.72-18.77,29.73-12.98,49.05.43,1.42.74,3.46-1.95,4.92-6.68-11.45-7.24-23.42-3.57-35.86,1.09-3.71,4.27-7.26-1.06-10.26-1.34-.74-1.34-2.62-.2-3.76,8.01-8.09,11.48-21.43,25.39-22.73,5.36-.5,2.3-5.04,1.77-8.14-.6-3.4-2.84-5.51-4.91-7.8-2.37-2.58-2.22-5.08.12-7.55,2.37-2.51,4.85-2.48,7.28-.17,3.29,3.1,6.22,6.5,8.52,10.5,2.17,3.79,4.96,5.25,8.72,2.15,9.31-7.67,19.67-2.3,29.56-2.58,1.09-.03,2.73.62,2.4,1.75-1.89,6.57,3.19,6.7,6.7,8.32,1.67.78,2.94,2.04,1.98,3.98-.81,1.61-2.33.97-3.59.28-6.22-3.48-12.93-1.75-19.47-2.15-1.97-.12-5.21,1.25-5.39-2.01-.15-2.74,2.86-2.84,5.08-3.14,1.47-.19,3.29.64,4.66-1.91v-.03Z"/>
            <path class="cls-21" d="M1047.02,271.71c.98-13.41-4.27-23.54-11.68-32.92-1.46-1.84-6.1-3.53-2.73-6.53,2.8-2.48,4.66,1.82,6.35,3.69,15.63,17.15,20.3,46.86,1.08,66.92-19.19,20.03-43.2,28.85-70.69,23.67-7.16-1.35-13.13-5.72-18.76-10.39-1.62-1.35-3.97-3.29-2.03-5.68,1.84-2.25,3.62.35,4.71,1.56,20.38,22.66,68.79,7.95,86.42-15.37,5.49-7.26,8.77-15.94,7.33-24.95h0Z"/>
            <path class="cls-60" d="M988.81,314.26c2.83-.07,8.04.47,10.32-5.86.53-1.46,1.32-2.65,2.99-2.13,2.12.64,2.1,2.67,1.64,4.24-1.14,3.79-3.71,6.18-7.38,7.4-15.66,5.21-37.5-3.29-45.54-17.81-10.44-18.83-7.77-39.03,7.03-52.39,4.5-4.07,9.61-6.67,15.81-6.05,1.72.17,3.52.4,3.57,2.63.03,1.68-1.41,2.53-2.86,2.37-10.09-1.06-15.71,6.05-20.86,13.15-4.53,6.27-4.63,14.1-3.89,21.62,1.97,19.84,16.67,32.71,39.17,32.81h-.02Z"/>
            <path class="cls-12" d="M1009.72,303.52c14.97,1.11,29.96-16.32,28.88-33.59-1.14-18.55-17.43-36.36-33.63-36.78-5.95-.16-11.45.85-15.73,5.8-1.11,1.28-2.66,3.92-4.57,1.39-1.44-1.92.46-3.66,1.72-5.18,4.96-6.08,11.98-7.55,18.72-6.96,19.91,1.73,30.57,13.93,36.54,34.3,4.7,16.03-4.22,35.9-18.34,44.45-6.67,4.02-10.35,3.1-13.6-3.41v-.02Z"/>
            <path class="cls-26" d="M1101.54,231c-1.85,21.03-10.64,36.28-28.17,45.42-1.84.95-4.48,3.07-5.72.26-1.24-2.79,2.02-3.46,3.85-4.5,15.4-8.78,24.18-22.07,25.14-40.66.12-2.23-.45-4.94,2.28-5.87,1.64-.55,2.7,2.08,2.61,5.35h0Z"/>
            <path class="cls-56" d="M959.8,276.51c-1.72-.64-5.08,1.07-4.61-2.67.33-2.65,3.14-2.62,5.31-2.56s5,.21,4.66,3.15c-.33,3.08-3.46,1.51-5.36,2.1v-.02Z"/>
            <path class="cls-24" d="M972.16,294.34c-1.64,2.77-3.54,5.47-7.03,6.1-1.14.21-2.38-.87-1.9-1.99,1.34-3.15,3.46-5.73,6.93-6.36,1.14-.21,1.95.68,2,2.25h0Z"/>
            <path class="cls-73" d="M1015.58,253.64c-1.49.09-2.94-.19-2.7-1.46.68-3.57,3.24-5.58,6.32-6.77,1.01-.38,2.55.14,2.33,1.44-.6,3.66-3.42,5.35-5.95,6.81v-.02Z"/>
            <path class="cls-1" d="M1019.22,271.26c4.95-2.1,7.79-4.59,11.45-2.17,1.08.71,1.34,2.44.55,2.86-3.21,1.68-6.58,1.56-11.99-.69Z"/>
            <path class="cls-60" d="M986.91,312.62c-1.32-.17-2.37-.9-2.08-2.17.48-2.17.86-4.73,3.42-5.32.51-.12,1.98,1.47,1.94,2.22-.13,2.29-.88,4.49-3.28,5.28v-.02Z"/>
            <path class="cls-12" d="M1021.25,296.99c-1.67-.38-3.23-1.02-3.44-3.07-.17-1.58,1.12-1.91,2.18-1.82,1.72.16,3.21,1.02,3.44,3.01.18,1.58-1.09,1.7-2.18,1.87Z"/>
            <path class="cls-3" d="M1001.72,195.83c1.9-4.99,9.15-6.83,8.09-11.56-1.34-5.98-8.32-1.65-12.27-4-2.51-1.51-7.01-.83-7.41-4.33-.43-3.71,3.99-4.09,6.43-5.58,8.24-5.02,16.56-8.82,26.4-3.9,5.61,2.81,7.46-.33,7.84-6.48.48-7.97.46-16.39,6.34-24.83,0,8.39-.26,14.99.07,21.57.48,9.65,3.51,12.04,11.83,8.78,13.7-5.37,22.64,4.78,34.57,10.41-5.95,3.92-11.28,5.09-16.92,5.27-2.22.07-4.8-.05-5.81,2.34-1.14,2.7,1.39,4.12,2.99,5.51,2.1,1.82,4.48,3.26,7.16,5.16-7.15,5.53-12.77,3.85-18.18,2.23-4.14-1.25-6.68-1.18-7.59,4.23-.81,4.82-2.71,10.97-7.05,11.83-4.45.88-7.99-5.25-9.48-9.01-3.61-9.18-9.53-8.54-16.42-6.39-3.57,1.11-6.96,1.8-10.57-1.25l-.02-.02Z"/>
          </g>
          <g>
            <path class="cls-58" d="M225.43,625.44c1.91-2.82,2.72-5.59,3.27-8.54.8-4.27,3.24-6.19,7.17-4.94,3.67,1.16,6.51,3.16,4.51,8.12-1.44,3.55-2.83,7.28-5.03,10.31-3.88,5.33-1.83,7.6,2.83,8.32,3.52.54,6,1.88,7.33,5.88-2.43,1.42-5.48,1.37-7.1,4.91-1.16,2.51-4.12,4.12-7.05,2.26-7.72-4.88-6.9,2.05-6.53,6.2,1,11.46-.35,14.69-10.52,19.66-2.3,1.13-3.35,2.91-4.79,4.73-2.2,2.82-5.15,6.13-8.2,5.77-7.71-.88-14.36,6.21-22.06,4.24-2.51-.63-4.69,1.15-6.57,3.2-18.51,20.17-51.51,8.74-55.66-17.91-.09-.52-.56-.92-.85-1.37-4.26,2.18-8.46,4.47-12.75,6.48-2.01.93-4.5,2.35-6.27,1.86-10.77-3.02-23.06-2.59-31.46-11.32-7.8-8.11-9.85-19.46-9-31.08.87-11.65,2.42-23.56,12.01-32.29,1.98-1.79,2.25-3.36.93-5.99-7.59-15.22-7.65-31.82-4.02-49.05,1.69-8.01,7.2-13.47,11.75-19.45,2.24-2.94,5.01-1.43,6.55,1.52,2.67,5.12,5.28,10.3,7.9,15.44,4.76-3.59,7.27-9.38,12.17-13.16,7.72-5.96,8.52-6.18,12.08,2.46,2.77,6.74,3.15,13.88,3.01,21.19-.05,2.83-.97,5.78,1.28,8.81,6-11.65,14.31-20.02,25.44-25.17,5.86-2.7,7.99-.8,8.42,5.42.33,4.59-.72,8.81-2.79,12.78-3.98,7.67-4.31,15.76-4.78,23.99-.3,5.32,1.44,4.8,4.47,2.35,6.33-5.11,11.42-11.6,16.94-17.63,3.41-3.73,7.36-9.09,12.45-7.84,5.2,1.28,4.01,8.01,4.91,12.57,1.76,8.85.45,17.36-5.41,24.98-1.43,1.86-3.16,3.97-2.12,6.35,1.41,3.25,3.79-.13,5.64.11,5.32.68,10.55,1.07,15.75-2.01.94-.56,2.92-.08,3.82.69,6.99,5.99,16.24,8.77,22.27,17.13h.05Z"/>
            <path class="cls-59" d="M94.2,623.04c4.27,3.31,8.75,4.45,13.78,1.44.36-2.86-1.06-2.82-2.43-2.76-1.63.07-2.67-.79-2.57-2.45.12-2.09,1.82-1.74,3.12-1.99,23.98-4.52,29.34,13.29,23.05,30.24-5.04,13.63-12.18,25.64-25.97,31.36-5.52,2.28-10.61,3.52-15.11-1.15-1.81-1.89-4.1-2.53-6.69-2.02-9.42,1.83-13.92-4.73-17.13-11.93-7.15-15.98-4.55-32.28,4.28-47.81,5.91-10.41,23.47-10.29,29.08-.67,2.75,4.71-3.1,4.59-3.38,7.73h-.02Z"/>
            <path class="cls-59" d="M178.47,678.88c-6.11,15.37-16.34,22.97-30.18,22.8-12.98-.15-23.56-9.29-26.86-23.25-.96-4.01-.94-7.54,1.95-11.5,3.96-5.39,7.78-11.19,9.48-17.89,1.75-6.81,6.43-9.99,11.94-11.14,12.18-2.54,22.77,1.16,30.38,10.69,6.94,8.7,8.58,19.31,3.28,30.26v.02Z"/>
            <path class="cls-6" d="M103.97,603.62c-3.93,9.54-8.56,5.55-13.41,1.68-2.42-1.92-5.94-2.45-8.54-1.48-7.07,2.59-8.93-1.78-11-7.16-5.98-15.6-5.84-31.32,1.55-47.36,1.19-2.59,1.83-5.62,5.8-4.92,3.2.59,6.05.43,7.37,4.67,3.01,9.55,3.67,19.7,5.25,29.6,1.62,10.1,5.66,17.72,14.9,21.09,2.7.98,4.36,2.96,5.69,5.5,1.15,2.18,3.31,4.27,1.09,6.92-1.59,1.91-4.09,1.61-6.18,1.05-3.43-.93-2.59-3.55-1.58-6.22.4-1.03.87-2.24-1-3.37h.05Z"/>
            <path class="cls-25" d="M119.32,612.66c-3.16-9.21-8.37-14.76-15.72-18.88-12.95-7.24-12.21-34.25-3.73-45.56,1.92-2.55,4.24-4.84,7.82-3.58,3.13,1.12,6.07,2.25,6.72,6.27.26,1.7.63,3.43.57,5.15-.35,13.63,2.31,26.27,7.49,38.31,2.42,5.62.95,11.66-3.15,18.26v.02Z"/>
            <path class="cls-4" d="M162.44,609.69c7.27-7.59,12.46-14.22,14.78-22.72.62-2.25,1.77-5.22-1.07-5.8-2.38-.47-2.65,2.64-2.9,4.5-1.31,9.62-8.01,15.5-14,21.69-2.61,2.69-6.16,4.17-9.85,2.22-2.18-1.15-4.51-1.58-7.04-.38-2,.96-4.54,2.41-5.79-.21-1.34-2.81.78-5.53,2.98-6.52,12.7-5.72,21.99-16.01,31.36-26.48,4.1-4.57,8.53-1.62,10.44,2.68,5.15,11.61-4.29,28.3-18.9,31.01v.02Z"/>
            <path class="cls-25" d="M124.14,613.09c2.46-10.35,5.12-19.14,6.5-28.06,1.2-7.75,5.51-13.58,9.01-19.98,1.01-1.86,4.42-3.94,1.97-5.66-2.52-1.77-3.78,1.95-5.3,4.02-4.08,5.56-6.39,11.95-8.98,18.23-.62,1.52-.97,3.88-3.15,3.32-1.67-.43-2.11-2.42-2.31-4.11-.85-6.86,13.1-26.42,19.57-27.55,5.58-.99,9.51,4.16,7.11,9.77-3.17,7.43-5.74,14.83-5.42,22.96.22,5.67-.6,10.64-6.72,13.68-4.88,2.44-4.85,10.71-12.29,13.36v.02Z"/>
            <path class="cls-4" d="M197.35,631.85c2.78-5.7,6.74-6.21,11.6-4.08,4.6,2.02,6.98,5.41,4.6,10.73-2.47,5.52-6.86,7.83-12.14,5.5-4.98-2.2-5.99-6.57-4.06-12.15Z"/>
            <path class="cls-5" d="M210.97,658.48c-2.55,6.2-6.15,8.39-11.43,6.14-4.75-2.04-6-5.65-4.19-11.14,2.65-8.02,8.32-4.86,12.38-4.19,4.65.75,4.52,5.39,3.23,9.22v-.02Z"/>
            <path class="cls-6" d="M191.75,650.3c-1.9,2.54-1.73,9.28-6.71,6.03-4.16-2.73-6.69-7.98-4.11-14.04,1.84-4.31,5.61-6.59,9.38-4.35,4.6,2.71,5.18,7.32,1.43,12.37v-.02Z"/>
            <path class="cls-48" d="M207.87,678.07c-2.8,5.19-6.79,7.17-11.75,6.04-3.2-.72-4.92-3.3-4.56-6.85.25-2.59,11.18-8.52,13.63-7.68,4.24,1.45,2.71,5.31,2.67,8.49Z"/>
            <path class="cls-55" d="M218.54,656.78c3.81,2.95,3.77,6.55,2.63,9.93-1.26,3.7-3.75,7.52-7.79,6.38-2.56-.71-3.67-4.74-1.59-7.26,2.37-2.85,3-7.65,6.74-9.06h.01Z"/>
            <path class="cls-11" d="M193.35,624.04c2.81.83,2.49,2.74,1.63,4.82-2.31,5.68-7.19,4.74-11.17,5.16-3.17.35-1.86-2.58-1.15-4.33,2.2-5.43,6.55-5.63,10.69-5.65Z"/>
            <path class="cls-44" d="M206.05,618.46c-2.17,3.03-4.48,5.05-8.24,3.29-2.9-1.35-4.19-3.01-2.51-6.54,1.73-3.61,4.17-4.46,7.38-3.18,2.69,1.09,4.56,2.72,3.36,6.42h.01Z"/>
            <path class="cls-22" d="M166.61,622.38c-1.69-.5-2.72-2.24-1.39-5.41,1.49-3.55,3.77-4.84,7.14-3.8,2.83.88,3.71,2.6,2.4,5.74-1.48,3.56-3.7,4.96-8.15,3.46Z"/>
            <path class="cls-30" d="M188.17,671.52c-3.25-1.68-4.33-4.53-3.32-7.89.87-2.88,4.02-3.04,5.43-1.91,2.27,1.81,5.79,4.06,4.8,7.5-.77,2.67-4.34,3.16-6.91,2.29h0Z"/>
            <path class="cls-53" d="M188.69,618.99c-2.52,2.44-5.27,5.75-8.75,5.72-2.45-.01-2.13-3.75-1.31-5.78,1.38-3.4,3.87-6.12,7.61-5.57,2.54.38,3.13,2.65,2.44,5.61v.02Z"/>
            <path class="cls-18" d="M215.28,643.22c1.39-1.32,1.12-6.43,5.02-4.37,3.15,1.66,3.4,5.28,1.96,9.01-1.26,3.22-3.26,3.7-5.84,2.44-2.9-1.43-4.1-3.39-1.13-7.06v-.02Z"/>
            <path class="cls-68" d="M142.49,621.94c-2.35-1.03-4.24-2.7-2.78-5.82,1.59-3.36,4.49-4.33,7.63-3.39,2.76.83,2.58,3.03,1.62,5.52-1.25,3.26-3.24,4.73-6.47,3.68Z"/>
            <path class="cls-9" d="M156.87,633.35c-2.61-.85-2.72-2.8-1.57-4.79,2-3.42,4.91-4.68,8.33-3.35,2.31.9,1.88,2.88,1.16,4.97-1.68,5.05-5.22,2.83-7.94,3.15v.02Z"/>
            <path class="cls-34" d="M169.09,636.56c-2.68-1.37-1.83-3.38-1.05-5.29,1.35-3.34,3.72-5.3,7-4.7,1.72.31,2.55,2.55,1.43,4.02-2.01,2.63-4.15,5.47-7.37,5.95v.02Z"/>
            <path class="cls-46" d="M160.81,618.81c-1.71,2.67-4.27,4.36-7.4,3.59-2.02-.49-1.62-2.62-.8-4.25,1.62-3.23,4.2-4.82,7.4-3.92,2.01.57,1.63,2.49.8,4.58h0Z"/>
            <path class="cls-64" d="M184.94,677.33c1.21,3.22,6.01,5.06,2.85,9.39-1.26,1.74-4.41,3.02-5.85.96-2.61-3.71,1.31-6.82,3-10.34Z"/>
            <path class="cls-2" d="M210.8,621.86c3.42-2.08,5.53-.68,7.43.59,2.07,1.4,2.89,3.85,2.48,6.6-.1.71-.8,1.85-1.33,1.96-2.98.62-2.64-2.8-4.06-4.13-1.52-1.43-2.82-3.12-4.51-5.03h0Z"/>
            <path class="cls-35" d="M150.41,630.69c-1.62,2.71-3.87,3.7-6.41,3.34-2.07-.3-2.37-2-1.56-3.94,1.16-2.82,3.11-4.32,5.9-3.45,1.79.55,2.14,2.23,2.08,4.05Z"/>
            <path class="cls-15" d="M168.81,648.53c-5.65,2.65-9.77,1.19-12.56-6.19,5.29,1.19,8.28,5.13,12.56,6.19Z"/>
            <path class="cls-33" d="M77.39,547.96c-6.15,19.09-3.45,36.3,6.02,52.18-13.96-7.72-16.68-38.93-6.02-52.18h0Z"/>
            <path class="cls-49" d="M106.04,548.79c-3.19,15.52-2.82,30.3,6.22,44.9-12.44-6.32-15.33-31.84-6.22-44.9Z"/>
          </g>
          <g>
            <path class="cls-70" d="M1011.89,594.35c11.66-10,23.66-11.19,36.28-4.38,4.15,2.25,6.19,5.91,8.26,9.63,1.87,3.35,3.66,4.23,8.02,2.2,11.51-5.39,19.78-3.11,26.27,6.42,3.83,5.63,9.15,9.74,14.47,13.92,12.1,9.45,14.05,23.49,5.07,37.08-1.74,2.63-2.52,5.21-1.49,7.83,2.6,6.69-1.14,14.77,4.94,21.11,3.07,3.2-1.35,8.8-4.45,12.65-2.53,3.15-5.44,6.05-6.91,9.81-3.28,8.48-9.63,13.35-18.53,15.29-3.77.81-6.68,2.76-9.74,5.29-9.81,8.14-20.63,14.22-33.73,14.47-3.71.07-7.1-.14-10.4-1.79.88-1.17,1.26-1.99,1.52-1.98,15.45.85,29.49-2.58,40.89-14.59.77-.82,1.91-1.61,2.95-1.82,15.89-3.17,23.09-15.72,31.35-27.18,2.11-2.93,3.75-6.05,2.53-9.29-.97-2.57-2.09-6.19-6.37-1.8-4.24,4.36-10.26,6.49-14.68,10.9-4.24,4.25-7.71,7.47.78,11.22-8.25-.91-12.69,2.82-16.89,8.33-2.52,3.3-7.38,4.27-11.39,6.03-2.73,1.19-10.24-3.2-8.31,5.64.29,1.26-3.73.94-5.19.1-5.23-2.92-9.26-.57-12.9,3.25-5.9,6.24-12.54,11-21.15,12.82-10.36,2.19-17.26,10.43-26.01,15.49-2.54.03-5.12.38-7.58-.36-5.29-1.6-6.48-5.62-2.66-10.06,3.76-4.36,8.52-7.8,12.56-11.9,8.02-6.75,16.13-13.41,24.06-20.29,4.59-3.99,7.36-7.94,6.01-13.8-.62-2.64-.65-5.89,2.56-7.34,3.28-1.5,4.24,1.49,5.5,3.47,1.88,2.95,3.74,1.21,5.44-.5,6.57-6.59,12.72-13.55,19.02-20.38,2.41-2.61,2.52-5.57,1.91-8.62-.47-2.4-.99-4.8-.62-7.31.34-2.25.9-4.65,3.72-5.12,2.52-.42,3.11,1.73,3.83,3.47.5,1.24.84,2.57,2.26,3.26,2.96-.37,4.06-2.98,5.85-4.78,2.26-2.31,4.57-5.05,8.04-2.94,2.99,1.81,2.98,4.92,1.95,8.06-1.85,5.69-4.66,10.94-8.66,15.65-4.31,5.07-8.45,10.25-12.38,15.24-.19.97.11,1.37.83,1.38,3.45.11,8.87-1.93,8.87,3.01,0,4.83-5.71,5.57-9.41,5.49-8.55-.19-14.42,3.59-20.32,9.63-7.06,7.26-13.83,14.92-22.11,21.04-2.31,1.71-5.04,4.29-7.53,1.75-2.51-2.56.32-5.19,2.26-7.15,11.04-11.04,23.03-21.13,33.81-32.44,6.38-6.69,12.37-13.68,16.8-18.36-20.89,24.28-46.69,47.69-73.26,70.57,13.43-10.2,31.28-11.7,43.76-24.01,6.66-6.57,15.78-8.69,24.76-9.67,7.28-.8,12.52-4.32,16.27-10.31,5.45-8.7,12.66-15.54,21.5-21.19,9.12-5.82,10.71-12.43,6.39-21.29-2.7-5.54-4.75-11.4-7.01-17.16-3.52-9.04-10.95-12.12-20.62-11.67-7.47.35-17.94,7.33-19.43,15.16-3.21,16.86-13.33,27.92-27.14,38.78-10.67,8.37-16.19,22.15-27.79,30.98-4.95,3.77-5.41,11.71-9.61,16.99-3.05,4.23-7.47,7.23-11,11.06-1.6,1.75-3.95,2.55-6.34,1.85-2.99-.88-1.94-3.34-1.89-5.46.19-9.47,3.19-18.63,6.29-27.61,10.93-31.78,25.68-62.03,45.37-90.23-19.34,27.24-35.09,56.03-44.67,87.36-3.03,9.88-6.61,19.74-7.11,30.04-.09,1.99-.66,4.14-3.25,4.28-2.49.14-3.22-1.87-3.35-3.82-.39-6.04,1.26-12.04,1.82-18.09,3.94-15.78,9.39-31.15,16.55-46.06,2.64-5.51,5.14-10.8.85-16.22-1.31-1.65-1.17-4.13-.9-6.36.19-1.65.48-3.4,2.36-4.22,2.05-.89,3.2.41,4.07,1.78,3.63,5.81,5.56,1.59,7.43-1.75,1.68-2.99,2.61-6.36,4.76-9.08,3.95-4.96,5.61-9.62,1.66-14.94-1.72-2.32-2.44-6.05.63-8.29,3.27-2.38,5.02.88,6.72,2.78,2.68,3,4.78,1.42,7-.99,2.56-2.77,4.48-6.06,7.41-8.5,2.82-2.35,6.06-4.14,9.36-1.94,3.23,2.17,1.56,5.4.26,8.21-3.37,7.27-8.65,13.52-12.63,20.47-.83,1.46-1.9,2.93-1.16,5.13,4.13.84,7.22-2.89,11.01-3.64,2.75-.55,6.26-2.22,7.51,1.08,1.18,3.11-2.16,4.84-4.58,6.41-2.97,1.93-6.32,3.39-9.67,3.91-14.06,2.17-18.3,12.49-22.59,23.87,4.44.38,7.43-2.43,10.86-3.34,1.75-.47,3.58-.71,4.52.98.93,1.68-.14,3.25-1.47,4.43-3.98,3.54-8.52,6.17-13.58,7.74-3.86,1.19-6.81,3.22-8.42,6.92-5.72,13.24-10.86,26.61-13.51,40.75,4.25-3.53,6.25-8.31,8.15-13,2.53-6.28,6.2-11.49,12.6-14.78,5.22-2.69,8.52-7.02,10.49-12.22,2.87-7.57,8.08-13.19,15.4-16.93,9.6-4.91,15.26-12.3,17.18-22.35,1.74-9.06,5.94-16.82,13.56-23.14,5.48-4.52,6.31-10.05,2.8-15.63-2.87-4.55-5.23-9.36-7.05-14.45-4.76-13.32-28.69-19.26-37.44-2.51-2.32,4.42-6.96,6.79-11.77,8.54-6.76,2.43-11.3,6.67-12.94,13.8-1.56,6.76-6.29,12.08-11.08,17.18-5.85,6.22-7.9,12.87-5.87,20.74,1.93,7.44,1.31,14.97-1.88,22.69-3.59,8.73-2.05,18.04-4.14,27.04-1.21,5.16-1.94,10.38-3.41,15.51-4.89,20.08-2.41,25.27,16.28,33.74,1.29.59,2.46,1.17,2.53,2.76-.4,2.99-2.39,2.61-4.42,2.22-15.73-2.97-25.14-15.91-22.18-31.65,2.79-14.94,3.89-30.55,8.52-44.68,5-15.24-1.13-29.18,3.4-43.64.69-2.22-1.11-5-1.78-7.63,8.08,1.26,18.84-7.6,17.3-16.51-2.04-11.75,7.46-12.01,13.43-15.24,6.06-3.27,13.24-4.52,15.09-12.42l-.06.11h-.04Z"/>
            <path class="cls-8" d="M966.5,728.2c.39,6.63-2.94,13.44-.26,20.28,8.08-45.81,27.2-87.38,58.83-124.25-2.26,3.55-4.57,7.08-6.78,10.68-2.24,3.65-4.41,7.34-6.54,11.07-16.79,29.32-31.55,59.34-39.67,91.61-1.05,4.21-3.6,10.02.11,11.96,4.13,2.15,6.54-4.47,10.1-6.71,1.92-1.2,3.35-3.15,5-4.75,1.72-.32,3.11-.14,3.3,1.87-2.3,4.41-7.26,6.17-10.5,9.78-5.75,6.41-5.64,7.86,2.36,9.92,1.57.41,3.11.9,4.67,1.36l-4.51,2.78c-2.56-.92-5.25-1.62-7.7-2.76-15-6.93-18.75-16.88-12.9-33.84,1.73-.4,3.09.36,4.47,1.03l.03-.02Z"/>
            <path class="cls-45" d="M1011.94,594.22c-2.95-.7-5.85-1.59-8.87-2.04-9.66-1.42-19.13,3.64-22.83,13.1-3.09,7.89-7.55,14.28-14.43,19.76-7.27,5.79-11.02,13.07-8.3,22.2.96,3.22,1.14,7.25.04,10.52-3.19,9.45-4.02,17.95,6.77,24.39-8.98-.08-14.78-7.08-12.78-14.75,2.33-8.88,2.72-17.16.83-25.86-1.41-6.53,2.44-12.85,7.91-16.93,8.31-6.21,13.46-13.75,17.23-22.94,4.67-11.42,21.34-17.12,32.13-12,2.27,1.08,2.08,2.86,2.25,4.71l.06-.11v-.04Z"/>
            <path class="cls-72" d="M966.5,728.2c-1.98,1.2-3.38.53-4.47-1.03,4.81-16.34,3.2-33.35,9.64-49.58,1.99-5.02,1.01-10.55-.56-15.37-2.67-8.12-.53-15.12,5.63-21.39,6.24-6.35,11.05-13.18,12.88-21.77,1.45-6.8,7.94-9.01,13.52-10.92,4.83-1.66,8.13-4.49,10.89-8.2,9.83-13.23,28.64-14.51,37.08-1.88,4.88,7.3,8.91,15.27,12.38,23.35,2.13,4.99.21,10.22-4.82,14.03-7.58,5.74-12.15,13.01-13.55,21.98-1.72,11-7.6,19.14-18.36,24.27-7.16,3.4-12.05,8.79-14.54,16.27-1.22,3.67-2.69,7.93-6.69,9.7-10.37,4.55-14.89,13.04-18.84,22.37-2.02,4.75-4.46,12.28-9.92,11.18-3.63-.73.56-8.28,1.76-12.58,2.34-8.33,5.18-16.61,8.41-24.73,3.24-8.17,5.65-17.06,17.58-18.43,3.77-.44,7.86-3.57,11.53-8.1-7.16.12-11.86,5.87-18.58,5.66,1.53-8.88,6.94-16.31,11.32-23.99,1.63-2.86,5.45-2.97,8.52-3.82,6.89-1.93,13.9-3.62,20.26-9.46-8.92-2.63-14.94,7.96-23.22,4.53,2.56-7.85,7.95-14.34,12.23-21.32,1.05-1.71,2.6-3.27,3.19-5.08.97-2.97,5.6-6.55,2.06-8.81-4.07-2.62-7.09,1.77-9.68,4.88-.19.23-.38.45-.56.67-6.15,7.57-12.27,8.29-18.36,2.15-2.16,3.64-1.27,7.03,1.12,8.82,5.7,4.3,2.43,7.91-.6,12.32-3.22,4.7-5.57,9.91-8.48,14.8-1.12,1.89-1.9,4.7-4.53,4.82-3.16.15-3.59-2.78-4.37-5.01-.42-1.18-.24-2.69-2.67-2.95-1.27,3.62-1.48,7.99.83,9.86,4.92,4,2.92,7.87.77,12.3-7.96,16.35-13.98,33.24-18.77,50.48l-.03-.02Z"/>
            <path class="cls-16" d="M990.58,739.93c-1.11-.62-2.19-1.24-3.3-1.87,2.06-4.34,4.29-8.61,6.15-13.01,2.4-5.72,5.94-10.35,11.9-13.11,4.73-2.18,8.59-5.55,9.72-10.43,2.19-9.53,9.7-14.66,17.38-19.19,8.44-4.99,13.4-11.38,15.45-20.52,1.79-8.02,3.57-15.74,11.74-21.81,13.67-10.14,30.95-7.2,36.5,7.73,2.52,6.79,4.8,13.62,8.46,19.92,3.33,5.76.35,14.72-7.39,19.41-10.06,6.08-17.83,13.72-23.88,23.48-3.44,5.55-8.58,8.97-15.7,9.49-11.48.84-21.72,4.89-30.13,13.66-2.91,3.03-7.08,5.93-11.06,6.83-9.96,2.29-18.05,7.85-26.42,13.16-2.39,1.51-5.63,4.14-7.52,1.33-1.83-2.73,2.08-4.9,4.1-6.45,22.16-17.02,42.65-35.75,61.92-55.75,6.33-6.58,12.27-13.51,19.13-19.67-16.01,24.52-39.51,42.93-58.88,64.82,6.24-.84,9.37-5.9,13.64-9.22,2.95-2.3,5.4-5.25,8.01-7.96,8.35-8.64,15.95-18.43,30.13-16.54,1.79.24,5.36.1,6.3-3.76-3.43-2.52-7,.55-10.41.77-1.41.09-3.13.97-3.94-.27-1.13-1.7.7-2.84,1.83-4.12,8.36-9.53,17.71-18.39,22.33-30.37,1.07-2.8,2.55-5.65-.39-7.35-3.7-2.15-4.62,2-6.45,3.85-1.02,1.03-1.72,2.33-2.75,3.33-1.57,1.5-2.37,4.53-5.22,3.79-2.45-.63-2.55-3.12-2.9-5.29-.26-1.69.7-4.05-2.27-4.91-3.4,4.34-1.26,8.6,0,12.32,1.29,3.75.15,6.18-2.41,8.85-6.97,7.34-13.85,14.76-20.88,22.06-3.75,3.91-7.6,7.15-7.95-1.53-.07-1.64-.3-3.49-2.57-3.26-.62.06-1.88,1.99-1.66,2.52,6.26,14.5-7.96,19.53-15.53,27.33-4.37,4.5-10,7.9-15.07,11.78v-.05Z"/>
            <path class="cls-6" d="M1108.93,631.29c2.93,6.94,4.82,13.85,1.13,21.4-.85,1.73-1.74,3.86-4.1,4.07-2.58.23-3.24-1.92-3.52-3.7-2.6-17.33-14.23-23.45-31.44-22.6-2.89.13-3.44-1.17-3.17-3.33.74-5.74-.74-10.77-3.94-15.29-2.57-3.62-1.55-5.18,3.11-6.98,7.7-2.98,14.68-3.29,18.91,3.22,5.37,8.25,12.57,14.51,20.18,20.54,1.05.83,1.94,1.83,2.81,2.68h.01Z"/>
            <path class="cls-42" d="M1093.37,660.03c10.09,9.46,7.96,20.74-4.96,24.72,11.27-7.45,6.27-16.14,4.96-24.72Z"/>
            <path class="cls-47" d="M1089.66,624.94c8.62,1.51,14.08,6.47,17.45,13.67.72,1.53.9,3.33-.79,4.43-1.59,1.04-2.65-.29-3.22-1.48-3.09-6.57-8.46-11.3-13.44-16.62Z"/>
          </g>
          <g>
            <path class="cls-29" d="M162.89,1111.23c-13.86,5.26-29.1,8.73-44.52,6.04-13.72-2.39-27.34-5.96-40.89-9.38-15.72-3.95-20.98-23.81-10.23-35.94,2.91-3.29,6.02-6.61,9.61-9.08,16.56-11.37,31.85-24.33,50.65-32.82,9.14-4.13,18.45-7.26,27.62-8.54,8.62-1.21,17.98-1.31,27.12-.28,11.63,1.29,23.35,1.75,34.98,3.39,10.17,1.44,17.16,6.14,20.17,16.68,2.84,9.95-.3,17.64-7.56,23.7-7.65,6.39-13.82,14.02-20.38,21.43-12.11,13.7-28.55,20.14-46.57,24.82Z"/>
            <path class="cls-7" d="M199.82,1130.85c7.62-3.96,13.86-7.44,22.06.74,4.36,4.35,14.09,3.03,21.28,4.74,8.24,1.97,16.35,4.46,24.65,7.77-6.64,4.68-14.2,6.39-21.72,7.62-15.52,2.53-31.2,2.13-46.87,1.36-3.21-.15-6.34-.69-9.43,1.7-3.54,2.71-6.97.1-9.62-2.26-3.52-3.13-6.3-4.53-9.17.55-1.38,2.43-4.56,3.55-6.48,2.41-6.3-3.73-13.54.84-20.3-2.01,6.96,4.61,13.9,9.22,20.86,13.83,3.91,2.59,7.85,5.16,11.74,7.79,1.76,1.18,4.52,2.2,3.27,4.94-1.04,2.27-3.56.87-5.22.44-16.69-4.15-32.8-10.01-47.34-19.35-10.84-6.97-22.25-13.38-30.28-24.11-3.17-4.23-8.65-4.69-13.07-6.9-6.24-3.13-11.96-6.96-16.87-11.98-2.31-2.38-3.96-4.85-1.26-7.94,2.71-3.11,5.27-.65,7.26.81,16.44,11.93,35.14,15.14,54.72,18.7,28.94,5.25,52.02-6.62,75.94-18.18,4.68-2.25,9.03-5.19,13.57-7.76,1.59-.9,3.39-2.56,5.11-.58,1.33,1.54-.21,3.09-.88,4.53-3.22,6.83-9.56,10.46-15.02,15.03-2.58,2.16-6.69,3.09-6.97,8.1h.02Z"/>
            <path class="cls-65" d="M207.38,1164.36c.72,2.79-.36,4.92-3.49,5.97-4.06,1.37-12.68-2.02-13.45-5.48-.79-3.52,1.57-4.83,4.34-5.77,4.7-1.61,11.14.88,12.59,5.27v.02Z"/>
            <path class="cls-13" d="M154.79,1127.77c-4.05,1.31-9.03,2.73-10.47-2.55-1.22-4.51,3.37-6.23,7.25-7.37,4.08-1.2,9.02-2.76,10.47,2.6,1.23,4.58-3.33,6.32-7.24,7.31h0Z"/>
            <path class="cls-10" d="M171.18,1164.32c-.87-3.41.75-5.35,3.8-6.17,4.36-1.18,7.59.45,9.39,4.63,1.21,2.81,1.34,5.98-2.1,6.89-4.82,1.28-8.49-1.14-11.09-5.35h0Z"/>
            <path class="cls-32" d="M230.81,1127.36c-4.9.96-8.18-1.88-10.32-5.95-1.39-2.64.18-5,2.96-5.65,4.49-1.04,8.11.87,10.28,4.83,1.56,2.88.38,5.31-2.9,6.77h-.02Z"/>
            <path class="cls-41" d="M124,1035.76c10.61,3.58,18.93-5.15,28.56-10.3,1.65-.88,3.89-1.84,5.52-1.42,10.42,2.67,20.89-.71,31.27.79,1.57.22,3.57.65,4.51,1.75,3.98,4.6,8.94,6.12,14.76,6.1,2.54-.02,4.94,1.25,6.26,3.56,1.21,2.12,2.87,4.76,1.38,6.98-1.38,2.06-3.41-.46-5.18-.67-6.65-.84-7.08,3.45-5.19,7.77,2.95,6.66-3.37,6.51-5.88,8.74-2.47,2.18-5.3,2.9-8.08-1.33-3.03-4.59-8.08-3.38-8.4,2.23-.45,7.99-4.86,10.44-11.28,11.73-5.47,1.11-10.83,6.07-16.3-.98-2.74-3.52-6.38-.64-6.74,2.34-.79,6.59-5.34,7.59-10.2,8.79-5.07,1.25-10.09,2.82-15.24,3.7-3.62.62-7.04,1.13-9.26-4.09-2.17-5.11-5.89-3.93-8.4.76-3.65,6.8-19.78,8.06-24.62,1.89-1.77-2.26-2.96-5.33-1.16-7.78,11.24-15.37,21.97-31.35,40.22-39.47.5-.22,1.06-.32,3.5-1.06h-.04Z"/>
            <path class="cls-20" d="M207.2,1027.41c3.11-.14,4.19-.39,5.18-.19,7.28,1.38,15.68,2.06,18.54,10.2,3.09,8.8-4.18,13.85-9.8,18.45-13.94,11.4-29.61,19.92-46.7,25.59-25.53,8.46-51.09,17.02-78.54,16.52-6.59-.12-13.21-.29-19.6-2.34-11.1-3.56-13.75-11.92-6.6-20.92,1.03-1.29,1.85-3.04,3.18-3.76,3.52-1.85,6.82-8.53,9.63-5.87,3.82,3.6-2.91,5.65-4.89,8.47-4.06,5.83-2.66,11.84,3.92,15.13,10.55,5.27,21.78,3.36,32.48,1.82,32.56-4.71,63.73-14.08,92.21-31.1,2.34-1.41,4.58-3.08,6.65-4.86,11.49-9.86,10.06-19.56-5.68-27.13h.02Z"/>
            <path class="cls-25" d="M70.2,1099.49c61.9,5.86,116.46-10.14,164.31-49.75.67,7.52-5.38,12.1-10.26,15.92-14.1,11.05-29.94,19.21-46.78,25.48-23.26,8.64-47.01,14.9-71.89,16.22-9.32.49-18.72.86-27.74-2.5-3.07-1.13-6.29-2.17-7.64-5.36Z"/>
            <path class="cls-25" d="M207.27,1081.65c-15.82,21.67-73.93,39.34-96.3,29.18,34.47-3.73,65.28-12.91,96.3-29.18Z"/>
            <path class="cls-40" d="M256.81,1145.93c-20.42,4.67-41.75,7.71-61.74,2.27-11.59-3.16-23.8-1.93-35.36-7.33-5.4-2.53-14.75-5.43-22.56-1.99-1.14.5-2.26.18-2.76-.96-.81-1.82.59-2.75,1.91-2.83,3.82-.23,7.67-.26,11.51-.12,29.32.99,58.78-1.71,87.97,3.24,7.18,1.22,14.2,3.56,21.28,5.38-.08.77-.15,1.57-.24,2.35h-.02Z"/>
            <path class="cls-50" d="M167.52,1173.2c-14.32-3.1-27.78-7.94-39.94-16.03-1.37-.92-2.75-1.84-3.99-2.92-2.52-2.17-8.55-2.78-6.62-6.69,1.11-2.26,7.57-.86,10.95,1.18,11.75,7.07,24.3,12.79,35.13,21.44,1.41,1.13,2.99,2.01,4.51,3.02h-.04Z"/>
            <path class="cls-17" d="M69.41,1113.58c14,9.49,29.66,14.8,46.18,18.87-9.22,5.39-35.37-4.93-46.18-18.87Z"/>
            <path class="cls-14" d="M171.57,1131.26c14.18-6.63,28.49-13.16,43.98-22.06-11.48,17.3-29.3,16.29-43.98,22.06Z"/>
            <path class="cls-54" d="M153.84,1149.07c-.62.76-.76,1.1-.95,1.14-5.74.97-8.87-3.05-12.09-6.69-.66-.75-.21-2.65,1.04-2.46,5.24.81,9.21,3.63,12,8.01Z"/>
            <path class="cls-2" d="M140.55,1149.8c-6.07.98-9.84-1.27-12.03-6.27-.49-1.11.2-2.61,1.28-2.41,4.94.97,8.66,3.6,10.75,8.67v.02Z"/>
            <path class="cls-63" d="M166.21,1148.91c.22,1.35.43,2.98-.96,2.84-4.19-.41-7.68-2.43-9.95-6.1-.67-1.07.32-2.49,1.41-2.26,3.8.78,7.12,2.57,9.5,5.52Z"/>
            <path class="cls-36" d="M142.36,1046.62c1.15,4.77-.88,6.63-4.24,7.37-3.97.87-7.25-.47-8.6-4.37-1.26-3.6.22-7.06,3.95-7.7,4.06-.69,7.07,2.04,8.9,4.68v.02Z"/>
            <path class="cls-66" d="M129.12,1071.95c-.04,4.16-2.08,6.73-6.12,7.59-3.66.76-7.05-.28-7.84-4.1-.81-3.86,2.36-6.27,5.59-7.06,3.16-.76,6.66-.39,8.38,3.58v-.02Z"/>
            <path class="cls-38" d="M154.73,1036.6c4.43-1.34,7.22-.49,7.91,3.36.75,4.13-1.34,6.94-5.23,8.24-3.46,1.15-6.21.16-6.94-3.63-.79-4.17,1.49-6.8,4.27-7.95v-.02Z"/>
            <path class="cls-74" d="M179.85,1044.76c.75,3.79-.7,6.78-4.46,8.41-3.06,1.31-6.17,1.36-7.5-2.44-1.67-4.79,1.72-7.22,5.18-9,2.83-1.45,5.34-.46,6.78,3.04v-.02Z"/>
            <path class="cls-27" d="M200.43,1039.3c.43,4.15-1.54,7.14-5.08,8.51-2.83,1.1-6,1.15-7.14-3.09-1.21-4.51,1.44-6.96,4.68-8.58,3.22-1.64,5.73.24,7.56,3.17h-.02Z"/>
            <path class="cls-32" d="M121.52,1051.89c3.86-.73,7.32.99,9.4,4.34,1.84,2.92-.11,5.17-3.08,6.23-4.2,1.5-7.57.24-9.45-3.82-1.37-2.94-.26-5.31,3.14-6.75h-.02Z"/>
            <path class="cls-31" d="M106.08,1063.75c1.38,4.39,2,8.1-2.85,9.43-3.83,1.05-5.39-1.64-6.38-4.85-1.12-3.59-.97-6.63,3.1-8.16,4.01-1.49,5.56.82,6.13,3.58Z"/>
            <path class="cls-19" d="M155.55,1065.71c-2.95.49-5.71-.41-6.55-3.37-1.27-4.48,1.83-7.43,5.26-9.09,2.44-1.18,5.59-.49,6.46,3.01,1.13,4.59-2.05,7-5.16,9.45h0Z"/>
          </g>
        </g>
      </g>
      <path class="cls-71" d="M1132,1209.5s-158,42-452-159c0,0,75,75,198,128,0,0-38-8-116-51,0,0,64,53,158,78,0,0-24,5-99-14,0,0,41,25,235,57,0,0-151-1-300-50,0,0,109,61.6,376.5,58.3l-.5-47.3Z"/>
      <path class="cls-71" d="M52.5,1283.4s97-112.4,442-177.4c0,0-81.8-4.57-251.4,47.71,0,0,54.4-28.71,141.4-41.71,0,0-83,0-214,59,0,0,28-31.2,103-65.1,0,0-78,27.7-218,127.9,0,0,105.2-105.8,267.6-183.3,0,0-162.6,67.3-270.6,176.9v56Z"/>
    </g>
  </g>
</svg>