<?xml version="1.0" encoding="UTF-8"?>
<svg id="Capa_1" data-name="Capa 1" xmlns="http://www.w3.org/2000/svg" viewBox="0 0 672.23 884.8">
  <defs>
    <style>
      .cls-1 {
        fill: #c0ddca;
      }

      .cls-1, .cls-2, .cls-3, .cls-4, .cls-5, .cls-6, .cls-7, .cls-8, .cls-9, .cls-10, .cls-11, .cls-12, .cls-13, .cls-14, .cls-15, .cls-16, .cls-17, .cls-18, .cls-19, .cls-20, .cls-21, .cls-22, .cls-23, .cls-24, .cls-25, .cls-26, .cls-27, .cls-28, .cls-29, .cls-30, .cls-31, .cls-32, .cls-33, .cls-34, .cls-35, .cls-36, .cls-37, .cls-38, .cls-39, .cls-40, .cls-41, .cls-42, .cls-43, .cls-44, .cls-45, .cls-46, .cls-47, .cls-48, .cls-49, .cls-50, .cls-51, .cls-52, .cls-53, .cls-54, .cls-55, .cls-56, .cls-57, .cls-58, .cls-59, .cls-60, .cls-61, .cls-62, .cls-63, .cls-64, .cls-65, .cls-66, .cls-67, .cls-68, .cls-69, .cls-70, .cls-71, .cls-72, .cls-73, .cls-74, .cls-75, .cls-76, .cls-77 {
        stroke-width: 0px;
      }

      .cls-2 {
        fill: #f7fbf8;
      }

      .cls-3 {
        fill: #c1ddca;
      }

      .cls-4 {
        fill: #caddd0;
      }

      .cls-5 {
        fill: #f3f9f4;
      }

      .cls-6 {
        fill: #fafcfb;
      }

      .cls-7 {
        fill: #eef6ef;
      }

      .cls-8 {
        fill: #f4f9f5;
      }

      .cls-9 {
        fill: #f7faf8;
      }

      .cls-10 {
        fill: #c4dece;
      }

      .cls-11 {
        fill: #bfddca;
      }

      .cls-12 {
        fill: #f3f8f2;
      }

      .cls-13 {
        fill: #c7decf;
      }

      .cls-14 {
        fill: #f5faf7;
      }

      .cls-15 {
        fill: #f8faf8;
      }

      .cls-16 {
        fill: #f7faf7;
      }

      .cls-17 {
        fill: #f8fbf9;
      }

      .cls-18 {
        fill: #bfd9c9;
      }

      .cls-19 {
        fill: #bedac9;
      }

      .cls-20 {
        fill: #bfdcca;
      }

      .cls-21 {
        fill: #fdfefd;
      }

      .cls-22 {
        fill: #f3f8f5;
      }

      .cls-23 {
        fill: #f0f7f1;
      }

      .cls-24 {
        fill: #f1f8f2;
      }

      .cls-25 {
        fill: #c4ddcd;
      }

      .cls-26 {
        fill: #bbd8c6;
      }

      .cls-27 {
        fill: #fcfdfc;
      }

      .cls-28 {
        fill: #f4f9f6;
      }

      .cls-29 {
        fill: #fefefe;
      }

      .cls-30 {
        fill: #ecf5ef;
      }

      .cls-31 {
        fill: #c5dccd;
      }

      .cls-32 {
        fill: #fcfdfd;
      }

      .cls-33 {
        fill: #c3dbcd;
      }

      .cls-34 {
        fill: #c7ded1;
      }

      .cls-35 {
        fill: #b8d8c4;
      }

      .cls-36 {
        fill: #f2f8f3;
      }

      .cls-37 {
        fill: #c2decc;
      }

      .cls-38 {
        fill: #c2ddcc;
      }

      .cls-39 {
        fill: #c5dece;
      }

      .cls-40 {
        fill: #c3dbcc;
      }

      .cls-41 {
        fill: #c5decd;
      }

      .cls-42 {
        fill: #f4f9f4;
      }

      .cls-43 {
        fill: #f2f8f4;
      }

      .cls-44 {
        fill: #fafcfa;
      }

      .cls-45 {
        fill: #cce1d4;
      }

      .cls-46 {
        fill: #f4f9f3;
      }

      .cls-47 {
        fill: #c6dcce;
      }

      .cls-48 {
        fill: #f3f8f4;
      }

      .cls-49 {
        fill: #cbe0d4;
      }

      .cls-50 {
        fill: #c3decc;
      }

      .cls-51 {
        fill: #eff6ef;
      }

      .cls-52 {
        fill: #fbfcfb;
      }

      .cls-53 {
        fill: #c3dfcd;
      }

      .cls-54 {
        fill: #c4ddcc;
      }

      .cls-55 {
        fill: #feffff;
      }

      .cls-56 {
        fill: #cbe0d2;
      }

      .cls-57 {
        fill: #c8ddd0;
      }

      .cls-58 {
        fill: #f3f8f6;
      }

      .cls-59 {
        fill: #c6decf;
      }

      .cls-60 {
        fill: #fffefe;
      }

      .cls-61 {
        fill: #fbfdfb;
      }

      .cls-62 {
        fill: #c5dccc;
      }

      .cls-63 {
        fill: #fff;
      }

      .cls-64 {
        fill: #badac6;
      }

      .cls-65 {
        fill: #f9fcf9;
      }

      .cls-66 {
        fill: #c0dbca;
      }

      .cls-67 {
        fill: #c1dbcb;
      }

      .cls-68 {
        fill: #edf6f1;
      }

      .cls-69 {
        fill: #c6dfce;
      }

      .cls-70 {
        fill: #c6dfcf;
      }

      .cls-71 {
        fill: #f9fbfa;
      }

      .cls-72 {
        fill: #c7dfce;
      }

      .cls-73 {
        fill: #cbdfd3;
      }

      .cls-74 {
        fill: #c1dccb;
      }

      .cls-75 {
        fill: #c4decc;
      }

      .cls-76 {
        fill: #c4decd;
      }

      .cls-77 {
        fill: #f5f9f5;
      }
    </style>
  </defs>
  <rect class="cls-63" width="672.23" height="884.8"/>
  <g>
    <path class="cls-64" d="M141.45,379.32c.44-1.87.26-3.48-.11-5.13-.54-2.39.42-3.9,2.97-4.08,2.38-.17,4.48.27,4.49,3.27,0,2.15.07,4.38-.49,6.42-.99,3.59.72,4.34,3.57,3.73,2.15-.46,3.89-.29,5.59,1.51-1.07,1.25-2.83,1.87-2.94,4.05-.08,1.55-1.41,3.01-3.53,2.66-5.58-.91-3.49,2.52-2.31,4.6,3.25,5.75,3.23,7.71-1.46,12.44-1.06,1.07-1.25,2.22-1.65,3.47-.61,1.93-1.53,4.27-3.37,4.73-4.64,1.17-6.81,6.26-11.7,6.86-1.59.2-2.43,1.59-3.03,3.05-5.94,14.39-27.59,15.41-36.2,2.43-.17-.25-.54-.36-.81-.53-1.94,2.03-3.82,4.11-5.82,6.06-.94.91-2.04,2.17-3.17,2.29-6.9.7-13.87,3.52-20.74.75-6.38-2.57-10.21-8.04-12.43-14.26-2.22-6.24-4.11-12.76-.63-19.32.72-1.35.51-2.22-.86-3.31-7.92-6.31-11.83-14.93-13.76-24.65-.9-4.52,1-8.52,2.22-12.59.6-2,2.55-1.8,4.12-.59,2.73,2.1,5.44,4.24,8.15,6.36,1.9-2.87,1.99-6.41,3.93-9.41,3.05-4.73,3.46-5.01,7.52-1.27,3.17,2.92,5.05,6.55,6.68,10.38.63,1.48.79,3.21,2.79,4.31.73-7.32,3.56-13.43,8.76-18.45,2.74-2.64,4.41-2.1,6.11,1.04,1.26,2.32,1.64,4.73,1.38,7.23-.5,4.83,1.2,9.1,2.85,13.48,1.07,2.83,1.95,2.19,3.12.28,2.45-3.99,3.86-8.44,5.63-12.74,1.09-2.66,2.11-6.28,5.33-6.7,3.29-.43,4.18,3.32,5.76,5.5,3.08,4.23,4.31,8.93,2.72,14.13-.39,1.27-.89,2.73.26,3.75,1.57,1.39,2.15-.87,3.27-1.13,3.22-.77,6.32-1.67,8.59-4.37.41-.49,1.66-.66,2.36-.45,5.42,1.64,11.39,1.13,16.81,4.21Z"/>
    <path class="cls-66" d="M350.72,857.06c1.92,2.35-.74,3.19-1.64,4.36-6.21,8.02-13.25,10.04-21.99,5.22-10.18-5.6-21.45-8.95-31.17-15.46-1.04-.7-2.51-1.07-3.77-1.05-4.62.09-8.95-.82-12.85-3.29-1.85-1.17-3.95-.3-5.79-1.08,2.05-5.25-2.06-12.07-7.9-12.55-2.63-.21-3.38-.65-3.73-3.51-.37-3.09-1.35-6.13-1.14-9.31.2-3.1-1.66-4.88-3.99-6.37l.04.06c-3.43-9.55-2.26-14.83,4.44-21.03,2.23-2.06,4.84-2.88,7.69-3,2.57-.11,2.94-1.3,2.58-3.58-1.09-6.94,1.95-12.15,8.78-13.99,3.99-1.08,7.29-3.15,10.63-5.24,8.58-5.38,16.45-4.48,23,3.06,1.29,1.48,2.68,1.83,4.38,1.73,2.22-.13,4.35.18,6.18,1.5,1.2.87,2.28,1.12,3.65.36,4.26-2.35,7.43-.44,9.8,3.01,1.71,2.5,3.75,4.64,5.83,6.79,2.65,2.72,4.37,5.88,4.03,9.82-.35,4.1.71,7.84,2.4,11.55,2.94,6.43,1.82,13.02.06,19.49-.33,1.22-1,2.87-2.81,3.06-.89-.98-.42-1.86-.02-2.8,3.04-7.08,3.28-14.06-.21-21.17-1.51-3.08-2.34-6.42-1.73-10.1.4-2.43-.51-4.93-2.47-6.78-2.92-2.75-5.53-5.73-7.58-9.22-1.35-2.29-3.48-3.3-5.92-1.73-2.5,1.61.12,3.1.45,4.62.53,2.42,1.02,4.89,1.96,7.16,1.17,2.81,2.09,6.9,7.08,2.68-2.25,3.88-.97,6.54,1.03,9.36,2.36,3.32,2.22,7.15,1.12,11.01-.26.91-1.66,3.22,1.79,2.05,2.56-.87,1.3,1.75.72,2.28-4.27,3.85-2.42,7.6-.21,11.53,1.48,2.64,2.32,5.62,2.17,8.6-.3,5.95.72,11.56,3.25,16.93.7,2.16.73,4.19-.83,6.09-2.86,3.48-5.52,3.2-7.44-.85-1.21-2.56-2.34-5.15-3.58-7.69-2.28-5.35-4.79-10.62-7-16.01-1.38-3.36-2.93-6.38-7.26-6.51-1.34-.04-2.7-.67-2.92-2.25-.18-1.3,1.06-1.54,1.94-1.87,2.02-.76,1.85-2.02.98-3.55-2.46-4.35-4.7-8.81-7.39-13.03-1.28-2.01-2.99-3.02-5.36-3.06-1.5-.02-3.01-.09-4.4-.74-1.07-.5-2.17-1.08-2.18-2.45,0-1.51,1.22-2.01,2.38-2.07,3.53-.18,3.44-1.62,1.67-4-1.35-1.81-2.46-3.91-.29-5.77,2.12-1.82,4.1-.35,5.82.98,4.7,3.64,7.58,8.79,10.95,13.52.65.92.86,2.17,2,2.74,1.02-.34.86-1.32,1.14-2.04.59-1.48.59-3.84,2.68-3.67,2.44.2,1.99,2.64,2.17,4.39.07.66.15,1.42-.14,1.98-3.25,6.25.28,11.18,3.11,16.23,2.28,4.07,4.1,8.37,6.06,12.59.7,1.5,1.26,3.52-.87,4.25-1.74.6-2.56-1.14-3.22-2.49-5.09-10.48-10.4-20.83-16.42-30.81-1.11-1.84-1.93-3.87-3.06-4.94,10.21,16.53,19.39,34.3,26.95,53.56.76-1.91.31-3.26-.14-4.55-1.68-4.75-2.58-9.64-2.65-14.67-.05-3.57-.91-6.93-2.58-10.06-2.39-4.48-3.04-9.14-1.48-14,1.7-5.31.26-9.68-3.36-13.78-3.44-3.9-5.76-8.43-7.09-13.58-1.86-7.25-5.39-9.23-12.48-7.5-3.29.81-6.58.87-9.91.92-4.8.07-8.24,2.33-10.34,6.6-2.15,4.38-2.1,8.61.85,12.72,2.1,2.92,4.79,5.07,7.9,6.76,6.06,3.3,10.02,8.12,11.13,15.07.61,3.81,2.58,6.85,5.63,9.12,2.94,2.19,4.83,4.93,5.58,8.55.74,3.57,2.74,6.38,5.7,8.52,1.89,1.37,3.67,2.87,5.11,4.74,1.45,2.04,2.6,4.25,3.67,6.52.74,1.57,1.29,3.19.17,4.72-1.34,1.83-3.06.68-4.55.21-4.49-1.42-8.4-4.02-12.26-6.56-16.3-10.73-30.96-23.37-42.35-36.78,13.59,16.54,31.15,31.3,51.76,42.38.88.47,1.87.7,2.8,1.05,1.36.51,3.56.73,3.23,2.49-.38,2.05-2.55,1.59-4.2,1.46-12.68-4.37-23.1-12.43-33.35-20.67-2.92-2.34-5.66-3.98-9.46-3.04-.47.12-1,.09-1.49.03-1.75-.21-4.25.33-4.6-1.94-.42-2.69,2.4-2.06,3.93-2.68.33-.14.59-.31.91-.97-2.24-3.66-5.92-6.33-8.66-9.78-1.04-1.3-2.72-.99-4.23-.79-1.66.21-3.32.32-4.97-.07-.99-.23-1.97-.61-2.08-1.82-.11-1.24.81-1.9,1.8-2.01,5.29-.61,3.74-3.16,1.83-5.97-1.03-1.51-1.97-3.1-2.68-4.79-.68-1.6-1.04-3.35.54-4.56,1.63-1.25,3.22-.33,4.5.81,4.21,3.76,8.08,7.89,12.49,12.44.88-3.01.43-5.56.28-8.09-.08-1.29-.44-2.94,1.38-3.24,1.84-.3,2.73,1.12,3.04,2.66.55,2.76,1.75,5.61,1,8.36-1.21,4.44.48,7.33,3.88,9.83,1.81,1.33,3.07,3.4,5.21,4.5,1.25-2.28.05-4.26.27-6.2.1-.86.32-1.7,1.16-2.05,1.11-.46,1.94.17,2.53,1.03,1.65,2.42,2.39,5.19,2.23,8.05-.2,3.54,1.31,5.91,3.96,8.08,6.07,4.99,12.66,9.14,20.13,13.45-1.43-3.52-3.66-5.32-5.91-7.11-3.72-2.96-6.88-6.3-7.63-11.29-.34-2.26-1.65-4.11-3.47-5.31-4.69-3.08-6.81-7.69-7.8-12.87-.99-5.18-3.78-8.76-8.41-11.06-5.24-2.61-9.32-6.21-11.46-11.92-1.32-3.52-4.37-4.9-8.07-4.58-5.16.45-10.25,1.53-15.07,3.26-7.23,2.59-9.87,11.4-5.53,17.72,2.05,2.99,3.38,6.01,3.47,9.67.09,3.55,1.64,6.43,4.85,8.2,3.62,2,6.24,4.89,8.08,8.59,2.36,4.75,6.03,7.33,11.57,7.05,3.77-.19,7.18,1.24,10.42,3.06,10.87,6.1,22.44,10.76,33.58,16.29.6.3,1.27.41,1.93.47,5.66.56,8.7-3.89,12.65-6.6,1.11-.76,1.55-2.72,3.51-1.99Z"/>
    <path class="cls-67" d="M564.7,405.17c-1.48-8.65,1.81-14.83,9.52-18.91,2.54-1.34,5.14-1.23,7.78-1.12,2.38.1,3.43-.51,3.78-3.23.91-7.2,4.81-10.53,11.96-10.82,4.22-.17,8.13-1.52,12.07-2.85,8.94-3.04,16.99.22,21.24,8.65.82,1.63,1.93,2.78,3.65,3.07,4.38.74,7.43,4.98,12.76,3.93,2.69-.53,4.21,3.29,5.23,5.95.84,2.17,1.42,4.45,2.93,6.29,3.41,4.13,3.91,8.67,2.03,13.57-.8,2.07-.72,4.07-.38,6.31,1.1,7.2.78,14.27-3.36,20.7-1.17,1.82-2.39,3.4-4.34,4.51-.33-.78-.64-1.21-.55-1.33,5.49-7.24,8.26-15.08,5.63-24.21-.18-.62-.23-1.41,0-1.98,3.51-8.66-.77-15.91-4.13-23.35-.86-1.9-1.97-3.63-4.08-4.01-1.67-.3-3.95-.84-3.03,2.55.92,3.36.08,6.92.97,10.39.86,3.33,1.43,5.98,6.18,2.98-3.17,3.73-2.65,7-1.11,10.69.92,2.21-.15,4.86-.53,7.33-.26,1.68-5.03,4.01.27,5.72.76.24-.72,2.09-1.64,2.55-3.25,1.66-3.32,4.32-2.49,7.23,1.37,4.73,1.72,9.38-.13,14.1-2.22,5.68-.12,11.5-.3,17.26-.81,1.24-1.47,2.6-2.66,3.57-2.57,2.09-5.08,1.46-6.18-1.72-1.08-3.13-1.34-6.47-2.19-9.66-.95-5.91-1.82-11.84-2.87-17.75-.61-3.42-1.79-5.95-5.33-7.05-1.6-.49-3.32-1.45-3.04-3.44.28-2.04,2.17-1.61,3.63-1.63,2.17-.03,1.86-1.45,1.51-2.79-1.34-5.16-3.01-10.23-4.56-15.33-.59-1.95-2.12-2.89-3.93-3.51-1.42-.49-2.86-.96-4.06-1.89-1.08-.84-2.16-1.83-1.49-3.34.6-1.35,1.93-.99,3.08-.82.82.13,1.63.36,2.46-.12.77-1.55-.25-2.86-.62-4.27-.48-1.79-1.18-3.73,1.07-4.78,1.93-.91,3.57.03,4.89,1.47,2.4,2.6,4.26,5.54,5.44,8.89,1.27,3.61,2.66,7.17,4.01,10.57.45.38.76.36,1,.01,1.18-1.64,1.87-4.88,4.48-3.4,2.55,1.45,1.08,4.44-.17,6.21-2.89,4.09-2.81,8.07-1.54,12.74,1.53,5.6,3.37,11.18,3.9,17.03.15,1.63.62,3.73-1.53,4.18-2.17.45-2.64-1.71-3.04-3.24-2.23-8.66-3.65-17.5-6.11-26.12-1.45-5.1-3.19-10.1-4.22-13.65,6.01,17.41,9.96,36.94,13.38,56.68-1.01-9.57,4.02-18.68,1.59-28.42-1.3-5.2.56-10.26,2.97-14.91,1.95-3.77,1.8-7.37-.14-10.98-2.82-5.25-4.08-10.8-4.18-16.78-.1-6.17-3.07-8.92-9.16-9.48-3.81-.35-7.57-1.11-11.35-1.74-5.92-1-9.97,1.68-12.89,6.51-2.25,3.73-1.98,10.9,1.67,13.97,7.86,6.61,10.4,14.83,11.63,24.78.94,7.68,6.42,14.49,7.3,22.76.38,3.53,4.42,6.13,5.84,9.75,1.24,2.75,1.38,5.79,2.25,8.65.4,1.3.06,2.68-1.09,3.63-1.44,1.19-2.4-.06-3.5-.72-4.94-2.93-8.8-7.13-12.53-11.32-13.22-14.82-24.39-31.04-32.86-49.04,8.08,17.54,18.15,33.81,31.57,47.84,4.23,4.43,8.27,9.12,13.55,12.45,1.02.64,1.97,1.56,1.2,2.86-.74,1.25-2.04,1-3.11.48-3.32-1.62-5.95-4.22-8.96-6.3-7.05-6.64-13.39-13.89-18.93-21.83-2.05-2.93-4.03-5.73-8.29-5.27-1.3.14-2.56-.67-3.65-1.47-.81-.59-1.64-1.25-1.46-2.41.2-1.26,1.26-1.43,2.27-1.44,4.25-.02,2.65-2.22,1.5-4.13-1.03-1.71-2.51-3.17-3.24-5.03-1.33-3.4-3.25-5.6-7.35-5.28-1.79.14-3.99-.63-4.17-2.79-.19-2.3,2.1-2.17,3.66-2.43,2.46-.4,2.31-1.89,1.76-3.69-.63-2.07-1.74-3.99-2.07-6.14-.32-2.07-.21-4.18,2.03-5.12,2.2-.92,3.36.86,4.42,2.33,2.74,3.81,4.32,8.25,6.69,12.26.5.84.93,1.8,2.33,2.1,1.79-1.75.83-4.37,1.67-6.43.61-1.5.87-3.7,3.02-3.32,2.03.36,1.85,2.5,1.89,4.14.05,2.02-.27,4.08-1.09,5.86-3.44,7.47.63,12.62,5.24,18.11,1.65-2.04,1.14-4.33,1.78-6.27.32-.99.79-1.95,1.99-1.9,1.19.05,1.67,1.04,1.86,2.04.57,2.99.48,5.98-.34,8.91-.63,2.23-.52,4.27.91,6.16,5.13,6.74,10.51,13.24,17.12,18.76-.48-3.12-2.35-5.52-4.21-7.85-2.49-3.11-4.05-6.45-3.7-10.54.28-3.34-.93-6.24-3.03-8.75-3.06-3.66-4.33-7.87-3.92-12.54.54-6.13-1.52-11.09-6.2-15.03-4.22-3.56-6.95-7.92-7.8-13.51-.6-4.01-3.25-6.07-7.34-6.04-3.34.03-6.65-.27-9.93-.91-8.59-1.68-19.53,8.15-13.54,17.41,1.58,2.45,1.32,5.41.67,8.27-.92,4.01-.16,7.48,3.07,10.41,3.06,2.78,4.33,6.67,5.46,10.52,1.38,4.7,4.22,7.69,9.04,9.06,4.56,1.29,8.33,3.85,11.37,7.71,3.44,4.36,8.86,6.4,12.93,10.11,2.33,2.13,4.85,4.05,7.08,6.3,9.01,8.39,12.56,8.74,23.13,2.21.73-.45,1.42-.84,2.28-.4,1.45,1.09.6,1.94-.27,2.81-6.7,6.74-16.6,7.43-23.95,1.28-6.98-5.83-14.87-11.04-20.82-17.52-6.42-6.99-15.78-8.19-21.94-14.72-.95-1-3-.96-4.61-1.42,3.3-3.54,2.13-11.42-3.08-13.34-6.87-2.53-3.91-7.22-3.67-11.08.25-3.92,1.93-7.78-1.64-11.04l.04.06Z"/>
    <path class="cls-26" d="M68.42,678.11c-8.94.61-18.36-.04-26.81-4.25-7.52-3.74-14.77-8.14-22.01-12.44-8.4-4.98-7.97-17.25.37-22.33,2.26-1.38,4.64-2.74,7.15-3.53,11.57-3.64,22.68-8.41,35.04-10.01,6.01-.78,11.94-.96,17.47-.11,5.2.8,10.63,2.36,15.74,4.53,6.5,2.75,13.2,5.04,19.64,7.99,5.63,2.58,8.85,6.48,8.75,13.03-.1,6.18-3.26,10.04-8.52,12.25-5.54,2.33-10.45,5.63-15.54,8.73-9.4,5.74-20.04,6.58-31.28,6.14Z"/>
    <path class="cls-45" d="M593.59,678.71c-6.25-1.3-8.24-5.97-10.82-9.87-4.86-7.34-7.07-16.1-12.13-23.36-.48-.68-1.09-1.82-.01-2.03,4.58-.88,2.8-3.44,1.75-5.87-.45-1.04-1.35-2.33-.02-3.08,1.27-.7,2.13.69,2.76,1.57,2.12,2.98,4.07,6.07,6.15,9.08,1.08,1.56,1.29,4.52,4.58,2.66,1.09-.62,1.52.85,1.87,1.77,2.81,7.43,7.33,14.09,9.41,21.9,1.74,6.56,6.81,9.6,14.99,9.48,7.23-.11,14.15,1,19.61,5.82,11.29,9.95,10.8,22.87,2.26,34.29-8.62,11.52-20.74,16.09-34.77,13.87-14.44-2.29-23.45-14.97-18.36-30.29,1.42-4.26,3.33-8.27,6.24-11.85,2-2.46,3.04-5.52,2.57-8.88-.35-2.52.02-4.7,3.93-5.21Z"/>
    <path class="cls-73" d="M90.13,119.17c-2.68.32-3.95-1.2-5.37-2.94-4.9-6.01-8.05-12.98-11.28-19.9-1.4-3.01-2.51-6.13-4.48-8.87-.82-1.14-2.44-3.17,1.17-2.75,2.02.23,1.61-1.38,1.37-2.37-.31-1.27-1.14-2.4-1.56-3.65-.33-1-1.64-2.23-.32-3.12,1.45-.99,2.55.4,3.25,1.43,2.33,3.43,4.34,7.09,6.82,10.4.79,1.05.92,4.63,4,2.1.59-.48,1.5.56,1.77,1.35,2.11,6.14,5.96,11.45,7.99,17.65,3.86,11.79,6.35,13.5,18.56,13.65,3.69.04,7.25.73,10.68,2.03,15.5,5.85,19.05,21.81,10.77,35.35-8.55,13.99-24.25,20.07-40.13,15.71-11.54-3.17-19.57-15.56-15.5-27.52,1.63-4.8,3.87-9.14,6.45-13.37,2.09-3.43,4.47-6.59,2.73-11.05-.94-2.39,1.67-2.71,3.06-4.13Z"/>
    <path class="cls-53" d="M324.35,89.17c2.07-4.29.14-7.06-3.2-9.75-3.99-3.23-7.63-6.9-11.4-10.41-.99-.92-2.01-1.98-3.43-1.74-6.18,1.06-9.88-3.13-13.8-6.59-5.6-4.94-11.03-10.09-16.38-15.31-1.97-1.92-5.91-3.94-2.98-7.2,3.03-3.38,9.83,5.6,12.57,7.23-.08-1.97-6.34-7.3-7.15-8.32-1.93-2.45-2.11-4.52,1.22-5.8.56-.21,10.77,10.08,11.26,9.79.29-.17-9.07-10.74-8.92-11.23,1.88-6.01,4.34-3.94,7.31-1.22,7.34,6.73,14.7,13.45,22.03,20.19,1.09,1,2.69,1.96,2.64,3.49-.32,9.38,7.37,13.26,12.82,18.48,11.62,11.14,23.55,21.95,35.42,32.83,2.54,2.33,1.8,3.95-.72,5.36-4.67,2.61-8.32.31-11.63-2.75-6.35-5.86-12.73-11.69-18.83-17.8-2.38-2.38-3.56-2.08-4.7.78-.72.54-1.43.58-2.12-.05Z"/>
    <path class="cls-35" d="M86.35,695.72c5.1-.95,9.32-1.86,12.63,4.24,1.76,3.24,7.62,4.17,11.48,6.39,4.42,2.55,8.68,5.38,12.9,8.71-4.66,1.53-9.33,1.2-13.9.6-9.42-1.24-18.42-4.18-27.35-7.33-1.83-.64-3.55-1.49-5.75-.66-2.52.94-4.05-1.15-5.17-2.96-1.49-2.4-2.85-3.68-5.4-1.27-1.22,1.15-3.26,1.24-4.17.26-2.99-3.22-7.98-1.86-11.39-4.66,3.22,3.84,6.43,7.68,9.65,11.52,1.81,2.16,3.64,4.31,5.43,6.49.81.98,2.23,2.04,1.03,3.39-1,1.12-2.21-.12-3.1-.65-8.93-5.26-17.22-11.4-24-19.26-5.05-5.86-10.53-11.5-13.3-19.03-1.09-2.97-4.18-4.18-6.35-6.21-3.06-2.87-5.7-6.05-7.66-9.77-.92-1.76-1.44-3.46.66-4.76,2.11-1.31,3.16.54,4.06,1.72,7.42,9.67,17.68,14.74,28.38,20.16,15.82,8.01,31.25,5.21,47.11,2.74,3.1-.48,6.13-1.41,9.21-2.09,1.08-.24,2.41-.88,3.06.55.5,1.11-.66,1.73-1.3,2.44-3.06,3.35-7.36,4.33-11.32,6-1.87.79-4.41.61-5.45,3.43Z"/>
    <path class="cls-20" d="M635.31,119.28c.35,1.8,1.58,2.49,2.55,3.35.93.84,2.79,1.02,2.47,2.72-.37,1.97-2.36,2.11-3.88,2.65-.61.22-1.33.26-1.98.18-6.63-.81-12.07.3-15.51,7.1-1.89,3.74-4.91,4.13-7.29-.36-.99-1.86-2.88-3.22-4.07-5-1.17-1.74-2.36-2.22-4.53-1.95-3.6.46-7.3.72-10.88-.47-1.24-.41-2.83-.46-3.17-2.01-.38-1.74,1.37-2,2.34-2.8,1-.83,2.18-1.55,2.57-2.94-6.57-3.63-8.97-2.89-14.6,4.32-1.12,1.43-2.04,4.86-3.92,3.41-2.15-1.66,1.1-3.62,2.05-5.31,1.03-1.83,2.87-3.2,4.33-4.8.52-.57,1.7-1.3,1.05-1.98-4.72-4.88,1.06-4.2,2.87-5.34,2.79-1.76,5.51-3.64,8.65-4.86,3.66-1.43,7.33-2.37,11.07-.85,3.73,1.51,4.39-.22,4.16-3.35-.26-3.58.77-6.91,1.98-10.19.81-2.18,2.12-3.99,4.73-3.48,2.6.5,2.46,2.75,2.42,4.79-.05,3.16-.14,6.32-.08,9.48.04,2.36.76,3.68,3.71,2.89,9.56-2.56,16.82,3.47,24.76,6.95,2.73,1.2-.48,4.38,2.1,6.01,2.2,1.38,3.68,3.75,5.26,5.92,7.81,10.75,9.68,32.9-.87,44.86-7.54,8.55-17.04,12.98-28.93,13.97,1.35-3.35,3.86-2.83,5.74-3.38,11.82-3.4,21.81-9.02,26.15-21.47,4.01-11.48,1.17-28.66-8.87-37.71-4.32-3.9-8.2-1.34-12.38-.37Z"/>
    <path class="cls-11" d="M596.07,137.1c-4.16-1.52-8.39-1.85-11.74.89-4.34,3.56-7.22,4.39-8.93-2.08-.22-.83-1.21-1.46-1.88-2.22-1.36,1.38-.24,2.31.13,3.28,2.2,5.79,1.81,6.54-4.31,8.08-3.66.92-5.23,2.33-7.23,6.5,1.44.9,1.96-.84,2.99-1.02.59-.1,1.44-.16,1.8.17.85.78.15,1.61-.48,2.07-10.23,7.34-11.35,17.16-7.85,28.31.26.82.45,2-1.18,2.84-4.04-6.61-4.38-13.52-2.16-20.7.66-2.14,2.58-4.19-.64-5.92-.81-.43-.81-1.51-.12-2.17,4.84-4.67,6.94-12.37,15.35-13.12,3.24-.29,1.39-2.91,1.07-4.7-.36-1.96-1.72-3.18-2.97-4.5-1.43-1.49-1.34-2.93.07-4.36,1.43-1.45,2.93-1.43,4.4-.1,1.99,1.79,3.76,3.75,5.15,6.06,1.31,2.19,3,3.03,5.27,1.24,5.63-4.43,11.89-1.33,17.87-1.49.66-.02,1.65.36,1.45,1.01-1.14,3.79,1.93,3.87,4.05,4.8,1.01.45,1.78,1.18,1.2,2.3-.49.93-1.41.56-2.17.16-3.76-2.01-7.82-1.01-11.77-1.24-1.19-.07-3.15.72-3.26-1.16-.09-1.58,1.73-1.64,3.07-1.81.89-.11,1.99.37,2.82-1.1Z"/>
    <path class="cls-10" d="M329.92,70.64c-.08-5.32-.43-10.55,4.65-14.45,12.2-9.39,13.85-19.09,10.58-33.67-2.08-9.26-9.31-8.97-14.16-3.74-10.56,11.37-12.62,22.44-5.4,36.2.85,1.62.92,3.2.7,4.81-.23,1.72-.31,4.35-2.61,4-2.18-.34-.33-2.48-.3-3.75.05-2.28-.67-4.19-1.63-6.16-6.85-14-2.11-31.56,10.79-40.17,4.77-3.19,11.07-1.22,13.76,4.29,6.68,13.71,3.69,29.17-8.17,38.74-3.72,3-5.84,6.06-5.9,10.72-.02,1.33-.68,2.48-2.3,3.19Z"/>
    <path class="cls-36" d="M620.59,467.29c3.63,1.8,6.14,5.45,10.63,6.2-21.56-17.64-37.28-39.37-46.44-65.76,1.14,2.16,2.25,4.34,3.43,6.49,1.2,2.18,2.44,4.34,3.71,6.49,10.01,16.93,21.05,33.08,35.45,46.69,1.88,1.77,4.12,4.75,6.35,3.53,2.48-1.36-.23-4.51-.25-6.91-.01-1.29-.57-2.57-.88-3.85.39-.93.94-1.55,2.06-1.04,1.58,2.44.89,5.37,1.74,8.02,1.51,4.71,2.31,5.09,6.01,1.83.73-.64,1.49-1.24,2.24-1.86,0,1.01,0,2.01,0,3.02-1.32.97-2.57,2.06-3.97,2.91-8.55,5.2-15.03,4.04-22.08-3.88.35-.96,1.2-1.39,2-1.86Z"/>
    <path class="cls-1" d="M621.64,168.51c.59-7.74-2.58-13.59-7.06-19-.88-1.06-3.69-2.04-1.65-3.77,1.69-1.43,2.82,1.05,3.84,2.13,9.45,9.9,12.27,27.05.65,38.63-11.6,11.56-26.12,16.65-42.74,13.66-4.33-.78-7.94-3.3-11.34-6-.98-.78-2.4-1.9-1.23-3.28,1.11-1.3,2.19.2,2.85.9,12.32,13.08,41.59,4.59,52.25-8.87,3.32-4.19,5.3-9.2,4.43-14.4Z"/>
    <path class="cls-24" d="M334.71,864.09c1.11-.12,2.21-.23,4.56-.48-26.28-11.26-46.32-28.37-61.85-50.98,1.11,1.01,2.3,1.94,3.31,3.04,1.12,1.21,1.95,2.69,3.11,3.86,14.24,14.44,29.3,27.87,46.91,38.18,2.67,1.56,6.13,4.43,8.28,2.44,2.31-2.15-1.06-5.26-2.41-7.82-.38-.72-.63-1.51-.94-2.26.39-.91.92-1.53,2.02-1.03,2.2,1.82,2.04,4.81,3.49,7.01.84,1.28.48,3.7,2.77,3.55,2.14-.14,3.61-1.66,4.26-3.68.4-1.23.42-2.59.62-3.89,1.17,1.47,1.51,3.25,1.88,5.02-2.26,2.1-4.42,4.31-6.79,6.28-2.64,2.2-5.48,4.15-9.24,3.57-.76-.94-.81-1.88.02-2.82Z"/>
    <path class="cls-50" d="M324.35,89.17c.7.02,1.41.03,2.12.05-1.26,9.88-4.18,19.39-6.43,29.04-.53,2.29-2.66,3.77-4.73,4.9-1.81.99-3.81,1.57-5.68.38-1.98-1.26-.53-3.13-.21-4.55,2.64-11.78,5.44-23.52,8.26-35.25.25-1.06.58-2.28,2.28-2.96,1.31,3.72-.48,7.06-1.18,10.36-1.78,8.42-3.95,16.75-5.93,25.12-.36,1.52-1.46,3.77.55,4.29,2.01.52,3.48-1.2,4.01-3.48,1.89-8.22,3.89-16.42,5.88-24.62.27-1.12.71-2.19,1.07-3.29Z"/>
    <path class="cls-37" d="M586.45,193.07c1.71-.04,4.86.27,6.24-3.38.32-.84.8-1.53,1.81-1.23,1.28.37,1.27,1.54.99,2.45-.69,2.19-2.24,3.57-4.46,4.27-9.47,3.01-22.67-1.9-27.53-10.28-6.31-10.87-4.7-22.53,4.25-30.24,2.72-2.35,5.81-3.85,9.56-3.49,1.04.1,2.13.23,2.16,1.52.02.97-.85,1.46-1.73,1.37-6.1-.61-9.5,3.49-12.61,7.59-2.74,3.62-2.8,8.14-2.35,12.48,1.19,11.45,10.08,18.88,23.68,18.94Z"/>
    <path class="cls-3" d="M599.09,186.87c9.05.64,18.11-9.42,17.46-19.39-.69-10.71-10.54-20.99-20.33-21.23-3.6-.09-6.92.49-9.51,3.35-.67.74-1.61,2.26-2.76.8-.87-1.11.28-2.11,1.04-2.99,3-3.51,7.24-4.36,11.32-4.02,12.04,1,18.48,8.04,22.09,19.8,2.84,9.25-2.55,20.72-11.09,25.66-4.03,2.32-6.26,1.79-8.22-1.97Z"/>
    <path class="cls-40" d="M564.65,405.11c-1.33,1.22-2.75,2.36-3.97,3.69-3.9,4.26-4.32,10.37-.53,15,3.16,3.86,5.08,7.94,5.73,12.92.69,5.26,3.31,9.26,9.02,10.68,2.01.5,4.2,1.62,5.57,3.13,3.95,4.38,8.17,7.33,15.09,4.02-2.97,4.33-8.56,5.05-11.96,1.78-3.93-3.79-8.18-6.46-13.39-8.15-3.91-1.27-5.99-5.03-6.36-8.91-.57-5.89-2.87-10.65-6.5-15.23-4.51-5.69-2.08-15.48,4.14-19.18,1.31-.78,2.19-.15,3.22.32,0,0-.04-.06-.04-.06Z"/>
    <path class="cls-33" d="M256.74,814.02c-3,3.67-5.5,7.65-4.49,12.59.52,2.56,2.03,4.81,4.41,6.41,4.37,2.94,7.58,6.77,9.27,11.93,1.47,4.49,4.66,7.21,9.68,7.08,2.73-.07,5.52.33,7.62,1.85,4.74,3.44,9.5,4.28,14.97,1.08-1.53,4.37-4.62,6.18-8.83,4.3-5.6-2.51-11.28-4.23-17.3-5.34-4.37-.81-7.07-4.3-8.49-8.39-1.53-4.43-4.22-7.62-8.01-10.38-6.72-4.89-7.89-12.96-3.17-19.17,1.01-1.32,2.02-3.36,4.37-1.9,0,0-.04-.06-.04-.06Z"/>
    <path class="cls-38" d="M654.6,145.01c-1.12,12.14-6.43,20.94-17.03,26.22-1.11.55-2.71,1.77-3.46.15-.75-1.61,1.22-2,2.33-2.6,9.31-5.07,14.62-12.74,15.2-23.47.07-1.29-.27-2.85,1.38-3.39.99-.32,1.63,1.2,1.58,3.09Z"/>
    <path class="cls-69" d="M84.86,716.2c-.07,1.72-1.07,2.75-3.06,2.81-2.59.08-6.98-3.35-6.82-5.46.16-2.15,1.75-2.49,3.52-2.55,3-.11,6.29,2.43,6.36,5.19Z"/>
    <path class="cls-13" d="M60.84,686.17c-2.57.05-5.7,0-5.61-3.27.08-2.79,3.04-2.98,5.48-2.96,2.57.02,5.7-.02,5.6,3.3-.09,2.83-3.03,3.04-5.47,2.93Z"/>
    <path class="cls-54" d="M63.93,709.91c.09-2.1,1.37-2.93,3.28-2.87,2.73.08,4.31,1.57,4.62,4.27.21,1.82-.27,3.65-2.42,3.58-3.01-.1-4.71-2.12-5.48-4.98Z"/>
    <path class="cls-25" d="M104.89,699.09c-3-.3-4.4-2.49-4.93-5.19-.34-1.75.98-2.83,2.7-2.72,2.78.18,4.54,1.9,5.1,4.54.4,1.92-.71,3.1-2.86,3.37Z"/>
    <path class="cls-75" d="M337.06,19.75c-4.94,3.22-6.87,7.46-9.58,11.26-1.97-5.01,3.06-11.62,9.58-11.26Z"/>
    <path class="cls-49" d="M568.91,171.28c-1.04-.37-3.07.62-2.79-1.54.2-1.53,1.9-1.51,3.21-1.48,1.31.03,3.02.12,2.82,1.82-.2,1.78-2.09.87-3.24,1.21Z"/>
    <path class="cls-39" d="M576.38,181.57c-.99,1.6-2.14,3.16-4.25,3.52-.69.12-1.44-.5-1.15-1.15.81-1.82,2.09-3.31,4.19-3.67.69-.12,1.18.39,1.21,1.3Z"/>
    <path class="cls-4" d="M602.63,158.08c-.9.05-1.78-.11-1.63-.84.41-2.06,1.96-3.22,3.82-3.91.61-.22,1.54.08,1.41.83-.36,2.11-2.07,3.09-3.6,3.93Z"/>
    <path class="cls-18" d="M604.83,168.25c2.99-1.21,4.71-2.65,6.92-1.25.65.41.81,1.41.33,1.65-1.94.97-3.98.9-7.25-.4Z"/>
    <path class="cls-37" d="M585.3,192.12c-.8-.1-1.43-.52-1.26-1.25.29-1.25.52-2.73,2.07-3.07.31-.07,1.2.85,1.17,1.28-.08,1.32-.53,2.59-1.98,3.05Z"/>
    <path class="cls-3" d="M606.06,183.1c-1.01-.22-1.95-.59-2.08-1.77-.1-.91.68-1.1,1.32-1.05,1.04.09,1.94.59,2.08,1.74.11.91-.66.98-1.32,1.08Z"/>
    <path class="cls-63" d="M65.4,405.76c3.23.82,6.07.47,8.26-2.16-.46-1.56-1.27-1.24-2.04-.92-.92.38-1.72.15-2.05-.73-.42-1.11.64-1.29,1.33-1.69,12.74-7.41,19.98.72,20.32,10.86.28,8.15-1.02,15.9-7.62,21.78-2.64,2.35-5.28,4.07-8.96,2.59-1.48-.6-2.95-.45-4.32.36-4.99,2.94-9.11.48-12.64-2.59-7.84-6.8-10.15-15.82-8.7-25.76.97-6.66,11.1-10.3,16.57-6.48,2.68,1.87-.71,3.04-.14,4.73Z"/>
    <path class="cls-63" d="M126.91,417.01c.07,9.28-4.04,15.39-12.04,18.22-7.5,2.66-15.72.14-20.88-6.42-1.49-1.88-2.3-3.72-1.56-6.39,1.02-3.64,1.86-7.46,1.28-11.3-.58-3.91,1.37-6.55,4.27-8.31,6.41-3.89,13.37-4.2,19.97-.85,6.02,3.06,9.44,8.23,8.95,15.04Z"/>
    <path class="cls-52" d="M66.49,393.6c-.03,5.79-3.63,4.69-7.32,3.7-1.84-.49-3.99-.02-5.26,1.03-3.46,2.84-5.55.96-8-1.4-7.08-6.85-10.67-15.05-10.16-24.95.08-1.6-.26-3.31,2.19-3.78,1.98-.37,3.58-1.05,5.33.87,3.96,4.33,6.71,9.47,9.93,14.28,3.29,4.91,7.39,8.02,13.49,7.82,1.78-.06,3.2.62,4.56,1.66,1.17.89,2.9,1.52,2.24,3.37-.47,1.33-1.98,1.7-3.31,1.85-2.19.24-2.32-1.3-2.36-2.9-.01-.62-.02-1.35-1.36-1.54Z"/>
    <path class="cls-44" d="M77.43,395.06c-3.97-4.12-8.26-5.91-13.45-6.5-9.14-1.03-15.02-15.23-12.78-22.9.51-1.73,1.31-3.41,3.66-3.51,2.06-.08,4.02-.11,5.33,1.84.55.83,1.16,1.65,1.53,2.56,2.98,7.16,7.46,13.17,13.25,18.34,2.7,2.41,3.27,5.86,2.45,10.16Z"/>
    <path class="cls-6" d="M101.54,384.42c2.41-5.48,3.85-10.02,3.2-14.93-.17-1.3-.2-3.09-1.97-2.79-1.48.26-.91,1.93-.62,2.95,1.49,5.28-.99,9.75-2.99,14.23-.87,1.95-2.57,3.47-5.15,3.23-1.52-.14-2.96.13-4.14,1.29-.93.92-2.05,2.21-3.38,1.11-1.43-1.18-.84-3.04.19-4.02,5.97-5.65,8.91-12.96,11.86-20.38,1.29-3.24,4.53-2.64,6.63-.81,5.67,4.95,4.14,15.62-3.63,20.11Z"/>
    <path class="cls-44" d="M80.3,394.27c-1-5.9-1.52-11.03-2.81-15.96-1.12-4.28,0-8.22.52-12.29.15-1.18,1.62-2.98-.19-3.36-1.86-.39-1.72,1.81-2.11,3.21-1.05,3.75-.89,7.56-.91,11.37,0,.92.35,2.22-1.04,2.39-1.06.13-1.78-.81-2.29-1.65-2.09-3.39,1.37-16.5,4.83-18.45,2.98-1.69,6.44.16,6.37,3.58-.09,4.53.16,8.92,2.24,13.08,1.45,2.9,2.14,5.66-.67,8.53-2.24,2.3-.29,6.59-3.95,9.54Z"/>
    <path class="cls-6" d="M126.79,388.58c.27-3.55,2.43-4.65,5.72-4.57,3.12.08,5.28,1.34,5.15,4.61-.13,3.39-2.12,5.52-5.7,5.42-3.38-.09-4.98-2.15-5.17-5.46Z"/>
    <path class="cls-71" d="M140.84,399.55c-.02,3.76-1.58,5.66-5.14,5.6-3.21-.06-4.77-1.67-5.01-4.91-.35-4.73,3.65-4.28,6.14-4.79,2.85-.59,3.86,1.85,4.01,4.11Z"/>
    <path class="cls-52" d="M127.88,399.35c-.5,1.72,1.17,5.19-2.45,4.55-3.03-.54-5.71-2.74-5.64-6.43.05-2.63,1.69-4.61,4.38-4.24,3.28.44,4.69,2.71,3.71,6.13Z"/>
    <path class="cls-17" d="M143.63,410.39c-.4,3.29-2.23,5.16-5.35,5.62-2.01.3-3.6-.68-4.22-2.6-.46-1.4,4.44-6.79,6.05-6.87,2.78-.14,2.8,2.19,3.52,3.85Z"/>
    <path class="cls-15" d="M144.8,397.07c2.88.73,3.7,2.61,3.83,4.61.14,2.19-.4,4.7-2.99,4.96-1.64.17-3.22-1.69-2.61-3.44.7-1.98-.06-4.61,1.76-6.13Z"/>
    <path class="cls-48" d="M122.67,385.36c1.81-.16,2.07.9,2.06,2.16,0,3.44-3.03,3.98-5.22,5.04-1.74.85-1.67-.95-1.67-2.01,0-3.29,2.45-4.31,4.83-5.19Z"/>
    <path class="cls-2" d="M128.67,379.78c-.54,2.03-1.4,3.57-3.97,3.45-1.98-.09-3.11-.68-2.97-2.87.15-2.24,1.36-3.2,3.5-3.21,1.8,0,3.26.45,3.43,2.63Z"/>
    <path class="cls-22" d="M106.9,390.14c-1.09.1-2.09-.59-2.06-2.52.03-2.16,1.04-3.31,3.22-3.48,1.83-.14,2.74.57,2.72,2.48-.02,2.16-.97,3.36-3.88,3.52Z"/>
    <path class="cls-46" d="M130.77,411.14c-2.26-.19-3.55-1.44-3.75-3.4-.17-1.68,1.6-2.43,2.68-2.14,1.73.46,4.28.89,4.51,2.89.18,1.55-1.76,2.56-3.44,2.65Z"/>
    <path class="cls-42" d="M118.81,383.72c-.88,1.8-1.69,4.1-3.7,4.82-1.41.51-2.1-1.5-2.1-2.73,0-2.06.8-4,3.08-4.5,1.55-.34,2.42.72,2.71,2.4Z"/>
    <path class="cls-9" d="M139.76,390.71c.49-.98-.86-3.58,1.87-3.33,2.2.2,3.19,2.03,3.23,4.27.03,1.94-1.01,2.61-2.79,2.5-2-.13-3.15-.9-2.3-3.43Z"/>
    <path class="cls-43" d="M92.92,395c-1.59-.04-3.07-.51-2.96-2.44.13-2.08,1.57-3.2,3.6-3.37,1.78-.15,2.19,1.03,2.22,2.53.04,1.96-.76,3.14-2.86,3.28Z"/>
    <path class="cls-28" d="M103.86,397.9c-1.7.11-2.22-.88-2.02-2.16.35-2.2,1.73-3.47,4.01-3.5,1.54-.02,1.75,1.1,1.83,2.34.21,2.98-2.34,2.57-3.83,3.31Z"/>
    <path class="cls-14" d="M111.64,396.99c-1.86-.15-1.84-1.37-1.84-2.53,0-2.02.9-3.54,2.93-3.92,1.06-.2,2.06.79,1.76,1.79-.54,1.79-1.11,3.72-2.85,4.65Z"/>
    <path class="cls-12" d="M102.73,389.51c-.36,1.75-1.44,3.17-3.42,3.43-1.28.17-1.54-1.02-1.45-2.04.18-2.02,1.29-3.39,3.34-3.6,1.29-.13,1.52.95,1.53,2.21Z"/>
    <path class="cls-77" d="M130.27,414.84c1.45,1.42,4.64,1.36,3.83,4.28-.32,1.17-1.83,2.5-3.14,1.73-2.37-1.38-.84-3.82-.69-6.01Z"/>
    <path class="cls-51" d="M132.2,380.55c1.48-1.8,3.02-1.52,4.41-1.26,1.52.29,2.56,1.39,2.97,2.91.11.39-.03,1.13-.31,1.3-1.57.95-2.17-.9-3.3-1.29-1.21-.42-2.35-1.03-3.77-1.66Z"/>
    <path class="cls-58" d="M99.52,397.88c-.3,1.75-1.36,2.74-2.91,3.09-1.26.28-1.83-.54-1.82-1.72.01-1.71.78-2.9,2.59-3.04,1.16-.09,1.75.71,2.14,1.67Z"/>
    <path class="cls-60" d="M334.71,864.09c0,.94-.01,1.88-.02,2.82-7.55-1.71-13.81-6.25-20.69-9.42-5.82-2.68-12.07-4.4-17.32-8.42-2.31-1.78-5.54-2.27-8.6-1.99-5.83.54-9.48-2.55-11.89-7.33-1.95-3.86-4.49-6.87-8.44-8.81-3.92-1.92-5-5.6-4.93-9.63.05-2.8-.73-5.13-2.47-7.35-6.34-8.11-2.76-18.91,7.4-21.23,4.8-1.09,9.52-2.74,14.6-2.87,3.97-.1,6.95,1.75,7.89,4.89,1.95,6.45,6.63,9.7,12.03,12.5,4.22,2.19,6.98,5.3,7.85,10.22.96,5.45,2.84,10.48,8.08,13.64,2.08,1.25,3.52,3.25,3.69,6.14.3,4.95,3.87,7.95,7.55,10.6,3.36,2.41,5.57,5.52,7.65,10.31-9.01-3.97-15.92-9.19-22.96-14.22-3.89-2.78-6.26-5.98-5.53-11.15.38-2.71-.83-5.31-3.46-7.16.22,2.55.48,5.09.64,7.64.05.78.22,1.75-.7,2.2-.95.46-1.53-.36-2.12-.88-3.09-2.78-6.27-5.48-9.2-8.42-1.75-1.75-.93-4.06-.48-6.17.88-4.16-.61-7.85-2.04-11.62-.88,4.43.27,8.89-.62,12.24-4.46-3.91-9.01-7.94-13.61-11.92-1.31-1.13-2.56-3.63-4.42-2.27-2.14,1.57-.2,3.52.84,5.17.98,1.54,1.83,3.16,2.84,4.67,3.07,4.59,2.88,5.02-2.73,5.77-.8.11-1.67-.03-2.36,1.2,1.8,1.63,4.23,1.28,5.88.61,3.7-1.5,5.34.19,7.3,2.91,1.93,2.67,4.59,4.81,6.89,7.21.78.82,2.21,1.57,1.83,2.77-.48,1.53-2.17,1.17-3.47,1.27-1.11.09-2.35-.36-3.48,1.07,2.62,1.6,5.38,1.36,7.92.6,2.06-.62,3.36-.26,4.92,1.09,10.82,9.43,22.41,17.71,35.74,23.3Z"/>
    <path class="cls-60" d="M337.7,849.04c-.67.34-1.35.69-2.02,1.03-5.52-4.47-11.76-8.37-12.32-16.59-.07-1-.97-2.31-1.86-2.84-5.76-3.41-8.35-8.65-9.46-15.01-1.17-6.75-6.89-9.29-11.95-12.49-10.02-6.34-11.55-16.16-3.74-24.12.95-.96,1.93-1.8,3.32-2.09,6.64-1.39,13.44-1.59,20.14-2.52,3.68-.51,6.91,3.1,7.85,7.21,1.52,6.66,4.62,12.33,9.29,17.31,4.12,4.4,2.67,9.68,1.36,14.66-.77,2.93-.74,5.73.53,8.27,2.81,5.62,4.2,11.39,4.18,17.73,0,4.08,1.42,8.16,3.03,12.01.73,1.75.82,3.58-.97,4.35-2.19.93-2.16-1.53-2.6-2.63-6.65-16.9-14.72-33.09-23.88-48.76-1.47-2.52-3.94-4.48-4.12-7.77,10.56,12.63,17.13,27.71,24.9,42.19,2.12-1.55.92-2.74.41-3.77-3.08-6.26-6.01-12.61-9.44-18.67-1.48-2.61-1.97-4.74-.65-7.42,1.35-2.74,1.45-5.62.35-9.4-2.15,3.12-1.9,6.17-3.13,9.88-2.72-4.07-5.02-7.5-7.32-10.94-2.42-3.62-5.09-7.02-8.71-9.51-1.05-.72-2.33-1.59-3.55-.16-1.12,1.31-.49,2.51.41,3.57,1.51,1.77,2.97,3.55,3.36,6.26-2.34.18-4.58.35-7.19.55,1.34,2.74,3.55,2.86,5.59,2.56,3.81-.55,5.8,1.4,7.39,4.45,2,3.83,4.11,7.61,6.29,11.34,3.39,5.83,3.43,5.8-2.71,6.67-.15,1.1.77,1.63,1.45,1.52,6.23-.96,7.97,3.51,9.6,7.93,1.9,5.14,4.95,9.8,6.19,15.19Z"/>
    <path class="cls-44" d="M273.75,784.3c-.25-3.61.67-7.11,4.23-8.24,7.01-2.23,12.91-6.66,19.64-9.31,4.72-1.86,9.14-.27,12.97,2.8.81.65,2.16,1.4,1.49,2.8-.51,1.07-1.74.71-2.69.75-1.83.09-3.69-.12-5.48.18-6.55,1.1-11.26,4.54-13.41,11.06-.96,2.9-2.18,5.22-5.97,3.2-1.85-.99-3.86-.26-5.81.34-4.97,1.52-4.99,1.47-4.98-3.58Z"/>
    <path class="cls-29" d="M620.59,467.29c-.01,1.32-.82,1.8-2,1.86-7.06-7.23-16.57-11.54-23.04-19.53-2-2.47-5.24-3.65-8.3-4.33-5.16-1.14-8.16-4.27-9.46-9.14-1.32-4.93-3.36-9.31-7.3-12.77-3.12-2.74-2.17-6.55-1.36-9.83.7-2.84.28-5.29-.78-7.74-3.78-8.73,1.68-18.24,11.1-18.55,5.45-.18,10.97.25,16.37.99,3.33.46,5.47,2.96,5.84,6.54.56,5.4,2.91,9.79,7.19,13.16,5.25,4.13,7.63,9.42,6.83,16.18-.54,4.49.71,8.48,3.85,11.93,1.54,1.69,3.31,3.68,2.94,6.15-.98,6.39,2.03,11.13,5.67,15.84,1.85,2.4,5.03,5.84,2.67,8.16-1.57,1.54-4.19-2.75-6.07-4.62-3.64-3.63-7.08-7.49-10.32-11.49-3.26-4.02-7.17-7.85-4-14.05,1-1.96.68-4.88-.52-8.02-2.27,3.51-.77,7.51-3.07,10.71-4.19-3.4-6.35-8.25-8.98-12.68-.98-1.65.21-3.53.76-5.28,1.23-3.92,2.62-7.83,1.61-12.66-4.3,3.54-.67,9.63-5.18,12.62-3.31-3.59-4.98-8.15-7.27-12.32-.56-1.02-.88-2.24-1.64-3.07-1.25-1.36-1.63-4.68-3.98-3.64-2.71,1.19-1.38,3.97-.58,6.16.06.16.11.32.17.47q2.99,7.88-4.85,9.55c1.22,2.14,3.3,2.72,5.02,2.1,4.13-1.48,4.97,1.19,6.31,3.98,1.43,2.97,3.42,5.67,5.05,8.55.63,1.11,1.86,2.33,1.07,3.64-.95,1.58-2.64.91-4.07.62-.76-.15-1.5-.69-2.43.41,1.5,1.7,3.74,3.11,5.48,2.55,3.72-1.19,5.11.94,6.75,3.31,6.04,8.76,13,16.74,20.54,24.23Z"/>
    <path class="cls-21" d="M634.64,459.12c-.69.35-1.37.69-2.06,1.04-1.62-2.3-3.15-4.66-4.87-6.88-2.24-2.88-3.53-5.98-3.04-9.7.39-2.95-.13-5.83-2.34-7.84-4.32-3.92-4.58-9.1-4.47-14.18.12-5.59-1.64-9.91-5.8-13.64-3.65-3.27-7.15-6.45-7.69-12.23-.9-9.67,6.29-17.17,15.99-15.39,4.41.81,8.76,1.75,13.28,1.86,4.13.11,7.89,4.24,7.84,9.4-.07,6.7,1.43,12.76,4.61,18.62,1.81,3.33,1.94,6.85-.11,10.46-3.3,5.82-4.5,12-2.61,18.71.65,2.32.82,5.21,0,7.41-2.04,5.52-1.74,11.11-1.67,16.76.02,1.61.35,3.97-1.75,4.05-2.04.07-1.91-2.48-2.07-3.92-1.76-15.85-4.97-31.4-9.25-46.74-1.41-5.04-3.13-10-4.15-15.17,7.73,15.11,9.79,32.03,15.03,47.98,1.59-3.28-.06-6.31-.42-9.38-.25-2.12-1.01-4.19-1.59-6.27-1.84-6.64-4.53-13.26,1.09-19.57.71-.8,1.8-2.57.07-4.18-2.45.91-1.99,3.56-2.99,5.28-.41.71-.51,1.81-1.43,1.83-1.27.04-1.27-1.19-1.58-2.12-2.31-6.91-3.94-14.1-8.76-19.93-1.13-1.36-2.15-2.93-4.01-2.01-2.34,1.15-.45,2.84-.07,4.28.21.8.67,1.53.86,2.33.28,1.21,1.62,2.51.3,3.67-1.13,1-2.48.3-3.74-.18-.98-.38-1.91-1.55-3.33-.37,1.18,2.95,4.13,3.19,6.51,3.69,2.4.5,3.31,1.78,3.89,3.82,1.6,5.58,3.28,11.14,4.84,16.74.84,2.99,1.3,5.83-3.4,3.4-.89-.46-1.94-.9-2.56.27-.17.32.44,1.51.79,1.56,9.7,1.31,7.72,9.71,9.37,15.72.95,3.47.91,7.22,1.31,10.84Z"/>
    <path class="cls-52" d="M615.86,369.16c4.62.66,8.89,1.81,11.67,5.86.64.93,1.47,2,.81,3.21-.72,1.32-2.07,1-3.1.6-10-3.93-17.03-.12-22.19,8.48-.87,1.44-1.74,1.32-2.79.54-2.79-2.08-5.93-2.87-9.36-2.67-2.75.16-3.24-.8-2.67-3.6.94-4.63,3.05-8.11,7.87-8.21,6.11-.13,11.76-1.75,17.43-3.64.78-.26,1.6-.39,2.33-.56Z"/>
    <path class="cls-32" d="M59.13,628.21c5.51,3.88,11.85.33,18.32-.95,1.11-.22,2.57-.38,3.44.14,5.56,3.33,12.21,3.21,17.95,5.86.87.4,1.95.99,2.3,1.78,1.5,3.32,4.1,5.05,7.47,6.04,1.47.43,2.64,1.57,3,3.12.33,1.42.83,3.22-.42,4.23-1.16.94-1.89-.85-2.88-1.28-3.7-1.63-4.7.75-4.36,3.55.54,4.32-3.09,3.14-4.93,3.98-1.81.82-3.57.74-4.44-2.16-.95-3.15-4.08-3.33-5.25-.18-1.66,4.49-4.64,5.13-8.58,4.76-3.36-.31-7.33,1.6-9.26-3.38-.97-2.49-3.58-1.47-4.31.17-1.61,3.63-4.42,3.42-7.44,3.26-3.15-.16-6.33-.13-9.46-.52-2.2-.27-4.27-.57-4.64-3.94-.36-3.3-2.72-3.27-4.99-1.02-3.3,3.26-12.85,1.19-14.57-3.18-.63-1.6-.78-3.56.69-4.65,9.19-6.85,18.19-14.13,30.17-15.62.33-.04.67,0,2.21,0Z"/>
    <path class="cls-65" d="M108.72,637.83c1.82.46,2.49.5,3.03.79,3.97,2.05,8.71,3.89,8.94,9.04.25,5.57-4.84,7.2-8.9,8.86-10.06,4.11-20.61,6.27-31.49,6.56-16.25.42-32.53.9-48.32-4.14-3.79-1.21-7.59-2.45-10.93-4.73-5.8-3.96-5.87-9.2-.16-13.11.82-.56,1.6-1.42,2.5-1.6,2.36-.45,5.44-3.7,6.6-1.69,1.58,2.72-2.67,2.73-4.31,4-3.37,2.63-3.61,6.31-.38,9.33,5.18,4.84,12.01,5.69,18.47,6.66,19.66,2.94,39.33,2.97,58.78-1.84,1.6-.4,3.19-.97,4.7-1.63,8.37-3.65,9.24-9.45,1.46-16.5Z"/>
    <path class="cls-44" d="M16.86,655.36c34.78,14.06,69.14,14.35,103.75-.03-.93,4.42-5.23,5.99-8.72,7.33-10.09,3.88-20.68,5.81-31.52,6.48-14.97.92-29.8.39-44.42-3.16-5.48-1.33-10.98-2.75-15.61-6.23-1.58-1.18-3.26-2.33-3.48-4.39Z"/>
    <path class="cls-44" d="M99.27,668.87c-12.94,9.66-49.65,9.71-60.81.03,20.59,3.83,40.02,3.91,60.81-.03Z"/>
    <path class="cls-29" d="M596.77,687.28c8.8,9.06,16.37,17.97,20.12,29.45.97,2.98,2.08,5.97,2.58,9.04.25,1.53,1.81,3.71-.49,4.92-2.04,1.08-4.22,1.83-6.56.28-9.07-6-15.01-14.04-17.89-24.69-1.81-6.7,1.42-12.26,2.24-19Z"/>
    <path class="cls-29" d="M599.18,684.69c4.17,2.65,8.78,3.61,13.44,4.42,4.55.79,7.77,3.71,10.53,7.04,5.7,6.87,8.33,14.78,7.63,23.82-.33,4.29-3.69,5.6-6.4,7.6-1.07.79-2.26.51-2.6-1.09-3.21-15.01-10.76-27.59-21.45-38.43-.73-.74-1.42-1.8-1.15-3.36Z"/>
    <path class="cls-6" d="M593.07,730.42c-5.68-1.46-10.75-7.81-11.41-13.98-.78-7.29,1.3-13.87,5.11-19.87,2.88-4.53,5.9-8.85,4.65-15.95,2.48,2.93,3.49,5.06,2.97,7.3-1.92,8.27-3.66,16.34.18,24.7,3.6,7.85,8.65,14.36,15.6,19.75-9.12,1.81-13.91-.42-18.61-8.68-3.42-6.02-5.49-12.38-4.04-19.45.13-.63,0-1.32-.75-1.64q-3.82,4.69,6.29,27.8Z"/>
    <path class="cls-27" d="M601.01,681.49c7.05.93,14.04,1.14,20.64,2.87,15.68,4.12,18.76,15.99,14.56,29.37-.32,1.02-.7,2.65-2.01,2.57-1.81-.11-1.32-1.9-1.54-3.13-2.31-13.14-9.08-25.68-25.62-27.33-2.32-.23-5.37-.63-6.02-4.35Z"/>
    <path class="cls-5" d="M577.39,643.76c6.62,8.53,10.76,18.39,15.12,28.32-4.17-2.15-13.64-19.44-15.12-28.32Z"/>
    <path class="cls-29" d="M94.37,127.06c4.85,8.06,11.85,13.2,15.79,20.86,3.14,6.11,5.19,12.57,7.32,19.02.56,1.71.77,3.7-1.18,4.93-1.75,1.1-3.55,1.69-5.64.68-10.48-5.08-23.4-25.04-17.57-38.23.83-1.88.76-4.15,1.28-7.26Z"/>
    <path class="cls-29" d="M96.24,125.07c4.05,2.68,7.29,3.68,10.69,4.36,12.31,2.46,18.32,10.78,20.92,22.43,1.32,5.91,1.98,11.3-3.72,15.64-2.79,2.12-4.2,2.77-5.22-1.28-1.3-5.13-2.79-10.18-5.04-15.03-3.11-6.7-7.34-12.55-12.43-17.83-1.96-2.03-3.68-4.18-5.19-8.29Z"/>
    <path class="cls-6" d="M90.72,170.34c-2.38,1.56-3.36-.18-4.51-1.23-8.88-8.11-9.85-18.83-2.53-30.18,2.98-4.62,6.03-9.13,6.38-15.35,2.7,2.28,2.1,5.12,1.51,7.05-5.26,17.23,1.96,29.99,14.21,41.06.49.44,1.1.76,1.77,1.21-4.44,2.66-6.4,2.78-10.22.29-7.97-5.19-11.52-12.95-12.54-22.13-.27-2.41.6-4.92-1.13-8.37-2.73,11.27,1.36,19.69,7.05,27.65Z"/>
    <path class="cls-27" d="M131.19,158.65c-2.02-12.91-5.91-24.06-18.59-29.56-1.95-.85-4.07-1.71-6.14-1.78-4.11-.14-6.79-2.16-9.39-5.92,7.4,3.29,14.87,2.33,21.98,3.82,15.49,3.26,22.15,20.8,12.15,33.44Z"/>
    <path class="cls-8" d="M74.46,83.93c6.62,8.95,11.49,18.81,14.97,29.38-7.3-8.61-11.36-18.88-14.97-29.38Z"/>
    <path class="cls-61" d="M290.51,54.56c2.48.14,3.09,1.71,4.17,2.61,1.16.96,2.84,1.63,3.48.36,1.88-3.79,7.2-4.73,7.68-9.98,2.25,2.03,5.29,3.34,5.41,6.39.35,8.66,7.12,12.7,12.39,17.69,11.32,10.72,22.93,21.13,34.37,31.71.88.81,2.62,1.67,1.64,3.16-.77,1.18-2.45.58-3.75.53-1.28-.05-2.06-.99-2.9-1.78-10.92-10.19-21.82-20.4-32.75-30.58-3.03-2.82-6.17-5.53-9.21-8.34-1.44-1.33-3.35-1.99-5.01-1.91-7.43.37-10.71-5.21-15.52-9.87Z"/>
    <path class="cls-27" d="M116.68,714.21c-12.63-.86-25.5-2.81-36.11-9.38-6.15-3.81-13.43-5.22-19.17-10.31-2.68-2.38-7.58-5.66-12.7-5.04-.75.09-1.34-.29-1.43-1.03-.15-1.18.82-1.47,1.6-1.29,2.25.53,4.48,1.18,6.68,1.92,16.79,5.64,34.3,9.19,50.32,17.07,3.94,1.94,7.59,4.49,11.37,6.76-.18.43-.36.87-.55,1.3Z"/>
    <path class="cls-16" d="M60.26,714.36c-7.74-4.25-14.68-9.35-20.3-16.08-.63-.76-1.27-1.53-1.8-2.36-1.08-1.68-4.46-3.07-2.66-4.97,1.04-1.1,4.53.82,6.13,2.57,5.56,6.08,11.82,11.52,16.57,18.34.62.89,1.38,1.67,2.08,2.51Z"/>
    <path class="cls-23" d="M13.94,663.28c6.44,7.85,14.57,13.6,23.41,18.78-6.28,1.49-19.6-8.94-23.41-18.78Z"/>
    <path class="cls-30" d="M69.94,691.07c9.36-1.34,18.78-2.6,29.3-5.01-9.67,7.91-19.8,4.25-29.3,5.01Z"/>
    <path class="cls-68" d="M56.57,698.19c-.49.33-.63.5-.75.49-3.49-.44-4.6-3.28-5.82-5.92-.25-.54.34-1.55,1.03-1.23,2.89,1.37,4.69,3.67,5.54,6.66Z"/>
    <path class="cls-51" d="M48.75,696.31c-3.68-.49-5.47-2.43-5.86-5.67-.09-.72.57-1.46,1.16-1.16,2.69,1.41,4.38,3.56,4.7,6.82Z"/>
    <path class="cls-7" d="M63.75,700.24c-.11.81-.27,1.78-1.05,1.46-2.35-.96-4.02-2.72-4.69-5.21-.2-.73.62-1.37,1.21-1.05,2.06,1.1,3.67,2.7,4.53,4.8Z"/>
    <path class="cls-55" d="M594.25,124.71c1.15-2.88,5.53-3.94,4.89-6.67-.81-3.45-5.03-.95-7.42-2.31-1.52-.87-4.24-.48-4.48-2.5-.26-2.14,2.41-2.36,3.89-3.22,4.98-2.9,10.01-5.09,15.96-2.25,3.39,1.62,4.51-.19,4.74-3.74.29-4.6.28-9.46,3.83-14.33,0,4.84-.16,8.65.04,12.45.29,5.57,2.12,6.95,7.15,5.07,8.28-3.1,13.69,2.76,20.9,6.01-3.6,2.26-6.82,2.94-10.23,3.04-1.34.04-2.9-.03-3.51,1.35-.69,1.56.84,2.38,1.81,3.18,1.27,1.05,2.71,1.88,4.33,2.98-4.32,3.19-7.72,2.22-10.99,1.29-2.5-.72-4.04-.68-4.59,2.44-.49,2.78-1.64,6.33-4.26,6.83-2.69.51-4.83-3.03-5.73-5.2-2.18-5.3-5.76-4.93-9.93-3.69-2.16.64-4.21,1.04-6.39-.72Z"/>
    <path class="cls-56" d="M114.27,403.27c-2.63,2.57-5.34,2.68-8.67-.57,3.32-.5,5.96.92,8.67.57Z"/>
    <path class="cls-74" d="M38.21,370.27c.92,11.22,6.49,19.6,15.64,25.86-9.83-1.07-18.68-16.72-15.64-25.86Z"/>
    <path class="cls-19" d="M54.88,364.66c1.79,8.74,5.45,16.35,14.06,22.03-8.63-.66-16.25-13.32-14.06-22.03Z"/>
    <path class="cls-47" d="M324.8,786.22c-2.73-6.31-7.94-6.82-13.63-6.57,2.93-2.37,5.97-3.43,9.26-1.65,2.89,1.57,5.27,3.71,4.37,8.23Z"/>
    <path class="cls-66" d="M289.71,776.03c4.38-6.12,9.3-7.94,14.57-5.63-5.56.09-9.92,3.17-14.57,5.63Z"/>
    <path class="cls-57" d="M625.97,385.32c8.29-2.06,13.55,2.35,11.44,9.81-.26-7.7-6.48-7.88-11.44-9.81Z"/>
    <path class="cls-70" d="M606.22,376.61c3.61-3.73,8.01-4.89,12.91-4.37,1.04.11,2.05.56,2.08,1.71.03,1.08-1.02,1.2-1.83,1.12-4.48-.47-8.73.72-13.16,1.54Z"/>
    <path class="cls-41" d="M67.85,637.6c-.17,2.93-1.67,3.64-3.74,3.48-2.45-.19-4.11-1.52-4.21-3.99-.1-2.28,1.36-4,3.63-3.72,2.47.31,3.73,2.39,4.33,4.22Z"/>
    <path class="cls-59" d="M55.76,649.8c-.75,2.37-2.38,3.49-4.87,3.28-2.25-.2-4.03-1.38-3.82-3.7.21-2.35,2.46-3.18,4.47-3.07,1.96.11,3.92.93,4.22,3.5Z"/>
    <path class="cls-76" d="M76.76,634.01c2.8,0,4.26.97,3.99,3.29-.29,2.49-1.99,3.74-4.47,3.81-2.2.06-3.62-.98-3.38-3.28.27-2.52,2.05-3.63,3.86-3.81Z"/>
    <path class="cls-72" d="M89.86,643.02c-.23,2.3-1.59,3.76-4.05,4.04-2,.22-3.81-.29-3.91-2.69-.13-3.03,2.26-3.83,4.57-4.25,1.89-.34,3.17.66,3.39,2.91Z"/>
    <path class="cls-34" d="M102.72,643.46c-.48,2.45-2.14,3.82-4.43,3.99-1.83.14-3.67-.38-3.59-3,.09-2.79,2.05-3.73,4.21-4.1,2.15-.38,3.27,1.13,3.82,3.12Z"/>
    <path class="cls-25" d="M54.87,637.01c2.36.25,4.06,1.83,4.68,4.11.55,1.99-.97,2.94-2.87,3.03-2.69.13-4.42-1.17-4.8-3.82-.28-1.92.78-3.08,3-3.32Z"/>
    <path class="cls-62" d="M43.87,641.12c.03,2.75-.26,4.98-3.3,4.9-2.4-.06-2.83-1.87-2.84-3.88-.02-2.25.6-3.96,3.22-4.13,2.58-.16,3.07,1.43,2.92,3.11Z"/>
    <path class="cls-31" d="M72.14,650.8c-1.79-.23-3.23-1.22-3.2-3.06.05-2.78,2.36-3.93,4.63-4.29,1.62-.25,3.32.69,3.21,2.84-.15,2.82-2.41,3.65-4.64,4.51Z"/>
  </g>
</svg>