<?xml version="1.0" encoding="UTF-8"?>
<svg id="Capa_1" data-name="Capa 1" xmlns="http://www.w3.org/2000/svg" viewBox="0 0 633.02 562.97">
  <defs>
    <style>
      .cls-1 {
        fill: #a5d3b3;
        stroke-width: 0px;
      }

      .cls-2 {
        letter-spacing: 0em;
      }

      .cls-3 {
        fill: #024f91;
        font-family: FranklinGothic-DemiCond, 'Franklin Gothic Demi Cond';
        font-size: 155.39px;
        font-weight: 300;
      }

      .cls-4 {
        letter-spacing: -.02em;
      }
    </style>
  </defs>
  <g>
    <path class="cls-1" d="M593.74,122.85c-3.83-5.87-11.75-7.23-16.81-2.93l-1.39,1.18c-4.39,3.73-4.91,10.34-1.39,15.3,1.02,1.43,1.98,2.9,2.95,4.36l-14.82,5.65C514.46,59.16,421.78,0,315.27,0,159.81,0,33.78,126.02,33.78,281.48c0,17.86,1.68,35.32,4.86,52.25l-14.26,5.05c-.21-1.74-.42-3.48-.58-5.23-.53-6.06-5.21-10.76-10.97-10.76h-1.83c-6.64,0-11.8,6.16-10.91,13.12,2.62,20.64,10.84,62.52,36.18,103.01,2.98,4.76,8.82,6.54,13.74,4.18h0c5.98-2.86,8.28-10.56,4.92-16.53-1.24-2.2-2.59-4.69-4.03-7.44l15.95-5.18c47.39,88.66,140.84,149,248.4,149,155.46,0,281.48-126.02,281.48-281.48,0-18.85-1.87-37.26-5.4-55.07l17.59-7.24c.69,3.03,1.26,5.81,1.74,8.28,1.31,6.72,8.04,11.1,14.45,9.4h0c5.28-1.39,8.58-6.53,7.76-12.09-6.92-47.27-27.79-84.5-39.16-101.92ZM45.3,407.8c-6.92-14.76-14.34-33.83-18.57-54.57l15.11-4.69c4.62,18.92,11.15,37.09,19.38,54.29l-15.92,4.97ZM315.27,536.53c-140.86,0-255.05-114.19-255.05-255.05S174.41,26.44,315.27,26.44s255.05,114.19,255.05,255.05-114.19,255.05-255.05,255.05ZM588.64,214.21c-4.64-18.93-11.18-37.11-19.44-54.32l15.46-6.6c10.21,18.54,16.91,37.88,21.2,53.61l-17.22,7.32Z"/>
    <path class="cls-1" d="M315.27,34.52c-136.54,0-247.23,110.69-247.23,247.23s110.69,247.23,247.23,247.23,247.23-110.69,247.23-247.23S451.81,34.52,315.27,34.52ZM149.08,116.97l-65.61,133c6.95-51.58,30.72-97.79,65.61-133ZM81.34,281.48c0-.15,0-.3,0-.46l91.13-184.73c11.32-8.74,23.45-16.49,36.28-23.06l-123.55,250.44c-2.5-13.69-3.87-27.78-3.87-42.19ZM89.31,342.1L225.87,65.28c10.11-4.19,20.57-7.71,31.33-10.46L100.08,373.33c-4.3-10.07-7.89-20.5-10.77-31.23ZM106.26,386.52c.47-.34.88-.76,1.16-1.31L271.99,51.62c9.47-1.77,19.13-2.99,28.97-3.59L121.27,412.25c-5.55-8.21-10.53-16.82-15.01-25.73ZM129.12,423.11L314.37,47.58c.3,0,.6-.02.9-.02,8.47,0,16.83.48,25.07,1.35l-194.34,393.94c-5.98-6.27-11.62-12.84-16.88-19.74ZM154.63,451.45c.36-.31.67-.71.9-1.17L352.71,50.57c10.43,1.68,20.63,4.04,30.55,7.05l-204.22,413.97c-8.59-6.17-16.75-12.9-24.42-20.15ZM188.93,478.32L394.61,61.38c7.93,2.86,15.66,6.14,23.17,9.8l-206.99,419.59c-7.53-3.77-14.82-7.93-21.86-12.46ZM221.51,495.81L428.28,76.66c6.92,3.83,13.61,8,20.08,12.48l-204.75,415.05c-7.54-2.43-14.91-5.23-22.1-8.38ZM279.69,512.72c-8.34-1.27-16.52-3.02-24.55-5.15L458.05,96.24c6.57,5.07,12.86,10.49,18.85,16.22l-196.93,399.2c-.17.34-.22.7-.28,1.06ZM482.36,445.1l64.54-130.83c-7.11,50.63-30.43,96.03-64.54,130.83ZM549.2,281.48c0,.48-.02.95-.03,1.43l-90.38,183.21c-12.09,9.4-25.11,17.67-38.92,24.59l125.08-253.55c2.75,14.35,4.25,29.16,4.25,44.32ZM540.7,219.03l-137.81,279.35c-9.61,3.89-19.52,7.2-29.71,9.79l157.21-318.69c4.08,9.53,7.51,19.41,10.31,29.54ZM523.95,175.8l-164.08,332.6c-.44.89-.47,1.87-.2,2.74-8.84,1.7-17.86,2.88-27.03,3.55l178.28-361.4c4.75,7.23,9.09,14.74,13.02,22.5ZM319.14,515.32c-1.29.02-2.57.1-3.87.1-7.89,0-15.69-.4-23.38-1.17L485.71,121.35c6.21,6.61,12.07,13.55,17.49,20.85l-184.07,373.12Z"/>
  </g>
  <text class="cls-3" transform="translate(110.91 322.42) scale(.76 1)"><tspan class="cls-4" x="0" y="0">K</tspan><tspan class="cls-2" x="79.67" y="0">OMALLI</tspan></text>
</svg>