<?xml version="1.0" encoding="utf-8"?>
<!-- Generator: Adobe Illustrator 27.2.0, SVG Export Plug-In . SVG Version: 6.00 Build 0)  -->
<svg version="1.1" id="Capa_1" xmlns="http://www.w3.org/2000/svg" xmlns:xlink="http://www.w3.org/1999/xlink" x="0px" y="0px"
	 viewBox="0 0 595.28 527.64" style="enable-background:new 0 0 595.28 527.64;" xml:space="preserve">
<style type="text/css">
	.st0{fill:#1E538F;}
	.st1{fill:#1D539A;}
</style>
<g>
	<path class="st0" d="M570.98,470.27L320.45,27.01c-10.44-18.48-35.18-18.48-45.62,0L24.3,470.27
		c-10.94,19.35,1.9,44.22,22.81,44.22h501.05C569.08,514.49,581.91,489.62,570.98,470.27z M535.92,492.6H59.35
		c-8.04,0-12.99-9.52-8.84-16.99L288.79,46.69c4.01-7.23,13.67-7.23,17.69,0l238.28,428.91C548.91,483.08,543.96,492.6,535.92,492.6
		z"/>
	<circle class="st0" cx="307.26" cy="411.95" r="36.32"/>
	<path class="st1" d="M343.06,197.28c-1.58,19.43-1.62,39.13-4.15,58.7c-1.18,9.11-0.64,18.44-1.57,27.7
		c-1.75,17.34-2.17,34.82-3.26,52.23c-0.85,13.68-7.14,21.56-20.23,25.7c-9.94,3.14-21.31-0.85-26.68-9.68
		c-3.82-6.28-5.41-13.33-6.01-20.62c-1.28-15.61-2.17-31.25-4.38-46.78c-0.84-5.89-0.77-11.89-1.35-17.84
		c-2.21-22.8-3.8-45.7-4.61-68.59c-0.63-17.87,4.73-24.48,21.9-30.3c13.22-4.48,26.07-3.81,38.39,3.29
		C341.31,176.96,345.56,185.45,343.06,197.28z"/>
</g>
</svg>
