<?xml version="1.0" encoding="utf-8"?>
<!-- Generator: Adobe Illustrator 28.3.0, SVG Export Plug-In . SVG Version: 6.00 Build 0)  -->
<svg version="1.1" id="Capa_1" xmlns="http://www.w3.org/2000/svg" xmlns:xlink="http://www.w3.org/1999/xlink" x="0px" y="0px"
	 viewBox="0 0 578.68 519.42" style="enable-background:new 0 0 578.68 519.42;" xml:space="preserve" fill="#fff">
<g>
	<path d="M289.21,83.39c-79.4,0-158.81,0.01-238.21-0.01c-10.08,0-17.26-7.81-19.13-20.7c-2.21-15.27,6.41-29.64,18.02-29.69
		c25.06-0.11,50.12-0.04,75.18-0.04c123.39,0,246.78,0,370.16,0c11,0,21.99-0.04,32.99,0.02c10.82,0.06,18.87,10.89,18.84,25.24
		c-0.02,14.35-8.06,25.16-18.89,25.17C448.53,83.41,368.87,83.39,289.21,83.39z"/>
	<path d="M289.33,436.04c79.4,0,158.81,0,238.21,0.01c10.84,0,18.71,9.41,19.5,23.19c0.85,14.95-7.39,27.18-18.53,27.21
		c-25.44,0.07-50.89,0.01-76.33,0.01c-133.62,0-267.24,0.01-400.85,0.01c-11.09,0-19.06-9.51-19.7-23.47
		c-0.69-14.8,7.45-26.88,18.36-26.94c20.33-0.1,40.66-0.04,60.99-0.04C170.41,436.04,229.87,436.04,289.33,436.04z"/>
	<path d="M289.34,284.85c-78.89-0.01-157.78,0.01-236.66-0.05c-2.79,0-5.69-0.1-8.33-1.15c-8.51-3.37-13.88-15.28-12.64-27.27
		c1.29-12.48,8.4-21.56,17.69-21.69c18.03-0.26,36.05-0.11,54.08-0.11c86.43,0,172.86-0.01,259.3,0c54.85,0,109.7,0,164.55,0.03
		c10.55,0.01,17.61,7.57,19.48,20.7c2.18,15.3-6.28,29.32-18.12,29.49c-15.34,0.22-30.69,0.07-46.03,0.07
		C418.22,284.86,353.78,284.86,289.34,284.85z"/>
</g>
</svg>
