<?xml version="1.0" encoding="utf-8"?>
<!-- Generator: Adobe Illustrator 28.3.0, SVG Export Plug-In . SVG Version: 6.00 Build 0)  -->
<svg version="1.1" id="Capa_1" xmlns="http://www.w3.org/2000/svg" xmlns:xlink="http://www.w3.org/1999/xlink" x="0px" y="0px"
	 viewBox="0 0 578.7 519.4" style="enable-background:new 0 0 578.7 519.4;" xml:space="preserve">
<style type="text/css">
	.st0{fill:#FFFFFF;}
</style>
<g>
	<path class="st0" d="M289.2,121.9c-79.4,0-158.8,0-238.2,0c-10.1,0-17.3-13.8-19.1-36.5c-2.2-26.9,6.4-52.2,18-52.3
		C74.9,32.8,100,33,125.1,33c123.4,0,246.8,0,370.2,0c11,0,22-0.1,33,0c10.8,0.1,18.9,19.2,18.8,44.5c0,25.3-8.1,44.4-18.9,44.4
		C448.5,121.9,368.9,121.9,289.2,121.9z"/>
	<path class="st0" d="M289.2,486.5c-79.4,0-158.8,0-238.2,0c-10.1,0-17.3-13.8-19.1-36.5c-2.2-26.9,6.4-52.2,18-52.3
		c25.1-0.2,50.1-0.1,75.2-0.1c123.4,0,246.8,0,370.2,0c11,0,22-0.1,33,0c10.8,0.1,18.9,19.2,18.8,44.5c0,25.3-8.1,44.4-18.9,44.4
		C448.5,486.5,368.9,486.5,289.2,486.5z"/>
	<path class="st0" d="M289.2,304.2c-79.4,0-158.8,0-238.2,0c-10.1,0-17.3-13.8-19.1-36.5c-2.2-26.9,6.4-52.2,18-52.3
		c25.1-0.2,50.1-0.1,75.2-0.1c123.4,0,246.8,0,370.2,0c11,0,22-0.1,33,0c10.8,0.1,18.9,19.2,18.8,44.5c0,25.3-8.1,44.4-18.9,44.4
		C448.5,304.2,368.9,304.2,289.2,304.2z"/>
</g>
</svg>
