<?xml version="1.0" encoding="UTF-8"?>
<svg id="Capa_1" data-name="Capa 1" xmlns="http://www.w3.org/2000/svg" viewBox="0 0 229.87 185.73">
  <defs>
    <style>
      .cls-1 {
        fill: #3f3f3f;
        stroke-width: 0px;
      }
    </style>
  </defs>
  <path class="cls-1" d="M229.78,62.23c-.07-25.45-10.63-36.5-36.44-35.85-12.06.31-20.4-3.29-26.66-13.36C160.8,3.56,151.94-.23,140.76.01c-17.45.38-34.92.23-52.38.08-9.27-.08-18.18,1.95-22.85,10.15-7.87,13.83-19.3,16.59-34.11,16.22C11.7,25.95.33,38.41.17,58.57c-.24,31.51-.22,63.03-.02,94.55.13,21.28,11.19,32.39,32.18,32.52,27.65.17,55.3.04,82.94.03,27.16,0,54.33.1,81.49-.04,22-.11,32.87-11.01,33-33.22.17-30.06.1-60.12.02-90.19ZM114.98,158.37c-29.59-.32-54.36-25.45-54.37-55.15,0-30.48,25.1-55.15,55.82-54.86,29.82.29,54.68,25.27,54.52,54.79-.16,30.3-25.75,55.54-55.97,55.22Z"/>
  <path class="cls-1" d="M115.59,140.57c-20.85-.13-37.96-17.58-37.49-38.24.45-20.05,17.45-36.49,37.7-36.45,19.96.04,37.42,17.03,37.66,36.64.25,20.49-17.35,38.18-37.87,38.04Z"/>
</svg>