<?xml version="1.0" encoding="utf-8"?>
<!-- Generator: Adobe Illustrator 28.3.0, SVG Export Plug-In . SVG Version: 6.00 Build 0)  -->
<svg version="1.1" id="Capa_1" xmlns="http://www.w3.org/2000/svg" xmlns:xlink="http://www.w3.org/1999/xlink" x="0px" y="0px"
	 viewBox="0 0 406.1 407.5" style="enable-background:new 0 0 406.1 407.5;" xml:space="preserve">
<style type="text/css">
	.st0{fill:#FFFFFF;}
</style>
<g>
	<g>
		<path class="st0" d="M203,11.6C97.8,11.6,12.5,97.6,12.5,203.8S97.8,396,203,396s190.5-86.1,190.5-192.2S308.3,11.6,203,11.6z
			 M203,382.1c-97.6,0-176.8-79.8-176.8-178.3S105.4,25.4,203,25.4s176.8,79.8,176.8,178.3S300.7,382.1,203,382.1z"/>
	</g>
	<g>
		<path class="st0" d="M327.5,232.5c-8.6,0.1-17.2,0-25.8,0.1c-2.1,0-3-0.7-3.1-3.3c-1-18-5.2-35-13-50.4
			c-18.1-35.5-44.8-55.4-79.9-59.5c-1-0.1-2.5,0.5-2.8-1.5c-0.3-1.8,1-2.2,2.1-2.7c8.2-4.6,12-14.1,10-24
			c-1.6-7.9-8.6-16.1-18.4-15.2c-9.4,0.9-17.2,11.9-15.7,22.9c1,7.6,4.4,13,10.4,16.3c1,0.6,2.3,0.9,2.1,2.7
			c-0.3,1.8-1.6,1.3-2.6,1.5c-2.1,0.3-4.2,0.4-6.3,0.8c-21.9,3.9-40.9,14.6-56.7,32.9c-17.8,20.6-27.7,45.5-30.1,74.7
			c-0.4,4.9-0.3,4.9-4.5,4.9c-8.2,0-16.3,0.1-24.5,0c-2.7,0-5.1,0.5-6.8,3.3c0,1.3,0,2.5,0,3.8c1.5,2.9,3.9,3.7,6.6,3.7
			c4,0,8,0.1,12,0c2-0.1,3,0.9,3.7,3c2.6,7.9,5.3,15.7,8,23.5c2.8,8.1,7.7,13.4,15.1,15.2c2.7,0.7,5.4,0.8,8.2,0.8
			c29.3,0,58.7,0,88,0c26.1,0,52.1,0,78.2,0c12.5,0,18.7-5,23.3-18.6c2.4-7.1,4.8-14.1,7.2-21.2c0.6-1.9,1.6-2.8,3.4-2.7
			c4.1,0.1,8.2,0,12.2,0c2.7,0,5.1-0.8,6.6-3.7c0-1.3,0-2.5,0-3.8C332.5,233,330.2,232.5,327.5,232.5z M189.6,96.2
			c0.1-5.3,3.8-9.7,8.3-9.8c4.6-0.1,8.5,4.4,8.5,9.8c0,5.4-3.8,9.9-8.5,9.9C193.3,106.1,189.5,101.6,189.6,96.2z M106.4,229.8
			c1.4-21.3,7.5-40.4,18.5-57.3c0.2-0.2,0.4-0.4,0.6-0.6c6.4-10.5,14.5-18.7,23.7-25.6c12.1-9,25.3-14.5,39.5-16.1
			c18.8-2.1,36.6,2,53.3,12.7c10.6,6.8,19.7,15.8,27.3,26.9c0.4,0.6,0.8,1.4,1.2,2.1c4.8,6.4,8.2,13.8,11.2,21.5
			c4.4,11.4,7,23.4,7.9,35.8c0.2,2.6-0.4,3.4-2.7,3.4c-59.2-0.1-118.5-0.1-177.7,0C107.5,232.5,106.2,232.7,106.4,229.8z M301.9,247
			c-1.9,5.5-3.8,11-5.6,16.5c-3,8.9-6.3,11.5-14.5,11.5c-46.1,0-92.2,0-138.3,0.1c-9.9,0-19.9,0-29.8-0.1c-7.7,0-11.1-2.8-13.9-11.2
			c-2-5.8-4-11.6-5.9-17.4c-1.1-3.3-1.1-3.3,2-3.3c34,0,68.1,0,102.1,0c34,0,67.9,0,101.9,0C303.3,243.1,303.2,243.1,301.9,247z"/>
		<path class="st0" d="M259.2,178.3c7.6,12.1,13.1,25.4,15.8,40.1c0.2,1,0.4,2,0.4,3.1c0.1,2.9-1.2,4.7-3.5,5.5
			c-2,0.7-4.3-0.8-5.1-3.4c-0.7-2.6-1.1-5.2-1.8-7.8c-2.6-10.7-6.5-20.6-12.3-29.4c-11.5-18.4-26.9-29.9-45.7-35
			c-4.5-1.2-9.1-2-13.7-2c-1,0-2,0-2.9-0.2c-2.9-0.6-4.4-2.6-4.3-5.6c0.1-3,2-4.8,4.9-4.8c6,0,11.9,0.7,17.7,2.2
			c20.2,5.4,36.8,17.5,49.7,36.5C258.6,177.8,258.9,178.1,259.2,178.3z"/>
	</g>
</g>
</svg>
