<?xml version="1.0" encoding="utf-8"?>
<!-- Generator: Adobe Illustrator 28.3.0, SVG Export Plug-In . SVG Version: 6.00 Build 0)  -->
<svg version="1.1" id="Capa_1" xmlns="http://www.w3.org/2000/svg" xmlns:xlink="http://www.w3.org/1999/xlink" x="0px" y="0px"
	 viewBox="0 0 507.48 519.42" style="enable-background:new 0 0 507.48 519.42;" xml:space="preserve">
<style type="text/css">
	.st0{fill:#FFFFFF;}
</style>
<g>
	<path class="st0" d="M72.18,226.9c18.23,0.62,32.86,8.38,45.96,20.21c22.85,20.63,46.2,40.71,68.77,61.63
		c7.06,6.55,10.77,6.27,17.27-0.93C285.04,218.26,366.52,129.28,447.1,39.5c14.68-16.36,40.8-12.19,47.5,5.74
		c3.83,10.27,0.96,18.8-4.64,27.53c-30.88,48.13-61.49,96.43-92.23,144.65c-51.56,80.88-103.64,161.44-154.51,242.75
		c-24.77,39.58-75.54,38.51-101.4,5.47c-37.06-47.33-77.05-92.35-115.35-138.72c-28.61-34.63-15.59-82.73,25.61-95.92
		C58.55,228.94,65.47,228.24,72.18,226.9z"/>
</g>
</svg>
