<?xml version="1.0" encoding="utf-8"?>
<!-- Generator: Adobe Illustrator 28.3.0, SVG Export Plug-In . SVG Version: 6.00 Build 0)  -->
<svg version="1.1" id="Capa_1" xmlns="http://www.w3.org/2000/svg" xmlns:xlink="http://www.w3.org/1999/xlink" x="0px" y="0px"
	 viewBox="0 0 316 316" style="enable-background:new 0 0 316 316;" xml:space="preserve">
<style type="text/css">
	.st0{fill:#3CAD5D;}
	.st1{fill:#2159A1;}
	.st2{fill:#FEFEFF;}
</style>
<g>
	<path class="st0" d="M236.05,161.96c-0.03,33.98-0.06,67.96-0.09,101.94c-0.02,16.46-3.16,19.63-19.47,19.64
		c-38.65,0.01-77.29,0-115.94,0c-1.5,0-3,0.01-4.5-0.04c-9.59-0.35-13.16-3.63-14.18-13.13c-0.26-2.48-0.29-4.99-0.29-7.48
		c-0.03-33.65-0.05-67.29-0.06-100.94c3.19-0.34,6.38-0.45,9.56,0.08c-0.11,35.3-0.26,70.59-0.26,105.89c0,5.08,2.13,6.7,7.82,6.7
		c40.14,0.03,80.27,0.03,120.41,0c5.9,0,7.86-1.85,7.86-7.73c0-34.97-0.09-69.94-0.14-104.91
		C229.85,161.55,232.95,161.58,236.05,161.96z"/>
	<path class="st1" d="M236.05,161.96c-3.1-0.38-6.2-0.42-9.3,0.02c-10.93,0-21.85,0-32.78-0.01c-23.32-0.4-46.65-0.48-69.97,0.04
		c-10.98,0.01-21.95,0.01-32.93,0.02c-3.18-0.53-6.37-0.42-9.56-0.08c-21.12-0.04-42.23-0.07-63.35-0.11
		c-0.83,0-1.66,0.01-2.49,0.04c-2.84,0.09-5.93-0.3-6.08-3.64c-0.16-3.67,3.09-4.28,6.06-4.29c14.8-0.04,29.6,0.02,44.4,0
		c7.14-0.01,14.29-0.13,21.43-0.2c3.14,0.75,6.27,0.72,9.41-0.01c12.23,0.31,24.46,0.46,36.68-0.08c1.72,0.92,3.58,0.53,5.37,0.54
		c13.1,0.03,26.2,0.1,39.3-0.02c5.94-0.05,11.9,0.59,17.82-0.43c12.23-0.01,24.45-0.01,36.68-0.02c3.1,0.77,6.2,0.74,9.3,0.03
		c20.98,0.07,41.96,0.15,62.94,0.23c1.66,0.01,3.34-0.04,4.97,0.21c2.06,0.32,4.14,1.21,3.97,3.66c-0.15,2.13-1.78,3.55-3.96,3.92
		c-1.13,0.19-2.32,0.07-3.48,0.07C279.01,161.89,257.53,161.93,236.05,161.96z"/>
	<path class="st0" d="M136.92,45.51c0-8.32-0.05-16.64,0.02-24.97c0.04-5.68,1.46-7.16,7.08-7.2c9.99-0.07,19.97,0.07,29.96-0.04
		c4.6-0.05,6.78,2.03,6.77,6.57c-0.02,16.81,0.07,33.62-0.07,50.43c-0.06,7.21-3.28,10.13-10.61,10.19
		c-7.66,0.06-15.31,0.06-22.97-0.02c-7.14-0.08-10.03-2.93-10.1-9.99c-0.08-8.32-0.02-16.64-0.02-24.97
		C136.95,45.51,136.93,45.51,136.92,45.51z M171.1,46.62c0-6.82-0.1-13.65,0.05-20.47c0.06-2.65-0.85-3.45-3.44-3.38
		c-5.82,0.16-11.65,0.16-17.47,0c-2.7-0.07-3.88,0.62-3.86,3.58c0.12,13.65,0.13,27.29-0.01,40.94c-0.03,2.96,1.11,3.67,3.81,3.59
		c5.65-0.15,11.33-0.27,16.97,0.03c3.54,0.19,4.08-1.31,4-4.33C170.98,59.94,171.1,53.28,171.1,46.62z"/>
	<path class="st0" d="M158.61,132.86c-11.73-0.07-20.49-8.86-20.49-20.55c0-11.81,9.14-20.96,20.82-20.86
		c11.43,0.1,20.52,9.23,20.6,20.69C179.61,123.89,170.47,132.94,158.61,132.86z"/>
	<path class="st0" d="M90.89,153.74c-3.14,0.73-6.27,0.76-9.41,0.01c0.03-25.62,0.05-51.25,0.08-76.87
		c0.02-16.87,3.3-20.17,20.06-20.2c7.99-0.01,15.98,0.19,23.96-0.09c3.71-0.13,3.55,1.88,3.44,4.35c-0.1,2.36,0.83,5.01-3.4,4.88
		c-8.81-0.28-17.63-0.13-26.45-0.15c-6.42-0.01-8.46,1.83-8.46,8.22C90.72,100.5,90.82,127.12,90.89,153.74z"/>
	<path class="st0" d="M236.06,153.75c-3.1,0.71-6.21,0.74-9.3-0.03c0.05-26.62,0.13-53.23,0.13-79.85c0-6.42-1.98-8.21-8.48-8.19
		c-8.48,0.02-16.97-0.07-25.45,0.16c-3.37,0.09-4.69-0.81-4.54-4.41c0.13-3.16,0.49-4.82,4.32-4.7c9.64,0.28,19.3,0.01,28.94,0.14
		c9.89,0.14,14.28,4.8,14.29,15.05c0.02,25.45-0.01,50.91-0.01,76.36C235.96,150.09,236.02,151.92,236.06,153.75z"/>
	<path class="st1" d="M8.26,231.6c3.3,2.59,4.07,5.73,4.05,9.47c-0.07,12.8,0.08,25.61,0.2,38.41c0.16,16.72,7.43,23.95,24.16,24.04
		c13.31,0.07,26.61,0.11,39.92,0.11c3.61,0,8.29,0.58,8.37,4.07c0.06,2.66-4.73,3.79-8.29,3.77c-15.13-0.08-30.27,0.12-45.4-0.08
		c-14.58-0.19-25.88-11.16-26.55-25.75c-0.71-15.62-0.36-31.26-0.03-46.89C4.73,235.84,6.1,233.77,8.26,231.6z"/>
	<path class="st1" d="M307.57,84.18c-2.78-2.02-3.83-4.69-3.81-8.14c0.08-11.82-0.03-23.65-0.11-35.47
		c-0.02-2.83-0.08-5.67-0.38-8.47c-1.36-12.87-8.27-19.36-21.33-19.61c-13.98-0.27-27.97-0.23-41.96-0.25
		c-3.7-0.01-6.82-1.04-9.18-3.98c2.85-2.94,6.2-3.79,10.07-3.76c14.32,0.11,28.64-0.08,42.96,0.07
		c15.72,0.17,26.68,10.75,27.43,26.42c0.72,15.14,0.46,30.3,0.04,45.45C311.2,79.72,310.2,82.25,307.57,84.18z"/>
	<path class="st1" d="M261.41,311.44c-7.82,0-15.64-0.07-23.45,0.03c-3.54,0.04-8.09-0.84-8.15-3.87c-0.07-3.15,4.39-4.01,7.95-3.99
		c14.14,0.06,28.28,0,42.41-0.1c15.9-0.11,23.46-7.65,23.63-23.65c0.14-13.3,0.18-26.61,0.02-39.92c-0.04-3.66,1.09-8.21,3.82-8.27
		c3.56-0.07,3.86,4.64,3.88,7.98c0.07,14.8,0.36,29.61-0.01,44.4c-0.4,16.31-11.91,27.24-28.14,27.4
		c-7.32,0.07-14.64,0.01-21.96,0.01C261.41,311.45,261.41,311.45,261.41,311.44z"/>
	<path class="st1" d="M84.24,8.24c-2.44,3.21-5.66,4.26-9.6,4.23c-12.66-0.1-25.32-0.04-37.97,0.04C19.77,12.61,12.41,20,12.27,37
		c-0.11,12.99-0.17,25.98-0.05,38.97c0.03,3.49-1.26,7.75-3.77,7.77c-3.1,0.02-3.79-4.27-3.79-7.58c0.01-14.82-0.24-29.64,0-44.46
		C4.9,15.94,16.22,4.78,31.96,4.6c14.49-0.16,28.98,0.02,43.47-0.06C78.96,4.52,81.94,5.39,84.24,8.24z"/>
	<path class="st0" d="M190.07,153.74c-5.92,1.02-11.88,0.38-17.82,0.43c-13.1,0.12-26.2,0.05-39.3,0.02c-1.8,0-3.66,0.38-5.37-0.54
		c4.48-7.69,11.72-11.11,20.04-12.46c7.75-1.25,15.57-1.29,23.34,0.16C179.01,142.86,185.46,146.89,190.07,153.74z"/>
	<path class="st2" d="M193.97,161.97c10.93,0,21.85,0.01,32.78,0.01c0.06,34.97,0.14,69.94,0.14,104.91c0,5.88-1.96,7.72-7.86,7.73
		c-40.14,0.03-80.27,0.03-120.41,0c-5.69,0-7.82-1.62-7.82-6.7c0-35.3,0.16-70.59,0.26-105.89c10.98-0.01,21.95-0.01,32.93-0.02
		c-0.92,4.26-1.14,8.57-0.92,12.91c0.19,3.76,2.07,5.87,5.97,5.86c19.32-0.04,38.63-0.01,57.95-0.2c4.37-0.04,6.92-2.57,7.4-7.16
		C194.8,169.56,194.24,165.78,193.97,161.97z M178.06,244.61c-7.83,0-15.65,0.07-23.48-0.03c-3.68-0.05-7.94,1.57-8.01,4.35
		c-0.07,2.71,4.1,4.59,7.8,4.57c15.32-0.06,30.64-0.07,45.96,0.04c3.9,0.03,8.11-1.63,8.17-4.8c0.06-3.07-4.32-4.25-7.96-4.18
		C193.04,244.71,185.55,244.61,178.06,244.61z M137.81,221.91c0,0.01,0,0.02,0,0.03c-6.82,0-13.64-0.01-20.46,0
		c-3.67,0.01-8.17,1.28-8.33,4.46c-0.12,2.5,4.48,4.34,8.06,4.35c13.64,0.03,27.28,0.06,40.92,0.05c3.49,0,8.11-1.44,8.03-4.23
		c-0.08-3.2-4.47-4.71-8.25-4.68C151.12,221.94,144.47,221.91,137.81,221.91z M178.69,199.54c0,0.02,0,0.03,0,0.05
		c-7.98,0-15.97-0.01-23.95,0c-2.95,0-6.08,1.64-6.1,4c-0.02,2.49,2.71,4.8,5.95,4.81c15.97,0.04,31.93,0.06,47.9,0
		c3.08-0.01,6.16-2,6.18-4.56c0.01-2.14-3.11-4.06-6.04-4.25c-1.16-0.07-2.33-0.06-3.49-0.07
		C192.32,199.54,185.51,199.54,178.69,199.54z M193.21,230.72c3.81-0.01,7.65,0.66,11.44-0.19c2.27-0.51,4.33-2.13,4.22-4.22
		c-0.1-1.97-1.9-3.74-4.44-3.99c-7.14-0.72-14.26-0.72-21.4-0.08c-2.68,0.24-4.88,1.78-4.92,4.06c-0.04,2.64,2.31,4.3,5.14,4.39
		C186.56,230.79,189.89,230.71,193.21,230.72z M123,208.43c2.98,0,5.96-0.06,8.94,0.02c3.04,0.07,5.12-2.02,5.3-4.28
		c0.21-2.56-2.45-4.37-5.01-4.48c-6.28-0.25-12.59-0.2-18.88-0.01c-2.53,0.07-4.9,2.11-4.86,4.19c0.05,2.28,2.14,4.46,5.06,4.54
		C116.7,208.49,119.85,208.42,123,208.43z M121.4,253.41c2.66,0,5.32-0.03,7.98,0.01c3.03,0.05,5.07-2.06,5.3-4.35
		c0.23-2.27-2.31-4.23-4.65-4.35c-5.79-0.29-11.62-0.29-17.41,0.07c-2.41,0.15-4.5,2.25-4.25,4.74c0.24,2.45,2.42,3.84,5.06,3.87
		C116.08,253.43,118.74,253.41,121.4,253.41z"/>
	<path class="st0" d="M193.97,161.97c0.27,3.81,0.83,7.59,0.43,11.45c-0.48,4.59-3.04,7.11-7.4,7.16
		c-19.32,0.19-38.63,0.16-57.95,0.2c-3.9,0.01-5.77-2.1-5.97-5.86c-0.22-4.34,0-8.65,0.92-12.91
		C147.32,161.5,170.65,161.58,193.97,161.97z"/>
	<path class="st2" d="M171.1,46.62c0,6.66-0.12,13.32,0.06,19.97c0.08,3.02-0.46,4.52-4,4.33c-5.64-0.3-11.32-0.19-16.97-0.03
		c-2.7,0.07-3.84-0.63-3.81-3.59c0.13-13.65,0.13-27.29,0.01-40.94c-0.03-2.96,1.16-3.66,3.86-3.58c5.82,0.16,11.65,0.16,17.47,0
		c2.59-0.07,3.5,0.73,3.44,3.38C171,32.97,171.1,39.8,171.1,46.62z M159.64,26.61c-1.8-0.01-6.74,6.34-6.53,8.06
		c0.37,2.99,1.84,5.41,5.04,5.87c2.56,0.37,6.7-3.58,6.24-5.94C163.74,31.31,161.32,28.98,159.64,26.61z"/>
	<path class="st0" d="M178.06,244.61c7.49,0,14.99,0.1,22.48-0.05c3.64-0.07,8.02,1.1,7.96,4.18c-0.06,3.17-4.26,4.82-8.17,4.8
		c-15.32-0.11-30.64-0.1-45.96-0.04c-3.71,0.01-7.87-1.87-7.8-4.57c0.07-2.77,4.33-4.4,8.01-4.35
		C162.4,244.68,170.23,244.61,178.06,244.61z"/>
	<path class="st0" d="M137.81,221.91c6.66,0,13.31,0.03,19.97-0.01c3.78-0.02,8.17,1.49,8.25,4.68c0.07,2.79-4.54,4.23-8.03,4.23
		c-13.64,0.01-27.28-0.02-40.92-0.05c-3.58-0.01-8.18-1.85-8.06-4.35c0.16-3.18,4.66-4.46,8.33-4.46c6.82-0.02,13.64,0,20.46,0
		C137.81,221.94,137.81,221.93,137.81,221.91z"/>
	<path class="st0" d="M178.69,199.54c6.82,0,13.64,0,20.46,0c1.16,0,2.33-0.01,3.49,0.07c2.93,0.19,6.05,2.11,6.04,4.25
		c-0.02,2.56-3.09,4.55-6.18,4.56c-15.97,0.06-31.93,0.04-47.9,0c-3.24-0.01-5.97-2.32-5.95-4.81c0.02-2.37,3.14-4,6.1-4
		c7.98-0.01,15.97,0,23.95,0C178.69,199.58,178.69,199.56,178.69,199.54z"/>
	<path class="st0" d="M193.21,230.71c-3.32-0.01-6.64,0.07-9.96-0.03c-2.83-0.09-5.18-1.74-5.14-4.39c0.04-2.28,2.24-3.82,4.92-4.06
		c7.14-0.64,14.27-0.64,21.4,0.08c2.54,0.26,4.33,2.03,4.44,3.99c0.11,2.09-1.96,3.71-4.22,4.22
		C200.86,231.39,197.02,230.71,193.21,230.71z"/>
	<path class="st0" d="M123,208.42c-3.15,0-6.3,0.06-9.44-0.02c-2.92-0.08-5.01-2.26-5.06-4.54c-0.04-2.08,2.33-4.12,4.86-4.19
		c6.29-0.18,12.59-0.24,18.88,0.01c2.57,0.1,5.22,1.92,5.01,4.48c-0.18,2.26-2.26,4.36-5.3,4.28
		C128.96,208.37,125.98,208.43,123,208.42z"/>
	<path class="st0" d="M121.39,253.41c-2.66,0-5.32,0.02-7.98-0.01c-2.64-0.03-4.82-1.42-5.06-3.87c-0.25-2.49,1.84-4.59,4.25-4.74
		c5.79-0.36,11.62-0.36,17.41-0.07c2.34,0.12,4.88,2.08,4.65,4.35c-0.23,2.28-2.27,4.39-5.3,4.35
		C126.71,253.38,124.05,253.41,121.39,253.41z"/>
	<path class="st0" d="M159.64,26.61c1.68,2.37,4.1,4.7,4.75,8c0.46,2.36-3.68,6.31-6.24,5.94c-3.2-0.46-4.68-2.88-5.04-5.87
		C152.9,32.95,157.83,26.61,159.64,26.61z"/>
</g>
</svg>
