<?xml version="1.0" encoding="utf-8"?>
<!-- Generator: Adobe Illustrator 28.3.0, SVG Export Plug-In . SVG Version: 6.00 Build 0)  -->
<svg version="1.1" id="Capa_1" xmlns="http://www.w3.org/2000/svg" xmlns:xlink="http://www.w3.org/1999/xlink" x="0px" y="0px"
	 viewBox="0 0 507.48 519.42" style="enable-background:new 0 0 507.48 519.42;" xml:space="preserve">
<style type="text/css">
	.st0{fill:#FFFFFF;}
</style>
<g>
	<path class="st0" d="M437.47,269.87c-6.55,0-13.1,0-19.65,0c-61.22-0.01-122.44-0.02-183.66-0.03c-2.09,0-4.18,0.04-6.26-0.02
		c-6.76-0.21-11.75-2.87-11.62-10.37c0.12-6.88,4.84-9.52,11.14-9.81c2.78-0.13,5.56-0.04,8.35-0.04
		c63.65,0,127.31-0.01,190.96-0.01c3.65,0,7.29,0,14.22,0c-14.04-13.91-25.8-25.54-37.54-37.19c-3.21-3.18-6.35-6.44-9.55-9.63
		c-4.62-4.61-5.8-9.82-1.11-14.72c5.16-5.4,10.59-3.89,15.45,1.01c0.74,0.74,1.49,1.46,2.23,2.2c19.44,19.42,38.92,38.81,58.3,58.29
		c8.29,8.33,8.37,11.88,0.3,20.01c-19.35,19.51-38.84,38.89-58.25,58.35c-5.12,5.13-10.64,10.64-17.66,3.79
		c-6.96-6.79-2.01-12.44,3.3-17.66c14.09-13.85,28.08-27.8,42.12-41.71C438.18,271.5,437.83,270.68,437.47,269.87z"/>
	<path class="st0" d="M323.65,76.2c-25.07,0-48.66,0.01-72.26,0c-8.36,0-16.89,0.94-24.99-0.49c-3.84-0.68-6.86-5.93-10.26-9.11
		c3.26-3.31,6.46-9.43,9.79-9.5c35.85-0.7,71.72-0.55,107.58-0.37c8.9,0.05,10.3,6.39,10.28,13.79
		c-0.09,44.93-0.04,89.86-0.05,134.8c0,5.22,1.25,10.91-0.41,15.54c-1.57,4.37-5.73,10.01-9.64,10.83
		c-6.27,1.31-9.8-4.27-9.91-10.64c-0.21-12.54-0.12-25.08-0.12-37.62C323.64,148.29,323.65,113.15,323.65,76.2z"/>
	<path class="st0" d="M323.64,443.2c0-4.73,0-8.43,0-12.12c0-41.39,0-82.78,0.02-124.17c0-3.12-0.9-7,0.59-9.19
		c2.4-3.54,6.48-8.27,9.77-8.21c3.25,0.06,6.72,5.18,9.44,8.6c1.03,1.3,0.27,4.04,0.27,6.13c0.01,47.65,0.02,95.3-0.01,142.95
		c-0.01,13.68-1.96,15.61-15.77,15.63c-32.34,0.05-64.67,0.02-97.01,0.02c-0.7,0-1.39-0.01-2.09,0.02
		c-7.17,0.28-12.76-1.92-12.58-10.16c0.16-7.65,5.6-9.48,12.28-9.47c27.82,0.05,55.63-0.01,83.45-0.02
		C315.4,443.2,318.8,443.2,323.64,443.2z"/>
	<path class="st0" d="M194.82,65.42c-0.23-13.68-4.57-28.21-10.53-40.67c-8.05-16.83-21.25-20.16-38.55-13.4
		c-24.6,9.6-49.18,19.26-73.73,29C44.45,51.28,32.49,68.98,32.48,98.91c-0.03,107.24-0.04,214.47,0,321.71
		c0.01,29.88,11.85,47.43,39.6,58.51c24.85,9.92,49.79,19.62,74.72,29.32c15.52,6.04,26.55,2.77,36.2-11.02
		c8.88-12.68,12.28-27.1,12.28-42.42c0.01-65.11,0-130.22,0.01-195.32C195.29,194.93,195.89,130.16,194.82,65.42z M175.25,355.59
		c0,32.04-0.08,64.08-0.44,96.11c-0.12,11.04-4.09,22.27-7.62,32.97c-2.06,6.24-7.25,7.86-14.39,4.91
		c-24.73-10.22-49.78-19.68-74.69-29.46c-16.64-6.53-25.54-18.33-25.53-36.66c0.07-109,0.08-218-0.04-327.01
		c-0.02-18.28,8.46-30.35,25.14-36.94c25.22-9.96,50.58-19.53,75.67-29.8c6.68-2.73,11.65-1.2,13.58,4.63
		c3.54,10.7,7.73,21.87,7.86,32.89c0.18,16.02,0.3,32.04,0.36,48.05c0.2,48.06-0.01,96.12-0.01,144.18
		C175.16,291.51,175.25,323.55,175.25,355.59z"/>
	<path class="st0" d="M161.74,260.38c0,6.58-0.01,13.17,0.01,19.75c0.01,6.87-2.8,11.64-10.17,11.62
		c-6.77-0.03-9.88-4.51-9.96-10.87c-0.16-14.2-0.2-28.42,0.02-42.62c0.1-6.4,3.57-10.75,10.23-10.64c6.64,0.1,9.79,4.43,9.85,10.94
		C161.79,245.83,161.74,253.11,161.74,260.38z"/>
</g>
</svg>
