<?xml version="1.0" encoding="utf-8"?>
<!-- Generator: Adobe Illustrator 28.3.0, SVG Export Plug-In . SVG Version: 6.00 Build 0)  -->
<svg version="1.1" id="Capa_1" xmlns="http://www.w3.org/2000/svg" xmlns:xlink="http://www.w3.org/1999/xlink" x="0px" y="0px"
	 viewBox="0 0 406.1 407.5" style="enable-background:new 0 0 406.1 407.5;" xml:space="preserve">
<style type="text/css">
	.st0{fill:#FFFFFF;}
</style>
<g>
	<path class="st0" d="M203,11.6C97.8,11.6,12.5,97.6,12.5,203.8S97.8,396,203,396s190.5-86.1,190.5-192.2S308.3,11.6,203,11.6z
		 M203,382.1c-97.6,0-176.8-79.8-176.8-178.3S105.4,25.4,203,25.4s176.8,79.8,176.8,178.3S300.7,382.1,203,382.1z"/>
	<g>
		<path class="st0" d="M122.8,207.3l44.1-120.1c2-5.6,7.9-8.8,13.7-7.6l131.9,26.9c9.2,1.9,14.6,11.4,11.5,20.2l-57.5,163.2
			c-8.7,25.6-44.2,45-69.8,36.2l-87.4-38.2c-16.7-5.7-27.9-21.4-27.9-39.1V226c0-1,1.1-1.8,2-1.4l107.3,45c0,0-2.6,35.1,25,38.8
			c27.6,3.7,41-44.4,41-44.4l49.3-139.2L181.7,98.8l-41.8,116.4c-1.6,4.5-6.7,6.8-11.1,5.1l0,0C123.5,218.3,120.9,212.5,122.8,207.3
			z"/>
		<path class="st0" d="M193.8,217.2l39.1,12.5c5.8,1.9,8.8,7.9,6.6,13.2l0,0c-2.1,5.1-8.1,7.7-13.6,5.9L186.9,236
			c-5.5-1.8-8.4-7.5-6.5-12.6l0,0C182.3,218.2,188.3,215.4,193.8,217.2z"/>
		<path class="st0" d="M210.4,179l39.2,12.2c5.8,1.8,8.9,7.8,6.7,13.2l0,0c-2.1,5.1-8.1,7.7-13.6,6l-39.1-12.5
			c-5.5-1.8-8.5-7.4-6.6-12.6l0,0C198.9,180,204.9,177.3,210.4,179z"/>
		<path class="st0" d="M225.8,138.3l39.6,10.9c5.9,1.6,9.1,7.5,7.1,13l0,0c-1.9,5.2-7.8,8-13.4,6.4l-39.5-11.2
			c-5.6-1.6-8.7-7.1-7-12.4l0,0C214.3,139.8,220.2,136.8,225.8,138.3z"/>
		<circle class="st0" cx="162.2" cy="215.8" r="10.4"/>
		<circle class="st0" cx="177.5" cy="178.5" r="10.4"/>
		<circle class="st0" cx="192.6" cy="138.9" r="10.4"/>
	</g>
</g>
</svg>
