<?xml version="1.0" encoding="utf-8"?>
<!-- Generator: Adobe Illustrator 28.3.0, SVG Export Plug-In . SVG Version: 6.00 Build 0)  -->
<svg version="1.1" id="Capa_1" xmlns="http://www.w3.org/2000/svg" xmlns:xlink="http://www.w3.org/1999/xlink" x="0px" y="0px"
	 viewBox="0 0 578.68 594.22" style="enable-background:new 0 0 578.68 594.22;" xml:space="preserve">
<style type="text/css">
	.st0{fill:#FFFFFF;}
</style>
<g>
	<path class="st0" d="M108.76,305.09l99.26-270.25c4.61-12.55,17.7-19.86,30.81-17.19l296.73,60.46
		c20.64,4.21,32.81,25.69,25.8,45.56l-129.5,367.17c-19.68,57.52-99.53,101.17-157.04,81.46L78.13,486.34
		c-37.57-12.88-62.8-48.2-62.8-87.92v-51.25c0-2.36,2.41-3.96,4.58-3.05L261.38,445.5c0,0-5.88,78.94,56.26,87.34
		c62.14,8.4,92.38-99.93,92.38-99.93l110.85-313.24L241.23,60.88l-94.1,261.92c-3.66,10.19-14.98,15.38-25.09,11.51h0
		C110.36,329.84,104.45,316.82,108.76,305.09z"/>
	<path class="st0" d="M268.61,327.33l87.9,28.13c13.07,4.18,19.78,17.73,14.76,29.8l0,0c-4.76,11.43-18.33,17.27-30.67,13.2
		l-87.62-28.88c-12.39-4.08-18.92-16.8-14.6-28.43l0,0C242.69,329.53,256.2,323.36,268.61,327.33z"/>
	<path class="st0" d="M305.9,241.33l88.23,27.47c13.12,4.08,19.94,17.58,15,29.68v0c-4.68,11.46-18.22,17.41-30.61,13.43
		l-87.95-28.22c-12.44-3.99-19.07-16.65-14.83-28.32l0,0C279.96,243.73,293.44,237.45,305.9,241.33z"/>
	<path class="st0" d="M340.56,149.79l89.1,24.49c13.25,3.64,20.52,16.9,15.99,29.16l0,0c-4.29,11.62-17.63,18.01-30.15,14.45
		l-88.85-25.26c-12.57-3.57-19.62-16.01-15.77-27.8l0,0C314.72,153.05,327.98,146.33,340.56,149.79z"/>
	<circle class="st0" cx="197.38" cy="324.19" r="23.51"/>
	<circle class="st0" cx="231.81" cy="240.18" r="23.51"/>
	<circle class="st0" cx="265.82" cy="151.17" r="23.51"/>
</g>
</svg>
