<?xml version="1.0" encoding="utf-8"?>
<!-- Generator: Adobe Illustrator 28.3.0, SVG Export Plug-In . SVG Version: 6.00 Build 0)  -->
<svg version="1.1" id="Capa_1" xmlns="http://www.w3.org/2000/svg" xmlns:xlink="http://www.w3.org/1999/xlink" x="0px" y="0px"
	 viewBox="0 0 507.48 519.42" style="enable-background:new 0 0 507.48 519.42;" xml:space="preserve">
<style type="text/css">
	.st0{fill:#FFFFFF;}
</style>
<path class="st0" d="M254.46,19.01C121.47,18.23,13.88,123.92,12.95,259.17c-0.91,132.67,107.2,240.99,240.68,241.24
	c132.93,0.25,239.94-106.54,240.9-240.41C495.47,127.58,388.97,19.8,254.46,19.01z M401.2,296.64c-1.23,8.33-7.49,14.6-15.62,14.05
	c-7.61-0.52-15.14-2.41-22.67-3.87c-34.53-6.73-69.17-12.96-103.48-20.71c-8.4-1.9-16.22-8.16-23.18-13.81
	c-2.99-2.43-4.39-8.43-4.32-12.77c0.77-46.16,1.99-92.32,3.07-138.47c0.28-11.97,0.39-23.94,0.81-35.9
	c0.39-11.15,7.77-18.52,18.03-18.37c9.8,0.14,17.66,8.66,17.83,19.7c0.54,34.84,0.97,69.68,1.42,104.52
	c0.17,12.83,0.46,25.65,0.33,38.48c-0.04,4.35,1.45,6.37,5.58,7.77c36.51,12.44,72.95,25.1,109.42,37.67
	C397.49,278.04,402.67,286.73,401.2,296.64z"/>
</svg>
