<?xml version="1.0" encoding="utf-8"?>
<!-- Generator: Adobe Illustrator 27.2.0, SVG Export Plug-In . SVG Version: 6.00 Build 0)  -->
<svg version="1.1" id="Capa_1" xmlns="http://www.w3.org/2000/svg" xmlns:xlink="http://www.w3.org/1999/xlink" x="0px" y="0px"
	 viewBox="0 0 406.08 407.52" style="enable-background:new 0 0 406.08 407.52;" xml:space="preserve">
<style type="text/css">
	.st0{fill:#FFFFFF;}
</style>
<g>
	<path class="st0" d="M203.04,11.56c-105.22,0-190.52,86.05-190.52,192.2s85.3,192.2,190.52,192.2s190.52-86.05,190.52-192.2
		S308.26,11.56,203.04,11.56z M203.04,382.08c-97.62,0-176.76-79.84-176.76-178.32S105.42,25.44,203.04,25.44
		c97.62,0,176.76,79.84,176.76,178.32S300.66,382.08,203.04,382.08z"/>
	<g>
		<path class="st0" d="M146.86,278.21c-16.76-3.69-23.51-19.07-14.88-33.86c4.28-7.34,8.48-14.73,12.86-22.01
			c1.15-1.91,1.82-3.57,0.73-5.72c-13.68-26.98-27.32-53.97-40.97-80.96c-7.49-1.49-15.14,0.43-22.63-1.04l-0.03-0.04
			c-0.78-7.08-1.04-14.15,0.17-21.21l-0.08-0.06c12.49-1.05,24.97-0.97,37.46-0.05c3.75,7.07,7.51,14.14,11.26,21.2
			c2.11,1.33,4.46,0.67,6.69,0.67c54.22,0.04,108.44,0.03,162.66,0.06c2.25,0,4.57-0.49,6.76,0.51c8.93,3.88,10.6,9.54,5.26,18.78
			c-11.1,19.21-23.3,37.86-33.18,57.67c-8.58,17.2-20.45,23.94-39.64,22.69c-22.77-1.48-45.7-0.24-68.56-0.44
			c-4.47-0.04-7.34,1.02-9.3,5.3c-1.88,4.12-4.29,8.08-7.01,11.7c-2.41,3.21-1.03,4.48,1.88,5.18c1.78,0.43,3.72,0.23,5.59,0.23
			c41.15,0.01,82.3,0.1,123.45-0.11c5.05-0.03,7.11,0.99,6.53,6.37c-0.53,4.93-0.22,9.96-0.28,14.94c-1.46,1.17-3.19,0.69-4.8,0.69
			c-45.23,0.03-90.46,0.02-135.68,0.01C149.69,278.73,148.21,278.98,146.86,278.21z"/>
		<path class="st0" d="M268.61,289.67c13.72-0.15,23.21,8.42,23.25,21.02c0.05,12.69-10.34,22.63-23.7,22.68
			c-12.01,0.04-22.44-10.02-22.64-21.85C245.29,298.51,254.47,289.82,268.61,289.67z"/>
		<path class="st0" d="M151.56,289.67c14.95,0.03,22.89,7.76,22.85,22.24c-0.03,12.21-10.17,21.56-23.26,21.47
			c-11.92-0.09-22.96-10.91-22.94-22.49C128.24,298.73,138.25,289.64,151.56,289.67z"/>
	</g>
</g>
</svg>
