<?xml version="1.0" encoding="utf-8"?>
<!-- Generator: Adobe Illustrator 28.3.0, SVG Export Plug-In . SVG Version: 6.00 Build 0)  -->
<svg version="1.1" id="Capa_1" xmlns="http://www.w3.org/2000/svg" xmlns:xlink="http://www.w3.org/1999/xlink" x="0px" y="0px"
	 viewBox="0 0 595.3 567" style="enable-background:new 0 0 595.3 567;" xml:space="preserve">
<style type="text/css">
	.st0{fill:#2FAB57;}
	.st1{fill:#FFFFFF;}
</style>
<g>
	<circle class="st0" cx="297.6" cy="283.5" r="261"/>
	<path class="st1" d="M448.7,200.5c0.1,7.9-2.3,13.9-7.3,18.8C386.8,274,332.2,328.7,277.5,383.2c-10.9,10.8-26.2,10.6-37.4-0.5
		c-23-22.7-45.7-45.6-68.6-68.5c-5.5-5.5-11.1-11-16.6-16.6c-10.7-10.9-11.1-26.6-1.1-36.7c10.3-10.4,25.6-10.5,36.6,0.2
		c21.4,21,42.4,42.3,63.7,63.5c5.2,5.1,3.8,6.1,9.7,0.2c46.6-46.6,93.2-93.3,139.9-139.9c13.3-13.3,31.5-12.1,41.1,2.6
		C447.5,191.8,448.9,196.3,448.7,200.5z"/>
</g>
</svg>
