<?xml version="1.0" encoding="utf-8"?>
<!-- Generator: Adobe Illustrator 27.2.0, SVG Export Plug-In . SVG Version: 6.00 Build 0)  -->
<svg version="1.1" id="Capa_1" xmlns="http://www.w3.org/2000/svg" xmlns:xlink="http://www.w3.org/1999/xlink" x="0px" y="0px"
	 viewBox="0 0 406.08 527.64" style="enable-background:new 0 0 406.08 527.64;" xml:space="preserve">
<style type="text/css">
	.st0{fill:#FFFFFF;}
</style>
<g>
	<path class="st0" d="M381.73,94.48c-2.72-14.17-10.79-22.23-24.76-24.75c-2.42-1.01-4.96-0.51-7.44-0.51
		c-23.74-0.04-47.47,0-71.21-0.07c-2.42-0.01-5.02,0.88-7.27-0.85c-0.82-5.94,0.38-11.95-0.66-17.87
		c-2.57-13.98-10.52-22.36-23.47-24.74c-11.87-1.2-23.77-0.47-35.65-0.45c-17.15,0.03-34.32-0.67-51.47,0.42
		c-13,2.38-20.86,10.26-23.32,23.38c-1.43,5.06,0.41,10.34-1.02,15.4c-0.11,1.3-0.21,2.6-0.32,3.9c-2.04,1.58-4.41,0.81-6.62,0.82
		c-19.87,0.07-39.74-0.04-59.61,0.08c-6.82,0.04-13.67-0.73-20.46,0.51c-13.75,1.43-25.26,16.58-24.7,29.93
		c0.49,11.44,0.07,22.91,0.13,34.37c0.01,2.23,0.04,4.39,0.8,6.69c5.29,15.92,16.38,23.76,34.79,24.17
		c1.63,2.54,0.79,5.36,0.79,8.04c0.05,96.47,0.04,192.95,0.07,289.42c0,2.73-0.45,5.5,0.44,8.19c1.17,16.26,15.76,30.31,32.87,31.64
		c1.55,0.57,3.16,0.39,4.76,0.39c70.18,0.01,140.36,0.01,210.54-0.01c1.81,0,3.67,0.32,5.41-0.51c9.56-0.93,16.85-5.88,23.16-12.79
		c5.29-5.79,6.66-13.1,8.5-20.26c0.85-2.69,0.42-5.47,0.42-8.2c0.03-96.07,0.02-192.15,0.02-288.22c0-8.02,0-8.02,7.68-8.95
		c15.4-1.63,24.43-9.82,27.5-24.91C382.66,123.99,382.47,109.24,381.73,94.48z M164.36,42.53c25.8-0.25,51.61-0.22,77.41,0.05
		c6.94,0.07,11.2,4.86,11.63,11.92c0.28,4.55,0.05,9.13,0.05,13.7c-1.23,1.5-2.95,0.97-4.48,0.97c-30.39,0.03-60.78,0.03-91.17,0
		c-1.53,0-3.24,0.52-4.48-0.97c-0.03-4.57-0.12-9.13-0.07-13.7C153.33,47.55,157.38,42.6,164.36,42.53z M328.55,463.13
		c0,2.03,0.41,4.13-0.51,6.09c-1.85,8.05-6.32,13.52-14.81,15.01c-1.76,0.76-3.61,0.46-5.43,0.46c-69.62,0.01-139.23,0.01-208.85,0
		c-1.82,0-3.67,0.27-5.44-0.45c-10.6-2.5-16.02-9.02-16.02-19.7c-0.04-98.73-0.04-197.46-0.04-296.19c0-1.14,0.14-2.28,0.21-3.42
		c1.61-1.3,3.52-0.78,5.29-0.78c80.09-0.03,160.17-0.02,240.26-0.01c1.59,0,3.21-0.23,4.73,0.49c1.05,1.94,0.59,4.04,0.59,6.07
		C328.57,268.17,328.57,365.65,328.55,463.13z M363.88,136.31c-1,5.45-3.59,8.05-8.43,9.33c-1.94,1.02-4.05,0.58-6.08,0.58
		c-97.35,0.02-194.71,0.02-292.06,0c-2.04,0-4.13,0.36-6.11-0.49c-6.09-1.23-8.83-5.36-9.68-11.14
		c-0.72-12.41-0.83-24.83,0.04-37.24c0.82-7.19,6.03-9.59,12.1-10.84c1.98-0.41,4.11-0.13,6.17-0.13c95.31,0,190.61,0.03,285.92-0.1
		c4.17-0.01,8.11,0.94,11.99,1.81c5.64,1.26,6.95,6.97,6.99,11.38C364.81,111.74,366.14,124.02,363.88,136.31z"/>
	<path class="st0" d="M138.22,437.29c-1.45,3.94-4.08,6.61-8.44,6.55c-4.27-0.06-7.09-2.48-8.46-6.54
		c-0.76-1.75-0.47-3.61-0.47-5.42c-0.01-71.17-0.01-142.35,0-213.52c0-1.82-0.28-3.67,0.46-5.43c0.89-5.13,3.94-6.95,9.09-6.93
		c5.96,0.02,6.84,4.03,7.84,8.31c0.76,1.75,0.47,3.61,0.47,5.42c0.01,70.72,0.01,141.43,0,212.15
		C138.71,433.68,139.01,435.54,138.22,437.29z"/>
	<path class="st0" d="M211.21,436.19c-0.76,5-3.48,8.25-8.71,7.63c-5.63-0.66-8.04-4.5-8.02-10.15c0.06-22.7,0.02-45.39,0.02-68.09
		c0-49.52-0.02-99.04,0.01-148.56c0.01-8.64,2.83-11.46,10.1-10.98c4.32,0.29,5.89,2.89,6.63,6.55c0.61,1.78,0.37,3.63,0.38,5.45
		c0.01,70.9,0.01,141.81,0,212.71C211.62,432.57,211.88,434.42,211.21,436.19z"/>
	<path class="st0" d="M268.59,211.43c1.52-6.22,6.47-5.93,10.95-5.14c4.55,0.81,5.7,4.68,5.7,8.91
		c-0.01,72.8-0.03,145.59,0.03,218.39c0.01,5.67-2.5,9.21-7.86,10.31c-5,1.03-7.45-2.18-8.82-6.49c-0.94-1.96-0.53-4.06-0.53-6.1
		c-0.02-71.26-0.02-142.53,0-213.79C268.06,215.49,267.65,213.39,268.59,211.43z"/>
</g>
</svg>
